<?xml version="1.0" encoding="UTF-8" standalone="no"?>
<!-- Created with Inkscape (http://www.inkscape.org/) -->

<svg
   width="210mm"
   height="297mm"
   viewBox="0 0 210 297"
   version="1.1"
   id="svg1"
   xml:space="preserve"
   inkscape:version="1.4 (86a8ad7, 2024-10-11)"
   sodipodi:docname="GRUPO2.svg"
   xmlns:inkscape="http://www.inkscape.org/namespaces/inkscape"
   xmlns:sodipodi="http://sodipodi.sourceforge.net/DTD/sodipodi-0.dtd"
   xmlns="http://www.w3.org/2000/svg"
   xmlns:svg="http://www.w3.org/2000/svg"><sodipodi:namedview
     id="namedview1"
     pagecolor="#ffffff"
     bordercolor="#000000"
     borderopacity="0.25"
     inkscape:showpageshadow="2"
     inkscape:pageopacity="0.0"
     inkscape:pagecheckerboard="0"
     inkscape:deskcolor="#d1d1d1"
     inkscape:document-units="mm"
     inkscape:zoom="0.69670057"
     inkscape:cx="329.40981"
     inkscape:cy="329.40981"
     inkscape:window-width="1366"
     inkscape:window-height="715"
     inkscape:window-x="-8"
     inkscape:window-y="-8"
     inkscape:window-maximized="1"
     inkscape:current-layer="layer1" /><defs
     id="defs1" /><g
     inkscape:label="Capa 1"
     inkscape:groupmode="layer"
     id="layer1"><path
       style="fill:#d1f8da"
       d="M 85.730437,46.135472 V 39.862676 H 98.695021 111.6596 v 5.159375 5.159375 H 99.829515 87.999425 l -1.134494,1.113421 -1.134494,1.113422 z"
       id="path127" /><path
       style="fill:#f1cdd8"
       d="m 134.38002,95.491322 c -0.3291,-0.419644 -0.31975,-0.429002 0.0999,-0.09989 0.44073,0.345644 0.58089,0.562916 0.36312,0.562916 -0.0549,0 -0.2633,-0.20836 -0.46302,-0.463021 z"
       id="path126" /><path
       style="fill:#d5e6da"
       d="m 34.157572,79.925002 c 0.0127,-0.308224 0.07539,-0.370919 0.159853,-0.159852 0.07643,0.190996 0.06703,0.419199 -0.02089,0.507118 -0.08792,0.08792 -0.150453,-0.06835 -0.138965,-0.347266 z m 5.291667,-0.79375 c 0.0127,-0.308224 0.07539,-0.370919 0.159853,-0.159852 0.07643,0.190996 0.06703,0.419199 -0.02089,0.507118 -0.08792,0.08792 -0.150453,-0.06835 -0.138965,-0.347266 z"
       id="path125" /><path
       style="fill:#c8e8d4"
       d="m 34.422156,86.275002 c 0.0127,-0.308224 0.07539,-0.370919 0.159852,-0.159852 0.07643,0.190996 0.06703,0.419199 -0.02089,0.507118 -0.08792,0.08792 -0.150453,-0.06835 -0.138964,-0.347266 z m 5.027083,-6.35 c 0.0127,-0.308224 0.07539,-0.370919 0.159853,-0.159852 0.07643,0.190996 0.06703,0.419199 -0.02089,0.507118 -0.08792,0.08792 -0.150453,-0.06835 -0.138965,-0.347266 z m -5.291667,-0.79375 c 0.0127,-0.308224 0.07539,-0.370919 0.159853,-0.159852 0.07643,0.190996 0.06703,0.419199 -0.02089,0.507118 -0.08792,0.08792 -0.150453,-0.06835 -0.138965,-0.347266 z m 4.410883,-3.460471 c 0.181901,-0.0734 0.479558,-0.0734 0.661459,0 0.181901,0.0734 0.03307,0.133452 -0.330729,0.133452 -0.363803,0 -0.512631,-0.06005 -0.33073,-0.133452 z"
       id="path124" /><path
       style="fill:#b9e2c8"
       d="m 34.422156,85.481252 c 0.0127,-0.308224 0.07539,-0.370919 0.159852,-0.159852 0.07643,0.190996 0.06703,0.419199 -0.02089,0.507118 -0.08792,0.08792 -0.150453,-0.06835 -0.138964,-0.347266 z m 3.369086,-9.815983 c 0.190996,-0.07643 0.419199,-0.06703 0.507118,0.02089 0.08792,0.08792 -0.06835,0.150453 -0.347266,0.138964 -0.308224,-0.0127 -0.370919,-0.07539 -0.159852,-0.159852 z"
       id="path123" /><path
       style="fill:#bdcad8"
       d="M 85.730437,32.189759 V 26.898092 H 98.695021 111.6596 v 5.291667 5.291666 H 98.695021 85.730437 Z"
       id="path122" /><path
       style="fill:#fdca97"
       d="m 40.788963,96.695761 -5.32231,-4.577877 -0.0035,-1.367422 c -0.0019,-0.752083 -0.06841,-1.536496 -0.147702,-1.743141 -0.09766,-0.254499 0.673146,-0.914658 2.389108,-2.046156 l 2.533284,-1.670438 2.439538,1.14881 c 1.341746,0.631846 3.826467,1.826594 5.521601,2.654996 1.695135,0.828402 3.226665,1.554386 3.403399,1.613297 0.363042,0.121014 -1.747844,4.717346 -2.166462,4.717346 -0.134977,0 -0.710515,-0.267679 -1.278973,-0.594842 -1.029496,-0.592503 -1.035132,-0.592763 -1.433067,-0.06615 -0.614529,0.813253 -0.504574,1.127814 0.64872,1.855856 l 1.065055,0.67234 -0.722286,1.249209 c -0.397257,0.687064 -0.920687,1.582851 -1.163178,1.990631 l -0.440891,0.74141 z"
       id="path121" /><path
       style="fill:#ede883"
       d="m 57.420019,60.897051 c -0.363802,-0.207968 -0.542396,-0.378124 -0.396875,-0.378124 0.145521,0 0.562239,0.170156 0.926041,0.378124 0.363803,0.207968 0.542396,0.378124 0.396876,0.378124 -0.145521,0 -0.56224,-0.170156 -0.926042,-0.378124 z m -3.322868,-1.602096 c -0.484268,-0.387979 -0.475826,-0.393486 0.147868,-0.09645 0.809898,0.385713 0.959998,0.507924 0.623833,0.507924 -0.141961,0 -0.489226,-0.185162 -0.771701,-0.411471 z m 7.291618,-1.540507 c 0,-0.05494 0.208359,-0.263302 0.463021,-0.463021 0.419644,-0.329108 0.429002,-0.319749 0.0999,0.0999 -0.345644,0.440729 -0.562916,0.580887 -0.562916,0.363126 z m 1.322917,-1.752189 c 0.31086,-0.436562 0.624731,-0.79375 0.697491,-0.79375 0.07276,0 -0.122048,0.357188 -0.432908,0.79375 -0.31086,0.436563 -0.624731,0.79375 -0.697491,0.79375 -0.07276,0 0.122048,-0.357187 0.432908,-0.79375 z m -9.260417,-0.364478 c 0,-0.05494 0.208359,-0.263302 0.46302,-0.463021 0.419644,-0.329107 0.429003,-0.319749 0.09989,0.0999 -0.345643,0.440729 -0.562915,0.580887 -0.562915,0.363126 z m 6.879167,-2.016772 c -0.800365,-0.422832 -1.361954,-0.774402 -1.247976,-0.781268 0.281187,-0.01694 2.835476,1.286734 2.835476,1.447183 0,0.176753 0.0367,0.192147 -1.5875,-0.665915 z m -4.858181,-0.661458 c 0.08376,-0.218282 0.273198,-0.396875 0.420968,-0.396875 0.154862,0 0.129147,0.168118 -0.0607,0.396875 -0.181158,0.218281 -0.370593,0.396875 -0.420968,0.396875 -0.05038,0 -0.02306,-0.178594 0.0607,-0.396875 z"
       id="path120" /><path
       style="fill:#ece77a"
       d="m 57.683301,60.829882 c -0.508607,-0.213145 -1.60935,-0.739771 -2.446095,-1.170281 -0.836745,-0.43051 -1.521354,-0.708424 -1.521354,-0.617585 0,0.09084 -0.357188,-0.04584 -0.79375,-0.30372 -0.939167,-0.554779 -1.002368,-1.037827 -0.2241,-1.712815 0.313308,-0.27173 0.487084,-0.494055 0.386168,-0.494055 -0.100916,0 0.118992,-0.326206 0.488683,-0.724901 0.369691,-0.398695 0.672166,-0.862207 0.672166,-1.030026 0,-0.167819 0.178593,-0.373658 0.396875,-0.45742 0.218281,-0.08376 0.396875,-0.305986 0.396875,-0.49383 0,-0.187844 0.249719,-0.497486 0.554931,-0.688094 0.305212,-0.190609 0.489476,-0.412017 0.409474,-0.492018 -0.08,-0.08 0.02253,-0.313442 0.227841,-0.518756 0.321342,-0.321341 0.752284,-0.183114 3.096255,0.993146 1.497627,0.751544 2.75783,1.338092 2.800452,1.303439 0.04262,-0.03465 0.440448,0.08734 0.884057,0.271085 0.587916,0.243523 0.70783,0.389342 0.442352,0.537911 -0.200315,0.112102 -0.836263,0.896826 -1.413217,1.74383 -1.149564,1.687634 -1.216515,1.779099 -1.979966,2.704972 -0.288344,0.349688 -0.524262,0.708001 -0.524262,0.796251 0,0.08825 -0.208945,0.290943 -0.464323,0.450429 -0.347374,0.216939 -0.697234,0.192366 -1.389062,-0.09756 z"
       id="path119" /><path
       style="fill:#ace9ac"
       d="m 35.939158,73.019435 c 0.190996,-0.07643 0.4192,-0.06703 0.507118,0.02089 0.08792,0.08792 -0.06835,0.150453 -0.347265,0.138965 -0.308225,-0.0127 -0.370919,-0.07539 -0.159853,-0.159853 z"
       id="path118" /><path
       style="fill:#a6dab9"
       d="m 34.422156,84.422919 c 0.0127,-0.308224 0.07539,-0.370919 0.159852,-0.159852 0.07643,0.190996 0.06703,0.419199 -0.02089,0.507118 -0.08792,0.08792 -0.150453,-0.06835 -0.138964,-0.347266 z m 5.027083,-2.645833 c 0.0127,-0.308225 0.07539,-0.370919 0.159853,-0.159853 0.07643,0.190996 0.06703,0.4192 -0.02089,0.507118 -0.08792,0.08792 -0.150453,-0.06835 -0.138965,-0.347265 z m -5.291667,-4.233334 c 0.0127,-0.308224 0.07539,-0.370919 0.159853,-0.159852 0.07643,0.190996 0.06703,0.419199 -0.02089,0.507118 -0.08792,0.08792 -0.150453,-0.06835 -0.138965,-0.347266 z m 2.16696,-1.881097 c 0.257431,-0.06708 0.614619,-0.06267 0.79375,0.0098 0.179132,0.07248 -0.03149,0.127362 -0.468056,0.12197 -0.436562,-0.0054 -0.583125,-0.06469 -0.325694,-0.131774 z"
       id="path117" /><path
       style="fill:#e4b894"
       d="m 35.215906,89.450002 c 0.0127,-0.308224 0.07539,-0.370919 0.159852,-0.159852 0.07643,0.190996 0.06703,0.419199 -0.02089,0.507118 -0.08792,0.08792 -0.150453,-0.06835 -0.138964,-0.347266 z"
       id="path116" /><path
       style="fill:#cb65fe"
       d="m 142.88044,73.067884 v -5.159375 h 12.96458 12.96459 v 5.159375 5.159375 h -12.96459 -12.96458 z"
       id="path115" /><path
       style="fill:#9bd5b1"
       d="m 34.422156,83.629169 c 0.0127,-0.308224 0.07539,-0.370919 0.159852,-0.159852 0.07643,0.190996 0.06703,0.419199 -0.02089,0.507118 -0.08792,0.08792 -0.150453,-0.06835 -0.138964,-0.347266 z m 5.047972,-0.903993 c 0,-0.363802 0.06005,-0.51263 0.133452,-0.330729 0.0734,0.181901 0.0734,0.479557 0,0.661458 -0.0734,0.181901 -0.133452,0.03307 -0.133452,-0.330729 z m -4.993186,-1.719792 c 0.002,-0.727604 0.05337,-0.993857 0.114186,-0.591674 0.06082,0.402183 0.05919,0.997495 -0.0036,1.322916 -0.0628,0.325421 -0.11256,-0.0036 -0.110574,-0.731242 z m 4.738406,-3.175 c 0.0054,-0.436562 0.06469,-0.583124 0.131774,-0.325693 0.06708,0.257431 0.06267,0.614618 -0.0098,0.79375 -0.07248,0.179131 -0.127362,-0.03149 -0.12197,-0.468057 z m -5.036887,-1.190625 c 0,-0.363802 0.06005,-0.51263 0.133452,-0.330729 0.0734,0.181901 0.0734,0.479557 0,0.661458 -0.0734,0.181902 -0.133452,0.03307 -0.133452,-0.330729 z m 0.950411,-0.968978 c 0.181901,-0.0734 0.479557,-0.0734 0.661458,0 0.181901,0.0734 0.03307,0.133452 -0.330729,0.133452 -0.363802,0 -0.51263,-0.06005 -0.330729,-0.133452 z"
       id="path114" /><path
       style="fill:#8bc4c4"
       d="m 142.08669,102.17205 c 0.34177,-0.3638 0.68094,-0.66146 0.7537,-0.66146 0.0728,0 -0.14734,0.29766 -0.48912,0.66146 -0.34177,0.3638 -0.68094,0.66146 -0.7537,0.66146 -0.0728,0 0.14735,-0.29766 0.48912,-0.66146 z"
       id="path113" /><path
       style="fill:#92d2aa"
       d="m 34.646564,85.04028 c -0.04567,-3.915677 -0.253627,-8.539122 -0.405618,-9.018003 -0.139931,-0.440882 -0.07106,-0.493311 0.460927,-0.350909 0.34399,0.09208 1.518613,0.169041 2.610272,0.171028 l 1.984836,0.0036 0.06648,3.498251 c 0.03656,1.924038 0.136326,3.718331 0.221699,3.987317 0.11054,0.348281 -0.0039,0.530686 -0.397666,0.633649 -0.304089,0.07952 -0.552889,0.230605 -0.552889,0.335742 0,0.105137 -0.474884,0.418673 -1.055298,0.696746 -0.580413,0.278073 -1.056663,0.594884 -1.058333,0.704025 -0.0017,0.10914 -0.167051,0.198437 -0.367514,0.198437 -0.200463,0 -0.512698,0.178594 -0.693855,0.396875 -0.597602,0.720066 -0.793513,0.417232 -0.813037,-1.256771 z"
       id="path112" /><path
       style="fill:#94e394"
       d="m 39.449239,72.781252 c 0.0127,-0.308224 0.07539,-0.370919 0.159853,-0.159852 0.07643,0.190996 0.06703,0.419199 -0.02089,0.507118 -0.08792,0.08792 -0.150453,-0.06835 -0.138965,-0.347266 z m -5.820833,-0.529166 c 0.0127,-0.308225 0.07539,-0.37092 0.159852,-0.159853 0.07643,0.190996 0.06703,0.419199 -0.02089,0.507118 -0.08792,0.08792 -0.150453,-0.06835 -0.138964,-0.347265 z"
       id="path111" /><path
       style="fill:#a39cc8"
       d="m 137.02586,98.401739 c -0.32911,-0.419644 -0.31975,-0.429003 0.0999,-0.0999 0.25466,0.199719 0.46302,0.408079 0.46302,0.463021 0,0.217761 -0.21727,0.0776 -0.56291,-0.363126 z"
       id="path110" /><path
       style="fill:#fe0bfe"
       d="m 53.946452,104.02414 c 0.142886,-0.29105 0.453678,-0.7673 0.690651,-1.05834 l 0.430858,-0.52917 -0.259792,0.52917 c -0.142886,0.29104 -0.453679,0.76729 -0.690651,1.05834 l -0.430858,0.52916 z m -5.93339,-1.74285 c -0.09777,-0.1582 -0.07078,-0.39462 0.05998,-0.52539 0.140611,-0.14061 0.23775,-0.0231 0.23775,0.28764 0,0.60119 -0.04895,0.64028 -0.29773,0.23775 z m 8.340737,-1.8143 c 0.151424,-0.28293 0.406088,-0.595248 0.56592,-0.69403 0.159833,-0.09878 0.08597,0.132712 -0.164144,0.51443 -0.529596,0.80827 -0.803834,0.93086 -0.401776,0.1796 z m -6.077531,-2.660564 c 0.155761,-0.291041 0.342733,-0.529166 0.415494,-0.529166 0.07276,0 0.0049,0.238125 -0.15091,0.529166 -0.155761,0.291042 -0.342733,0.529167 -0.415493,0.529167 -0.07276,0 -0.0049,-0.238125 0.150909,-0.529167 z m 2.497966,-0.146888 c -0.49319,-0.395126 -0.489944,-0.400011 0.08172,-0.122982 0.327422,0.158668 0.595313,0.34383 0.595313,0.411471 0,0.202464 -0.137215,0.143996 -0.677035,-0.288489 z"
       id="path109" /><path
       style="fill:#fefe00"
       d="m 113.77627,60.500176 v -5.291667 h 12.96459 12.96458 v 5.291667 5.291666 h -12.96458 -12.96459 z"
       id="path108" /><path
       style="fill:#fe00fe"
       d="m 53.122735,104.26887 c -0.08368,-0.0837 -0.311883,-0.18445 -0.507118,-0.22393 -0.195235,-0.0395 -0.712161,-0.22097 -1.148723,-0.4033 -0.436563,-0.18233 -0.912813,-0.36301 -1.058334,-0.40152 -0.145521,-0.0385 -0.681302,-0.23119 -1.190625,-0.42819 -0.509323,-0.19699 -1.020437,-0.33056 -1.135809,-0.29681 -0.115373,0.0337 -0.0898,-0.16281 0.05684,-0.43679 0.146633,-0.27399 0.191419,-0.57335 0.09952,-0.66524 -0.09189,-0.0919 -0.04728,-0.16708 0.09913,-0.16708 0.255133,0 0.79434,-0.93527 0.821909,-1.425627 0.0073,-0.129252 0.118963,-0.307845 0.248214,-0.396875 0.393757,-0.271226 1.456016,-2.145694 1.220836,-2.154294 -0.121009,-0.0044 -0.0035,-0.133995 0.261235,-0.287933 0.377727,-0.219679 0.690764,-0.137856 1.455208,0.380373 0.535676,0.363144 1.769766,1.05826 2.742421,1.544704 l 1.768464,0.884443 -0.776276,1.133849 c -0.426953,0.62362 -0.776277,1.2487 -0.776277,1.38906 0,0.14037 -0.109352,0.25522 -0.243004,0.25522 -0.133652,0 -0.50055,0.41672 -0.815329,0.92604 -0.559527,0.90533 -0.814811,1.08137 -1.122284,0.7739 z"
       id="path107" /><path
       style="fill:#c8a48b"
       d="m 35.215906,90.772919 c 0.0127,-0.308224 0.07539,-0.370919 0.159852,-0.159852 0.07643,0.190996 0.06703,0.419199 -0.02089,0.507118 -0.08792,0.08792 -0.150453,-0.06835 -0.138964,-0.347266 z"
       id="path106" /><path
       style="fill:#8388d5"
       d="m 47.500016,96.48654 c -0.09269,-0.149982 0.01351,-0.194338 0.248969,-0.103984 0.458369,0.175893 0.542233,0.365537 0.161648,0.365537 -0.136932,0 -0.32171,-0.117699 -0.410617,-0.261553 z m -0.778612,-1.403504 c 0.09936,-0.260937 0.247304,-0.407781 0.328766,-0.326319 0.08146,0.08146 1.68e-4,0.294956 -0.180654,0.474431 -0.261306,0.259363 -0.291697,0.228972 -0.148112,-0.148112 z M 59.76752,78.293405 c -0.329108,-0.419644 -0.319749,-0.429002 0.09989,-0.0999 0.254661,0.19972 0.463021,0.408079 0.463021,0.463021 0,0.217761 -0.217272,0.0776 -0.562916,-0.363126 z m -3.262244,-0.57703 c -0.08372,-0.135466 -0.05106,-0.308822 0.07258,-0.385236 0.123641,-0.07642 0.224802,0.03442 0.224802,0.246301 0,0.446131 -0.08343,0.485111 -0.297382,0.138935 z"
       id="path105" /><path
       style="fill:#7b86dc"
       d="m 137.49486,98.716391 -2.07829,-2.232881 h 2.14443 2.14444 v 2.248958 c 0,1.236927 -0.0298,2.241722 -0.0662,2.232882 -0.0364,-0.009 -1.00137,-1.020874 -2.14443,-2.248959 z M 48.159602,96.753134 c 0,-0.142749 -0.289042,-0.332087 -0.642314,-0.420753 -0.809375,-0.20314 -0.948061,-0.596263 -0.506724,-1.436371 0.191118,-0.363803 0.349242,-0.526517 0.351387,-0.361588 0.0021,0.164928 0.21226,0.369831 0.466921,0.455339 0.254662,0.08551 0.701146,0.307754 0.992188,0.49388 0.291042,0.186125 0.568579,0.357979 0.616749,0.381895 0.04817,0.02392 -0.04532,0.291808 -0.207746,0.595313 -0.299066,0.558809 -1.070461,0.769435 -1.070461,0.292285 z M 58.742936,78.497525 c -1.091407,-0.409458 -2.082462,-0.684846 -2.202346,-0.611972 -0.355703,0.21622 0.452094,-1.094056 0.818848,-1.328201 0.184961,-0.118084 0.267232,-0.326444 0.182822,-0.463021 -0.08441,-0.136577 -0.04151,-0.248322 0.09532,-0.248322 0.136837,0 0.585319,0.446485 0.996625,0.992188 0.411307,0.545703 1.092873,1.319609 1.514593,1.719791 0.421719,0.400183 0.724405,0.717795 0.672636,0.705805 -0.05177,-0.01199 -0.987096,-0.35681 -2.078502,-0.766268 z"
       id="path104" /><path
       style="fill:#b99889"
       d="m 35.215906,91.566669 c 0.0127,-0.308224 0.07539,-0.370919 0.159852,-0.159852 0.07643,0.190996 0.06703,0.419199 -0.02089,0.507118 -0.08792,0.08792 -0.150453,-0.06835 -0.138964,-0.347266 z"
       id="path103" /><path
       style="fill:#b1fe17"
       d="m 85.108024,65.05551 c 0.04876,-0.07756 -0.05522,-0.33057 -0.231056,-0.56224 -0.175841,-0.231671 -0.215528,-0.332955 -0.08819,-0.225077 0.127334,0.107878 0.381739,0.07147 0.565345,-0.08091 0.246207,-0.204333 0.317868,-0.168304 0.27302,0.137266 -0.03345,0.227875 -0.183875,0.517293 -0.334289,0.643151 -0.150415,0.125858 -0.233586,0.165373 -0.184826,0.08781 z m -0.150449,-3.122175 c 0.0127,-0.308224 0.07539,-0.370919 0.159852,-0.159852 0.07643,0.190996 0.06703,0.419199 -0.02089,0.507118 -0.08792,0.08792 -0.150453,-0.06835 -0.138964,-0.347266 z m 0.264583,-1.852083 c 0.0127,-0.308224 0.07539,-0.370919 0.159853,-0.159852 0.07643,0.190996 0.06703,0.419199 -0.02089,0.507118 -0.08792,0.08792 -0.150453,-0.06835 -0.138965,-0.347266 z"
       id="path102" /><path
       style="fill:#efad29"
       d="m 41.611742,80.476218 c 0.0029,-0.582084 0.05712,-0.789055 0.120405,-0.459936 0.06329,0.329118 0.06088,0.805368 -0.0053,1.058333 -0.06622,0.252965 -0.118003,-0.01631 -0.115066,-0.598397 z"
       id="path101" /><path
       style="fill:#7aa2a6"
       d="m 82.047158,47.910419 c 0.0127,-0.308225 0.07539,-0.37092 0.159853,-0.159853 0.07643,0.190996 0.06703,0.419199 -0.02089,0.507118 -0.08792,0.08792 -0.150452,-0.06835 -0.138963,-0.347265 z"
       id="path100" /><path
       style="fill:#cd39b8"
       d="m 110.77272,78.039529 c -0.41503,-0.2179 -0.89127,-0.422344 -1.05833,-0.454321 -0.16706,-0.03198 -0.73083,-0.243605 -1.25283,-0.470285 -0.522,-0.22668 -1.23638,-0.495323 -1.5875,-0.596984 -0.35113,-0.101661 -1.04047,-0.366717 -1.53186,-0.589012 -0.4914,-0.222295 -1.02718,-0.432659 -1.19063,-0.467474 -0.16345,-0.03481 -0.65436,-0.21248 -1.09092,-0.394811 -0.43657,-0.18233 -0.91282,-0.360924 -1.05834,-0.396875 -0.14552,-0.03595 -0.62177,-0.214544 -1.05833,-0.396875 -0.43656,-0.18233 -0.91281,-0.358168 -1.058334,-0.39075 -0.145521,-0.03258 -0.691673,-0.244706 -1.213672,-0.471386 -0.521998,-0.22668 -1.236373,-0.495323 -1.5875,-0.596984 -0.351126,-0.101661 -1.040464,-0.366716 -1.531862,-0.589012 -0.491397,-0.222295 -1.027179,-0.432658 -1.190625,-0.467474 -0.163446,-0.03482 -0.654362,-0.21248 -1.090925,-0.394811 -0.436562,-0.18233 -0.912812,-0.360924 -1.058333,-0.396875 -0.145521,-0.03595 -0.621771,-0.214544 -1.058334,-0.396875 -0.436562,-0.18233 -0.912812,-0.358168 -1.058333,-0.39075 -0.145521,-0.03258 -0.733885,-0.262343 -1.307477,-0.51058 -0.573592,-0.248237 -1.347498,-0.52383 -1.719792,-0.612429 -0.372294,-0.0886 -0.79596,-0.253001 -0.941481,-0.365339 -0.145521,-0.112337 -0.681302,-0.323307 -1.190625,-0.468821 -0.649346,-0.18552 3.204627,-0.271702 12.898438,-0.288435 l 13.824475,-0.02386 v 5.291667 c 0,2.910417 -0.0298,5.279037 -0.0661,5.2636 -0.0364,-0.01544 -0.40571,-0.206348 -0.82074,-0.424247 z"
       id="path99" /><path
       style="fill:#eeab22"
       d="m 63.240852,91.621115 c 0,-0.05494 0.20836,-0.263302 0.463021,-0.463021 0.419644,-0.329108 0.429003,-0.319749 0.0999,0.09989 -0.345644,0.440729 -0.562916,0.580887 -0.562916,0.363126 z m 4.233334,-4.530314 c 0.493655,-0.509323 0.957086,-0.926042 1.029847,-0.926042 0.07276,0 -0.271608,0.416719 -0.765264,0.926042 -0.493655,0.509323 -0.957086,0.926042 -1.029846,0.926042 -0.07276,0 0.271608,-0.416719 0.765263,-0.926042 z"
       id="path98" /><path
       style="fill:#eea81d"
       d="m 62.579394,92.250176 c 0.263389,-0.291042 0.538421,-0.529167 0.611181,-0.529167 0.07276,0 -0.08321,0.238125 -0.346598,0.529167 -0.263389,0.291042 -0.53842,0.529167 -0.611181,0.529167 -0.07276,0 0.08321,-0.238125 0.346598,-0.529167 z m 3.307292,-3.539478 c 0,-0.05494 0.208359,-0.263302 0.463021,-0.463021 0.419644,-0.329107 0.429002,-0.319749 0.09989,0.0999 -0.345644,0.440729 -0.562916,0.580887 -0.562916,0.363126 z"
       id="path97" /><path
       style="fill:#acfe08"
       d="m 85.142399,65.115381 c 0.323421,-0.226533 0.588038,-0.602173 0.588038,-0.834757 0,-0.365811 -0.07295,-0.356862 -0.540553,0.06631 -0.373702,0.338196 -0.499449,0.371271 -0.407387,0.107153 0.07324,-0.210122 0.191628,-1.036884 0.263081,-1.837249 0.07145,-0.800364 0.254088,-2.169583 0.405855,-3.042708 0.151766,-0.873125 0.276629,-2.212578 0.277471,-2.976562 l 0.0015,-1.389063 h 12.964584 12.964582 v 5.159375 5.159375 H 98.106983 c -12.341623,0 -13.500078,-0.0368 -12.964584,-0.411878 z"
       id="path96" /><path
       style="fill:#eea718"
       d="m 52.339506,88.356361 c -4.989927,-2.842722 -9.251662,-5.236242 -9.470521,-5.318935 -0.918292,-0.346961 -1.07023,-0.839397 -1.207241,-3.912685 -0.076,-1.704661 -0.215734,-3.229033 -0.310531,-3.387495 -0.102757,-0.171769 -0.01563,-0.161436 0.215756,0.02559 0.213462,0.172536 0.682801,0.36259 1.042977,0.422341 0.360175,0.05975 0.833458,0.182095 1.051739,0.271875 0.473666,0.194821 8.696985,2.534856 9.418892,2.680249 0.276641,0.05571 0.830405,0.227989 1.230587,0.38283 0.400183,0.154842 0.727605,0.210367 0.727605,0.12339 0,-0.08698 0.151795,-0.03216 0.337323,0.121814 0.185528,0.153974 0.632012,0.328841 0.992188,0.388592 0.360175,0.05975 0.833458,0.18162 1.051739,0.270819 0.218281,0.0892 1.527969,0.479327 2.910417,0.86695 2.675665,0.750227 3.413448,1.05574 3.836458,1.588662 0.145521,0.183332 1.112837,1.035344 2.149592,1.89336 l 1.885009,1.560029 -1.466991,1.569152 c -0.806844,0.863033 -2.334458,2.481053 -3.394696,3.595599 l -1.927706,2.026447 z"
       id="path95" /><path
       style="fill:#a59a6a"
       d="m 69.297827,84.665156 c -0.277064,-0.341455 -0.282279,-0.402227 -0.02103,-0.245058 0.20907,0.125778 0.577808,0.01431 0.926042,-0.279941 l 0.57864,-0.488939 -0.526347,0.661458 c -0.289491,0.363802 -0.540415,0.694101 -0.55761,0.733998 -0.01719,0.0399 -0.197056,-0.131786 -0.399694,-0.381518 z m 1.351359,-1.246125 c 0,-0.05494 0.208359,-0.263301 0.463021,-0.463021 0.419644,-0.329107 0.429002,-0.319749 0.09989,0.09989 -0.345644,0.440729 -0.562916,0.580887 -0.562916,0.363126 z m 1.058333,-1.322916 c 0,-0.05494 0.20836,-0.263302 0.463021,-0.463021 0.419644,-0.329108 0.429003,-0.319749 0.09989,0.0999 -0.345643,0.440729 -0.562916,0.580887 -0.562916,0.363126 z m 1.852084,-2.281356 c 0.461018,-0.582083 0.897747,-1.058333 0.970507,-1.058333 0.07276,0 -0.244905,0.47625 -0.705924,1.058333 -0.461018,0.582084 -0.897747,1.058334 -0.970507,1.058334 -0.07276,0 0.244905,-0.47625 0.705924,-1.058334 z m -10.068411,-0.463021 -0.911798,-0.992187 0.992188,0.911798 c 0.923506,0.848682 1.113839,1.072577 0.911798,1.072577 -0.04421,0 -0.490699,-0.446484 -0.992188,-0.992188 z m 11.126744,-0.95979 c 0,-0.05494 0.20836,-0.263302 0.463021,-0.463021 0.419644,-0.329107 0.429002,-0.319749 0.0999,0.0999 -0.345644,0.440729 -0.562916,0.580887 -0.562916,0.363126 z m 1.174588,-1.43305 c 0.106637,-0.188275 0.04133,-0.545463 -0.145131,-0.79375 -0.30523,-0.40644 -0.288854,-0.405474 0.16432,0.0097 0.420493,0.385234 0.44438,0.515876 0.145131,0.79375 -0.288461,0.267856 -0.320455,0.265967 -0.16432,-0.0097 z m -15.746697,-1.311326 -0.641433,-0.727604 0.727604,0.641433 c 0.680056,0.599516 0.848939,0.813775 0.641433,0.813775 -0.04739,0 -0.374816,-0.327422 -0.727604,-0.727604 z m 12.686277,-1.5875 c -0.329108,-0.419644 -0.319749,-0.429003 0.0999,-0.09989 0.254661,0.199719 0.463021,0.408079 0.463021,0.463021 0,0.217761 -0.217272,0.0776 -0.562916,-0.363126 z m -15.326329,-1.322917 -0.911798,-0.992187 0.992188,0.911798 c 0.545703,0.501489 0.992187,0.947973 0.992187,0.992187 0,0.202042 -0.223894,0.01171 -1.072577,-0.911798 z m 13.474245,0 c -0.329107,-0.419644 -0.319749,-0.429002 0.0999,-0.09989 0.254662,0.19972 0.463021,0.408079 0.463021,0.463021 0,0.217761 -0.217272,0.0776 -0.562916,-0.363126 z m -2.910416,-2.116667 c -0.329108,-0.419644 -0.319749,-0.429002 0.09989,-0.09989 0.254662,0.199719 0.463021,0.408078 0.463021,0.46302 0,0.217762 -0.217272,0.0776 -0.562915,-0.363126 z m -13.738829,-1.322916 -0.911798,-0.992188 0.992187,0.911798 c 0.923507,0.848683 1.11384,1.072577 0.911799,1.072577 -0.04421,0 -0.490699,-0.446484 -0.992188,-0.992187 z m 11.886745,0 c -0.329107,-0.419644 -0.319749,-0.429003 0.0999,-0.0999 0.440729,0.345644 0.580887,0.562916 0.363126,0.562916 -0.05494,0 -0.263301,-0.20836 -0.463021,-0.463021 z m -2.910417,-2.116667 c -0.329107,-0.419644 -0.319749,-0.429002 0.09989,-0.0999 0.254662,0.199719 0.463021,0.408079 0.463021,0.463021 0,0.217761 -0.217272,0.0776 -0.562916,-0.363126 z m -12.421693,-1.5875 -0.641433,-0.727604 0.727604,0.641433 c 0.680056,0.599516 0.848939,0.813775 0.641433,0.813775 -0.04739,0 -0.374816,-0.327422 -0.727604,-0.727604 z m 7.659193,-1.852083 c -0.329107,-0.419644 -0.319749,-0.429003 0.0999,-0.0999 0.254661,0.199719 0.463021,0.408078 0.463021,0.463021 0,0.217761 -0.217272,0.0776 -0.562916,-0.363126 z m -8.283615,-2.524953 c 0.09936,-0.260938 0.247304,-0.407781 0.328765,-0.326319 0.08146,0.08146 1.68e-4,0.294956 -0.180653,0.474431 -0.261307,0.259363 -0.291698,0.228972 -0.148112,-0.148112 z"
       id="path94" /><path
       style="fill:#68d868"
       d="m 39.449239,71.193752 c 0.0127,-0.308224 0.07539,-0.370919 0.159853,-0.159852 0.07643,0.190996 0.06703,0.419199 -0.02089,0.507118 -0.08792,0.08792 -0.150453,-0.06835 -0.138965,-0.347266 z"
       id="path93" /><path
       style="fill:#a29664"
       d="m 68.517777,83.914248 c -1.886209,-1.372302 -2.483675,-1.872197 -3.143266,-2.629944 -0.373147,-0.428678 -1.392825,-1.551401 -2.26595,-2.494941 -0.873125,-0.94354 -2.242344,-2.429906 -3.042709,-3.303037 -0.800364,-0.873131 -2.125149,-2.310251 -2.943965,-3.193601 -7.952622,-8.579397 -7.779843,-8.305732 -6.822796,-10.806648 l 0.565679,-1.478212 0.96252,0.418844 c 0.529386,0.230364 1.617364,0.748969 2.417729,1.152457 0.800364,0.403487 1.574271,0.743203 1.719791,0.754923 0.145521,0.01172 0.859896,0.405866 1.5875,0.875879 0.727605,0.470013 1.437033,0.90422 1.576507,0.964905 0.139474,0.06068 0.554977,0.389796 0.923338,0.731361 0.368362,0.341564 0.819793,0.621025 1.003181,0.621025 0.183388,0 0.333433,0.09614 0.333433,0.213651 0,0.249879 2.285983,1.903016 2.63152,1.903016 0.12914,0 0.274487,0.09926 0.322994,0.220581 0.126317,0.315929 4.110431,3.219002 4.417688,3.219002 0.14114,0 0.296305,0.111584 0.344812,0.247963 0.115468,0.324643 4.120109,3.191621 4.458108,3.191621 0.143162,0 0.260295,0.10324 0.260295,0.229423 0,0.126184 0.482438,0.548686 1.072084,0.938896 0.872471,0.577374 1.038536,0.815169 0.891905,1.277161 -0.0991,0.312229 -0.385858,0.75293 -0.637245,0.979334 -0.691908,0.623147 -2.385077,2.814773 -2.385077,3.087228 0,0.131909 -0.238125,0.388547 -0.529167,0.570305 -0.291041,0.181759 -0.529167,0.433477 -0.529167,0.559373 0,0.253394 -1.912716,2.412446 -2.137199,2.412446 -0.07768,0 -0.551329,-0.298355 -1.052543,-0.663011 z"
       id="path92" /><path
       style="fill:#ce8147"
       d="m 42.603351,68.073198 c 0,-0.05494 0.20836,-0.263302 0.463021,-0.463021 0.419644,-0.329108 0.429003,-0.319749 0.0999,0.0999 -0.345644,0.440729 -0.562916,0.580887 -0.562916,0.363126 z m 1.852084,-1.5875 c 0,-0.05494 0.208359,-0.263302 0.463021,-0.463021 0.419644,-0.329108 0.429002,-0.319749 0.0999,0.09989 -0.345644,0.440729 -0.562916,0.580887 -0.562916,0.363126 z"
       id="path91" /><path
       style="fill:#cc7d41"
       d="m 54.740436,72.737155 c -0.329107,-0.419644 -0.319749,-0.429002 0.09989,-0.09989 0.254662,0.19972 0.463021,0.408079 0.463021,0.463021 0,0.217761 -0.217272,0.0776 -0.562916,-0.363126 z m -1.96727,-2.248958 -0.777106,-0.859896 0.859896,0.777105 c 0.472943,0.427408 0.859896,0.814361 0.859896,0.859896 0,0.204407 -0.218315,0.02444 -0.942686,-0.777105 z m -9.376065,-3.222528 c 0,-0.07276 0.238125,-0.259732 0.529167,-0.415493 0.291042,-0.155761 0.529167,-0.22367 0.529167,-0.15091 0,0.07276 -0.238125,0.259732 -0.529167,0.415493 -0.291042,0.155761 -0.529167,0.22367 -0.529167,0.15091 z m 4.878148,-1.804556 -0.777106,-0.859896 0.859896,0.777106 c 0.472943,0.427408 0.859896,0.814361 0.859896,0.859896 0,0.204406 -0.218315,0.02444 -0.942686,-0.777106 z m -3.026064,0.238177 c 0,-0.06114 0.312316,-0.315809 0.694035,-0.56592 0.381719,-0.250112 0.613213,-0.323977 0.514431,-0.164145 -0.188769,0.305434 -1.208466,0.921459 -1.208466,0.730065 z"
       id="path90" /><path
       style="fill:#7db056"
       d="m 114.30544,32.189759 v -5.291667 h 12.83229 12.83229 v 5.291667 5.291666 h -12.83229 -12.83229 z"
       id="path89" /><path
       style="fill:#2dd97b"
       d="m 114.30544,45.022051 v -5.159375 h 12.83229 12.83229 v 5.159375 5.159375 h -12.83229 -12.83229 z"
       id="path88" /><path
       style="fill:#56d456"
       d="m 39.449239,70.400002 c 0.0127,-0.308224 0.07539,-0.370919 0.159853,-0.159852 0.07643,0.190996 0.06703,0.419199 -0.02089,0.507118 -0.08792,0.08792 -0.150453,-0.06835 -0.138965,-0.347266 z m -5.820833,-0.529166 c 0.0127,-0.308225 0.07539,-0.37092 0.159852,-0.159853 0.07643,0.190996 0.06703,0.419199 -0.02089,0.507118 -0.08792,0.08792 -0.150453,-0.06835 -0.138964,-0.347265 z"
       id="path87" /><path
       style="fill:#cb793b"
       d="m 55.80451,77.581889 c -0.06391,-0.06391 -0.411178,-0.173552 -0.771702,-0.243645 -0.360524,-0.07009 -1.161513,-0.310176 -1.779977,-0.533518 -0.618463,-0.223342 -1.124479,-0.337248 -1.124479,-0.253125 0,0.08412 -0.148828,0.03306 -0.330729,-0.113476 -0.181901,-0.146535 -0.747448,-0.362752 -1.256771,-0.48048 -1.118241,-0.258479 -1.093182,-0.251453 -1.5875,-0.445119 -0.588507,-0.230568 -2.231212,-0.725207 -2.805513,-0.844774 -0.275978,-0.05746 -1.009452,-0.287408 -1.629941,-0.511001 -0.620489,-0.223594 -1.188437,-0.39843 -1.262107,-0.388526 -0.07367,0.0099 -0.521641,-0.05472 -0.995491,-0.14362 l -0.861545,-0.161627 0.186598,-2.04963 c 0.102629,-1.127297 0.19507,-2.265017 0.205424,-2.528266 0.01035,-0.26325 0.108121,-0.426271 0.217262,-0.36227 0.109141,0.064 1.32203,-0.863357 2.69531,-2.060796 l 2.496872,-2.177161 1.339586,1.464589 c 0.736773,0.805524 1.77081,1.948269 2.297862,2.539432 2.296072,2.575371 3.606048,4.017291 4.546235,5.004145 0.553627,0.581105 1.232585,1.373931 1.508796,1.761834 0.499099,0.70092 0.498134,0.711266 -0.156236,1.674258 -0.678284,0.998185 -0.734817,1.049914 -0.931954,0.852776 z"
       id="path86" /><path
       style="fill:#cb426d"
       d="m 134.66411,95.491322 -0.9118,-0.992187 0.99219,0.911798 c 0.5457,0.501489 0.99219,0.947973 0.99219,0.992187 0,0.202042 -0.2239,0.01171 -1.07258,-0.911798 z m -1.98677,-2.248958 -0.77711,-0.859896 0.8599,0.777105 c 0.47294,0.427408 0.85989,0.814361 0.85989,0.859896 0,0.204407 -0.21831,0.02444 -0.94268,-0.777105 z m -2.53065,-2.778125 c -0.32911,-0.419644 -0.31975,-0.429003 0.0999,-0.0999 0.25467,0.199719 0.46303,0.408078 0.46303,0.463021 0,0.217761 -0.21728,0.0776 -0.56292,-0.363126 z"
       id="path85" /><path
       style="fill:#4381ac"
       d="m 76.602311,74.258509 c 0.08994,-0.145521 0.216026,-0.264583 0.280199,-0.264583 0.06417,0 0.116676,0.119062 0.116676,0.264583 0,0.145521 -0.126089,0.264584 -0.280198,0.264584 -0.154109,0 -0.206613,-0.119063 -0.116677,-0.264584 z m -0.95979,-0.463021 c -0.329108,-0.419643 -0.319749,-0.429002 0.0999,-0.09989 0.254661,0.199719 0.46302,0.408078 0.46302,0.46302 0,0.217762 -0.217272,0.0776 -0.562915,-0.363126 z m -2.910417,-2.116666 c -0.329108,-0.419644 -0.319749,-0.429003 0.0999,-0.0999 0.440729,0.345644 0.580887,0.562916 0.363126,0.562916 -0.05494,0 -0.263302,-0.20836 -0.463021,-0.463021 z m -2.910417,-2.116667 c -0.329107,-0.419644 -0.319749,-0.429002 0.09989,-0.0999 0.254661,0.199719 0.463021,0.408079 0.463021,0.463021 0,0.217761 -0.217272,0.0776 -0.562916,-0.363126 z M 66.91127,67.445488 c -0.329107,-0.419644 -0.319749,-0.429002 0.0999,-0.09989 0.254662,0.199719 0.463021,0.408078 0.463021,0.46302 0,0.217761 -0.217272,0.0776 -0.562916,-0.363126 z m 3.704167,-4.233333 c -0.329107,-0.419644 -0.319749,-0.429002 0.0999,-0.0999 0.254661,0.199719 0.463021,0.408079 0.463021,0.463021 0,0.217761 -0.217272,0.0776 -0.562916,-0.363126 z M 60.595019,61.558509 c 0,-0.145521 0.126089,-0.264583 0.280198,-0.264583 0.154109,0 0.206614,0.119062 0.116677,0.264583 -0.08994,0.145521 -0.216026,0.264583 -0.280198,0.264583 -0.06417,0 -0.116677,-0.119062 -0.116677,-0.264583 z"
       id="path84" /><path
       style="fill:#ca3c68"
       d="m 133.33032,93.778094 c -3.89437,-4.23396 -3.62639,-4.008549 -6.72176,-5.653946 -0.7276,-0.386771 -2.03729,-1.104635 -2.91041,-1.595254 -0.87313,-0.490619 -2.18282,-1.204994 -2.91042,-1.5875 -0.7276,-0.382506 -2.03729,-1.096357 -2.91042,-1.586336 -0.87312,-0.489979 -2.18281,-1.188172 -2.91041,-1.551541 l -1.32292,-0.660672 13.03073,-0.0026 13.03073,-0.0026 v 7.672917 7.672917 h -1.94335 -1.94335 z"
       id="path83" /><path
       style="fill:#fe3232"
       d="m 142.88044,60.764759 v -5.291667 h 12.96458 12.96459 v 5.291667 5.291667 h -12.96459 -12.96458 z"
       id="path82" /><path
       style="fill:#3b7ca9"
       d="m 75.948166,73.870446 c -0.185179,-0.223128 -0.490783,-0.405687 -0.67912,-0.405687 -0.188336,0 -0.382117,-0.09018 -0.430624,-0.200405 -0.14458,-0.328534 -2.258735,-1.916261 -2.551616,-1.916261 -0.148833,0 -0.310293,-0.09018 -0.3588,-0.200406 -0.144581,-0.328534 -2.258736,-1.916261 -2.551617,-1.916261 -0.148833,0 -0.310293,-0.09018 -0.3588,-0.200406 -0.144581,-0.328533 -2.258736,-1.916261 -2.551617,-1.916261 -0.148833,0 -0.310293,-0.09018 -0.3588,-0.200405 -0.144581,-0.328534 -2.258735,-1.916262 -2.551616,-1.916262 -0.148834,0 -0.310294,-0.09018 -0.358801,-0.200405 -0.150569,-0.342141 -2.264716,-1.916261 -2.573665,-1.916261 -0.427633,0 -0.357413,-0.675212 0.110615,-1.06364 0.221797,-0.184076 0.344898,-0.393054 0.273555,-0.464397 -0.07134,-0.07134 0.13414,-0.338354 0.456627,-0.59336 0.322487,-0.255007 1.291551,-1.29219 2.153475,-2.304852 l 1.567134,-1.841203 1.317613,1.612372 c 0.724688,0.886804 1.539839,1.850496 1.811447,2.141538 0.271609,0.291042 0.95666,1.124479 1.522337,1.852083 0.603749,0.776576 1.557722,1.596088 2.30996,1.984375 0.704802,0.363803 1.340989,0.731167 1.41375,0.816365 0.24183,0.28317 3.924431,2.358636 4.185043,2.358636 0.437837,0 0.557046,0.713188 0.284313,1.700946 -0.143763,0.520669 -0.309476,1.273692 -0.36825,1.673383 -0.05877,0.399692 -0.166892,0.964837 -0.240261,1.255879 -0.561878,2.228855 -0.857157,2.602075 -1.472282,1.860895 z"
       id="path81" /><path
       style="fill:#9f6f40"
       d="m 55.832519,92.779343 c -0.238467,-0.154109 -0.271101,-0.258098 -0.08176,-0.260532 0.173313,-0.0022 0.388699,0.115011 0.478636,0.260532 0.203016,0.328487 0.111422,0.328487 -0.396876,0 z"
       id="path80" /><path
       style="fill:#481cea"
       d="m 113.77627,73.332468 v -5.159375 h 12.96459 12.96458 v 5.159375 5.159375 h -12.96458 -12.96459 z"
       id="path79" /><path
       style="fill:#249191"
       d="m 142.72301,104.09028 -0.50403,-0.59531 0.59531,0.50403 c 0.58542,0.49564 0.60521,0.49564 1.19063,0 l 0.59531,-0.50403 -0.50403,0.59531 c -0.27721,0.32742 -0.58618,0.59531 -0.68659,0.59531 -0.10042,0 -0.40939,-0.26789 -0.6866,-0.59531 z"
       id="path78" /><path
       style="fill:#3bcd3b"
       d="m 34.616242,72.754852 c 0.190996,-0.07643 0.419199,-0.06703 0.507118,0.02089 0.08792,0.08792 -0.06835,0.150453 -0.347266,0.138964 -0.308224,-0.0127 -0.370919,-0.07539 -0.159852,-0.159852 z m 1.058333,0 c 0.190996,-0.07643 0.419199,-0.06703 0.507118,0.02089 0.08792,0.08792 -0.06835,0.150453 -0.347266,0.138964 -0.308224,-0.0127 -0.370919,-0.07539 -0.159852,-0.159852 z"
       id="path77" /><path
       style="fill:#9c6b3b"
       d="m 58.478352,97.012676 c 0.155761,-0.291041 0.342733,-0.529166 0.415493,-0.529166 0.07276,0 0.0049,0.238125 -0.150909,0.529166 -0.155761,0.291042 -0.342733,0.529167 -0.415494,0.529167 -0.07276,0 -0.0049,-0.238125 0.15091,-0.529167 z"
       id="path76" /><path
       style="fill:#986532"
       d="m 57.420019,97.878157 c -0.218281,-0.08309 -0.456406,-0.238238 -0.529167,-0.344769 -0.125556,-0.183831 -0.682256,-0.494685 -3.06479,-1.711337 -1.439947,-0.735315 -1.737445,-1.045056 -1.363201,-1.4193 0.16527,-0.165271 0.212509,-0.300492 0.104976,-0.300492 -0.107534,0 0.04313,-0.256156 0.334809,-0.569236 0.291678,-0.31308 0.490135,-0.640501 0.441016,-0.727604 -0.04912,-0.0871 0.108062,-0.360669 0.349292,-0.607925 0.38675,-0.396413 0.515681,-0.405575 1.090645,-0.0775 0.358624,0.20463 1.306888,0.704587 2.107253,1.111015 0.800365,0.406429 1.599905,0.858024 1.776756,1.003545 1.031518,0.84878 1.162345,1.010409 0.938154,1.159044 -0.135946,0.09013 -0.575604,0.72942 -0.977017,1.420644 -0.401413,0.691224 -0.748294,1.247371 -0.770847,1.235882 -0.02255,-0.01149 -0.219598,-0.08887 -0.437879,-0.171964 z"
       id="path75" /><path
       style="fill:#32cb32"
       d="m 37.179393,72.866988 c -1.164167,-0.110493 -2.368941,-0.141909 -2.677276,-0.06981 -0.536839,0.125523 -0.562661,0.02967 -0.608999,-2.260527 -0.02661,-1.315384 -0.111891,-2.557089 -0.189504,-2.759343 -0.113371,-0.295441 0.03236,-0.321952 0.741291,-0.134852 0.485323,0.128086 1.830692,0.305589 2.98971,0.394451 1.159019,0.08886 2.114031,0.185622 2.12225,0.215024 0.0082,0.0294 -0.0471,1.125021 -0.122931,2.434708 l -0.137874,2.38125 z"
       id="path74" /><path
       style="fill:#138989"
       d="m 142.21898,102.30434 c 0.26339,-0.29104 0.53842,-0.52916 0.61118,-0.52916 0.0728,0 -0.0832,0.23812 -0.3466,0.52916 -0.26338,0.29105 -0.53842,0.52917 -0.61118,0.52917 -0.0728,0 0.0832,-0.23812 0.3466,-0.52917 z"
       id="path73" /><path
       style="fill:#fe0808"
       d="m 143.14502,85.767884 v -4.894791 h 12.7 12.7 v 4.894791 4.894792 h -12.7 -12.7 z"
       id="path72" /><path
       style="fill:#296b71"
       d="m 68.664811,53.356426 c 0.263389,-0.291042 0.538421,-0.529167 0.611181,-0.529167 0.07276,0 -0.08321,0.238125 -0.346598,0.529167 -0.263389,0.291041 -0.53842,0.529166 -0.611181,0.529166 -0.07276,0 0.08321,-0.238125 0.346598,-0.529166 z m 11.459766,-6.795324 c 0.190996,-0.07643 0.419199,-0.06703 0.507118,0.02089 0.08792,0.08792 -0.06835,0.150453 -0.347265,0.138964 -0.308225,-0.0127 -0.37092,-0.07539 -0.159853,-0.159852 z"
       id="path71" /><path
       style="fill:#fe0000"
       d="m 142.88044,85.767884 v -5.159375 h 12.96458 12.96459 v 5.159375 5.159375 h -12.96459 -12.96458 z m 25.66458,0 v -4.894791 h -12.7 -12.7 v 4.894791 4.894792 h 12.7 12.7 z"
       id="path70" /><path
       style="fill:#007f7f"
       d="m 142.5276,103.67322 c -0.71595,-0.74729 -0.71608,-0.74812 -0.1818,-1.23163 0.49616,-0.44902 0.53464,-0.80466 0.53464,-4.940754 v -4.45691 h 12.96458 12.96459 v 5.291667 5.291667 h -12.27073 c -10.58454,0 -12.31599,0.0545 -12.60011,0.39688 -0.45062,0.54296 -0.58735,0.50896 -1.41117,-0.35092 z"
       id="path69" /><path
       style="fill:#22666d"
       d="m 72.873006,60.963197 -0.504028,-0.595313 0.595312,0.504028 c 0.559447,0.473662 0.715762,0.686597 0.504028,0.686597 -0.05021,0 -0.318097,-0.267891 -0.595312,-0.595312 z M 70.08627,57.920488 c -0.329107,-0.419644 -0.319749,-0.429002 0.0999,-0.09989 0.440729,0.345644 0.580887,0.562916 0.363126,0.562916 -0.05494,0 -0.263301,-0.208359 -0.463021,-0.463021 z m -2.612084,-3.108854 c 0,-0.218281 0.115326,-0.396875 0.256279,-0.396875 0.140954,0 0.187747,0.178594 0.103985,0.396875 -0.08376,0.218281 -0.199089,0.396875 -0.25628,0.396875 -0.05719,0 -0.103984,-0.178594 -0.103984,-0.396875 z m 2.265969,-2.591098 c 0.09936,-0.260938 0.247304,-0.407782 0.328766,-0.32632 0.08146,0.08146 1.68e-4,0.294956 -0.180653,0.474432 -0.261307,0.259362 -0.291698,0.228971 -0.148113,-0.148112 z m 2.231948,-3.466011 c 0,-0.05719 0.184777,-0.17489 0.410617,-0.261553 0.235459,-0.09035 0.341662,-0.046 0.248968,0.103984 -0.155379,0.251408 -0.659585,0.371858 -0.659585,0.157569 z"
       id="path68" /><path
       style="fill:#1c6269"
       d="m 81.505206,53.224134 c 0,-0.145521 0.115416,-0.443177 0.256481,-0.661458 0.141064,-0.218282 0.25648,-0.277813 0.25648,-0.132292 0,0.145521 -0.115416,0.443177 -0.25648,0.661458 -0.141065,0.218282 -0.256481,0.277813 -0.256481,0.132292 z m 0.277369,-6.636632 c 0.0127,-0.308225 0.07539,-0.370919 0.159852,-0.159852 0.07643,0.190996 0.06703,0.419199 -0.02089,0.507118 -0.08792,0.08792 -0.150453,-0.06835 -0.138964,-0.347266 z"
       id="path67" /><path
       style="fill:#196067"
       d="m 77.660645,64.204342 c -0.582084,-0.424644 -1.207162,-0.776956 -1.389063,-0.782915 -0.181901,-0.006 -0.330729,-0.129897 -0.330729,-0.275418 0,-0.145521 -0.117701,-0.264583 -0.261559,-0.264583 -0.425742,0 -1.314971,-0.775727 -3.926341,-3.425179 -2.882963,-2.925004 -4.055912,-4.34682 -3.954623,-4.793679 0.04,-0.176478 0.578747,-0.795845 1.19721,-1.37637 0.618464,-0.580525 1.124479,-1.176039 1.124479,-1.323364 0,-0.147325 0.20836,-0.420219 0.463021,-0.606432 0.254662,-0.186213 0.468012,-0.437464 0.474111,-0.558335 0.03541,-0.70161 1.029869,-1.934549 1.895484,-2.350029 1.40458,-0.674173 8.472451,-2.129695 8.79363,-1.810916 0.219458,0.21782 0.442258,5.6621 0.231689,5.661492 -0.217086,-6.27e-4 -0.44927,0.686542 -0.638652,1.890145 -0.141448,0.898961 -0.305904,1.777593 -0.512769,2.739542 -0.06259,0.291041 -0.412128,1.957916 -0.776757,3.704166 -0.894588,4.284294 -0.916237,4.367181 -1.137401,4.354791 -0.106368,-0.006 -0.669647,-0.358271 -1.25173,-0.782916 z"
       id="path66" /><path
       style="fill:#17256a"
       d="m 34.951323,89.450002 c 0.0127,-0.308224 0.07539,-0.370919 0.159852,-0.159852 0.07643,0.190996 0.06703,0.419199 -0.02089,0.507118 -0.08792,0.08792 -0.150453,-0.06835 -0.138964,-0.347266 z"
       id="path65" /><path
       style="fill:#105e1f"
       d="m 33.363822,63.520836 c 0.0127,-0.308225 0.07539,-0.37092 0.159853,-0.159853 0.07643,0.190996 0.06703,0.419199 -0.02089,0.507118 -0.08792,0.08792 -0.150453,-0.06835 -0.138965,-0.347265 z m -0.529166,-5.027084 c 0.0127,-0.308224 0.07539,-0.370919 0.159852,-0.159852 0.07643,0.190996 0.06703,0.419199 -0.02089,0.507118 -0.08792,0.08792 -0.150453,-0.06835 -0.138964,-0.347266 z"
       id="path64" /><path
       style="fill:#081964"
       d="m 34.951323,88.656252 c 0.0127,-0.308224 0.07539,-0.370919 0.159852,-0.159852 0.07643,0.190996 0.06703,0.419199 -0.02089,0.507118 -0.08792,0.08792 -0.150453,-0.06835 -0.138964,-0.347266 z"
       id="path63" /><path
       style="fill:#0b5b1a"
       d="m 32.780019,38.341321 c -0.329108,-0.419644 -0.319749,-0.429002 0.09989,-0.0999 0.44073,0.345644 0.580888,0.562916 0.363126,0.562916 -0.05494,0 -0.263301,-0.208359 -0.46302,-0.463021 z"
       id="path62" /><path
       style="fill:#065816"
       d="m 36.90393,47.517989 c -0.09592,-0.155202 -0.117656,-0.338931 -0.0483,-0.408286 0.06936,-0.06936 0.196603,0.05763 0.282774,0.282187 0.178907,0.466224 0.02642,0.548232 -0.234474,0.126099 z m -0.79375,-1.852083 c -0.09592,-0.155203 -0.117656,-0.338931 -0.0483,-0.408286 0.06936,-0.06936 0.196603,0.05763 0.282774,0.282186 0.178907,0.466225 0.02642,0.548232 -0.234474,0.1261 z"
       id="path61" /><path
       style="fill:#00530f"
       d="M 38.50231,66.175949 C 37.629184,65.980468 36.438559,65.75445 35.856476,65.673687 33.624199,65.363964 33.755044,65.471223 33.5499,63.782903 33.44545,62.923289 33.295451,61.446061 33.216568,60.500176 33.137686,59.55429 32.992431,58.304134 32.89378,57.722051 c -0.09865,-0.582084 -0.160896,-1.135977 -0.138322,-1.230874 0.02257,-0.0949 -0.07805,-1.166459 -0.223606,-2.38125 -0.145557,-1.21479 -0.317887,-2.863553 -0.382954,-3.663918 -0.06507,-0.800365 -0.200604,-1.99099 -0.301192,-2.645833 -0.100587,-0.654844 -0.157858,-1.293842 -0.127269,-1.419995 0.179813,-0.74155 -1.227808,-3.423581 -1.84105,-3.50787 -0.132341,-0.01819 -0.270385,-0.05707 -0.306765,-0.08639 -0.03638,-0.02933 -0.24474,-0.09754 -0.463021,-0.1516 -0.218282,-0.05405 -1.014779,-0.270401 -1.769994,-0.480769 -0.755216,-0.210367 -1.439825,-0.315781 -1.521355,-0.234251 -0.08153,0.08153 -0.148235,0.04914 -0.148235,-0.07198 0,-0.246547 4.006873,-4.095712 4.267083,-4.099132 0.09132,-0.0012 0.31426,-0.180777 0.495417,-0.399058 0.181158,-0.218281 0.479265,-0.396875 0.662461,-0.396875 0.625236,0 2.830133,2.625824 2.777123,3.307292 -0.0059,0.07581 0.193553,0.523541 0.443222,0.994959 0.24967,0.471418 0.47632,0.983112 0.503668,1.137098 0.120642,0.679306 2.839353,6.731484 3.023862,6.731484 0.112869,0 0.279923,0.297657 0.371231,0.661459 0.09131,0.363802 0.28281,0.661458 0.425558,0.661458 0.142748,0 0.259543,0.170089 0.259543,0.377976 0,0.207887 0.187098,0.565075 0.415773,0.79375 0.228676,0.228676 0.346245,0.415774 0.261265,0.415774 -0.329416,0 1.339865,2.344681 3.067436,4.308539 0.996477,1.132769 1.811776,1.981393 1.811776,1.885832 0,-0.09556 0.148828,-0.05652 0.330729,0.08675 0.181901,0.143273 0.6529,0.337396 1.046664,0.431383 0.393765,0.09399 1.022672,0.287508 1.397571,0.430044 0.656035,0.249424 0.666807,0.287834 0.286805,1.022677 -0.217157,0.419935 -0.320205,0.838145 -0.228995,0.929355 0.09121,0.09121 0.03984,0.165837 -0.114161,0.165837 -0.153998,0 -0.347534,0.26909 -0.43008,0.597978 -0.08255,0.328888 -0.512172,0.81187 -0.954725,1.073292 -0.442553,0.261422 -0.804641,0.587645 -0.804641,0.724938 0,0.137294 -0.132197,0.249625 -0.29377,0.249625 -0.161573,0 -1.11225,0.595313 -2.112615,1.322917 -1.000365,0.727604 -1.969497,1.310716 -2.153626,1.295805 -0.18413,-0.01491 -1.049156,-0.187051 -1.922281,-0.382532 z"
       id="path60" /></g></svg>
