<?xml version="1.0" encoding="UTF-8" standalone="no"?>
<!-- Created with Inkscape (http://www.inkscape.org/) -->

<svg
   width="210mm"
   height="297mm"
   viewBox="0 0 210 297"
   version="1.1"
   id="svg1"
   xml:space="preserve"
   inkscape:version="1.4 (86a8ad7, 2024-10-11)"
   sodipodi:docname="GRUPO3.svg"
   xmlns:inkscape="http://www.inkscape.org/namespaces/inkscape"
   xmlns:sodipodi="http://sodipodi.sourceforge.net/DTD/sodipodi-0.dtd"
   xmlns="http://www.w3.org/2000/svg"
   xmlns:svg="http://www.w3.org/2000/svg"><sodipodi:namedview
     id="namedview1"
     pagecolor="#ffffff"
     bordercolor="#000000"
     borderopacity="0.25"
     inkscape:showpageshadow="2"
     inkscape:pageopacity="0.0"
     inkscape:pagecheckerboard="0"
     inkscape:deskcolor="#d1d1d1"
     inkscape:document-units="mm"
     inkscape:zoom="0.24632085"
     inkscape:cx="-278.09258"
     inkscape:cy="452.66164"
     inkscape:window-width="1366"
     inkscape:window-height="715"
     inkscape:window-x="-8"
     inkscape:window-y="-8"
     inkscape:window-maximized="1"
     inkscape:current-layer="layer1" /><defs
     id="defs1" /><g
     inkscape:label="Capa 1"
     inkscape:groupmode="layer"
     id="layer1"><g
       id="g1"
       transform="matrix(0.91223694,0,0,0.8736374,15.766147,38.57171)"><path
         style="fill:#fdfdfd"
         d="M -16.181177,92.734586 V 7.7299252 H 93.970747 204.12267 V 92.734586 177.73925 H 93.970747 -16.181177 Z m 37.575258,73.027704 c 5.49612,-7.57573 5.627145,-7.80375 6.273244,-10.91706 0.71955,-3.46725 2.981745,-10.36202 6.1086,-18.61794 1.099738,-2.90367 1.959966,-5.3055 1.91162,-5.33741 -0.04835,-0.0319 -5.595499,0.55196 -12.327006,1.2975 l -12.239103,1.35551 -6.9763397,3.54978 -6.9763401,3.54979 0.4291729,2.75576 c 0.2991802,1.92106 1.3746484,4.93881 3.5506758,9.96314 l 3.1215029,7.20738 5.4494163,6.46544 c 2.9971789,3.55599 5.5870669,6.46544 5.7553059,6.46544 0.168239,0 2.831902,-3.4818 5.919251,-7.73733 z m 33.702086,-0.57048 c 4.483337,-3.27365 11.756664,-6.00198 18.632987,-6.98951 l 3.483437,-0.50026 v -4.39615 -4.39615 h -3.889607 c -3.733666,0 -3.96148,-0.0536 -5.68228,-1.33679 -0.985969,-0.73524 -1.909837,-1.69338 -2.05304,-2.12919 -0.143204,-0.43582 0.03147,-3.96207 0.388157,-7.83613 l 0.648527,-7.04373 -4.026426,-4.28255 c -2.214534,-2.3554 -5.203447,-5.55318 -6.642029,-7.10617 l -2.615604,-2.82362 -3.168722,3.24221 c -7.717137,7.89613 -10.865715,14.54066 -15.343238,32.37923 -1.622724,6.46498 -2.875611,11.82916 -2.784193,11.9204 0.09142,0.0912 4.0639,1.87024 8.827735,3.95333 l 8.661519,3.78744 1.506351,-2.29017 c 0.922118,-1.40193 2.495388,-3.01234 4.056426,-4.15219 z M 76.4038,139.47656 c -0.355922,-4.02236 -0.658478,-7.55185 -0.672345,-7.84333 -0.01847,-0.38808 -1.071141,-0.52995 -3.932313,-0.52995 h -3.907098 l -0.235368,1.32488 c -0.327473,1.84336 -0.284843,11.9267 0.05284,12.49829 0.736254,1.24626 2.613413,1.82991 5.938807,1.8465 l 3.402607,0.017 z M 4.1920019,133.07149 c 6.6105131,-3.38257 7.1696851,-3.59098 10.3480701,-3.85689 1.84797,-0.15461 3.790971,-0.37175 4.31778,-0.48255 l 0.957836,-0.20146 -0.465204,-4.96711 c -0.700148,-7.47568 -0.779585,-6.98281 1.367632,-8.48551 2.205172,-1.54326 3.392231,-3.51459 3.394191,-5.63667 0.0018,-2.00004 -1.786961,-11.826645 -3.891978,-21.380102 C 19.29432,83.858575 18.422693,79.564352 18.28338,78.518479 L 18.030085,76.616891 9.7235254,77.136852 C 5.1549179,77.42283 1.3553063,77.72623 1.279944,77.811073 c -0.075362,0.08484 0.7947936,7.470041 1.9336798,16.411552 2.3505997,18.454805 2.420669,19.498155 1.3094529,19.498155 -0.4323496,0 -0.9158675,-0.41214 -1.1191186,-0.95392 C 3.2071299,112.24221 2.0847892,104.37239 0.90986764,95.278365 -0.2650539,86.184352 -1.2859686,78.665047 -1.3588318,78.5688 c -0.072863,-0.09625 -2.3785454,0.26033 -5.1237384,0.792394 l -4.9912598,0.967388 0.03896,14.682273 c 0.04473,16.853945 0.196525,19.292735 1.7027906,27.356815 0.957495,5.12613 1.3740497,6.46549 3.2078442,10.31433 1.8368986,3.85535 2.2114894,4.39381 2.9177834,4.19424 0.4456787,-0.12593 3.9549816,-1.83807 7.7984507,-3.80475 z M 113.36502,124.91136 v -9.15966 l -8.24694,0.30898 c -10.936871,0.40976 -10.840427,0.43822 -16.090942,-4.74816 -2.251973,-2.22446 -4.457531,-4.419 -4.901238,-4.87674 l -0.806741,-0.83227 -1.967865,4.09745 -1.967865,4.09745 0.273238,7.38377 c 0.17583,4.7515 0.426578,7.49598 0.703373,7.69852 0.484871,0.3548 29.4035,5.05846 31.59277,5.13862 l 1.41221,0.0517 z m 44.81394,-0.16753 v -9.3272 h -20.71233 -20.71232 v 9.3272 9.32719 h 20.71232 20.71233 z m 44.81395,0 v -9.3272 h -20.71233 -20.71233 v 9.3272 9.32719 h 20.71233 20.71233 z m -164.607639,-0.0339 c 1.507474,-4.02721 2.929763,-6.15214 8.306315,-12.40982 2.634379,-3.0661 5.700556,-7.101 6.813726,-8.96644 4.00204,-6.706585 9.293741,-22.389151 10.26428,-30.419383 0.274777,-2.273503 0.460979,-4.133643 0.413783,-4.133643 -0.0472,0 -3.165667,-0.476959 -6.929936,-1.059908 -3.764269,-0.58295 -7.329569,-1.059909 -7.922889,-1.059909 -0.934717,0 -10.448976,3.159268 -10.840005,3.59949 -0.07872,0.08862 -0.186841,4.000578 -0.240279,8.693246 -0.09065,7.960661 -0.3681,10.132554 -1.177912,9.220866 -0.128968,-0.145182 -0.258891,-3.375784 -0.288718,-7.179104 -0.07706,-9.826279 -0.557784,-10.588723 -6.852158,-10.867775 l -3.408638,-0.151116 -2.334326,2.809328 c -1.283879,1.545131 -2.334326,3.064538 -2.334326,3.37646 0,0.311921 0.24982,1.364271 0.555155,2.338554 0.305336,0.974284 0.990444,4.289286 1.522463,7.366672 0.532019,3.077387 1.540443,7.980137 2.240942,10.895007 2.140408,8.906505 2.251581,11.647815 0.717164,17.683875 -0.622229,2.44772 -2.04173,4.11303 -3.896939,4.57176 -1.290929,0.31921 -1.308809,0.44562 -0.899762,6.36168 l 0.234509,3.39171 7.506663,-0.63594 7.506663,-0.63595 z m 37.507697,-4.32168 -0.272146,-8.17123 2.27326,-4.22699 c 1.250293,-2.32484 2.243933,-4.24649 2.208089,-4.27032 -0.03585,-0.0238 -2.378047,-1.86706 -5.204895,-4.096055 l -5.139723,-4.05271 -4.178831,-0.53717 c -2.298357,-0.29545 -4.232998,-0.45667 -4.299201,-0.35828 -0.0662,0.0984 -1.479438,3.62545 -3.14052,7.837905 l -3.020151,7.65901 3.420968,4.6737 c 1.881533,2.57053 4.906597,6.70762 6.722366,9.19354 l 3.301398,4.51984 h 3.800766 3.800767 z m 82.285992,-17.26656 v -9.327195 h -20.71233 -20.71232 v 9.327195 9.3272 h 20.71232 20.71233 z m -44.90075,-0.31797 -0.10149,-9.221205 -5.64881,-3.26614 c -3.10685,-1.796376 -5.77553,-3.227252 -5.9304,-3.179725 -0.15487,0.04753 -0.92103,1.324666 -1.702579,2.838088 -1.50091,2.906419 -2.481574,3.633817 -2.836873,2.10423 -0.141961,-0.611153 0.27929,-1.810597 1.286602,-3.663389 1.023372,-1.882333 1.38153,-2.910155 1.130941,-3.245513 -0.733993,-0.982288 -3.790882,-2.590473 -4.131309,-2.173422 -0.184405,0.225911 -2.803754,4.839273 -5.820775,10.251911 l -5.485493,9.841175 6.096125,4.43995 6.096125,4.43996 8.574716,0.0276 8.57471,0.0276 z m 89.33811,0.31797 v -8.903235 h -20.33574 -20.33574 v 8.903235 8.90324 h 20.33574 20.33574 z M 92.711678,81.715148 c -0.01707,-0.153705 -3.046757,-1.951941 -6.732635,-3.996079 l -6.701594,-3.716616 -1.585412,4.702469 c -0.871977,2.586358 -2.414936,7.10945 -3.428798,10.051315 l -1.843386,5.348848 4.529759,2.98364 4.52976,2.983645 5.631673,-9.038883 c 3.09742,-4.971381 5.617705,-9.164634 5.600633,-9.318339 z m -25.809766,3.397249 c -0.84174,-4.775153 -1.638739,-8.543128 -1.771109,-8.373277 -0.272219,0.349299 -3.358311,14.187432 -3.358311,15.058772 0,0.376447 1.098139,0.786387 3.295144,1.230093 1.812328,0.36602 3.310796,0.68822 3.329927,0.716 0.01913,0.0278 -0.653912,-3.856434 -1.495651,-8.631588 z M 77.132628,72.330692 c -0.05958,-0.292923 -2.226637,-2.236675 -4.815678,-4.31945 l -4.707347,-3.786863 -0.103566,6.751092 c -0.09293,6.057835 0.01528,7.45636 1.053824,13.619158 0.636565,3.777437 1.256291,7.240752 1.37717,7.696255 0.236465,0.891061 7.396762,-18.971207 7.195597,-19.960192 z m 36.232392,9.567807 v -8.878211 l -3.67174,-0.006 c -3.18111,-0.0052 -4.1439,0.17895 -7.20538,1.377882 -3.317988,1.299384 -3.609959,1.511082 -4.783959,3.468689 l -1.250307,2.084847 7.420076,5.055687 c 4.08104,2.780627 7.759,5.302988 8.17325,5.605246 0.41424,0.302258 0.88027,0.464166 1.03561,0.359795 0.15535,-0.10437 0.28245,-4.184959 0.28245,-9.067974 z m 44.81394,-0.822906 v -9.327195 h -20.71233 -20.71232 v 9.327195 9.327195 h 20.71232 20.71233 z M 96.433308,72.808306 c -0.367351,-0.699539 -1.618196,-3.286212 -2.779657,-5.748161 l -2.111746,-4.476271 -6.882216,2.613905 c -3.785219,1.437647 -6.882216,2.744202 -6.882216,2.903455 0,0.159253 3.558754,2.546447 7.908343,5.304874 l 7.908343,5.015323 1.75353,-2.170617 1.75353,-2.170617 z m 8.270192,-2.119817 c 3.01695,-1.143825 4.52773,-1.483871 6.59264,-1.483871 h 2.67878 l 0.54237,-8.192912 0.54237,-8.192912 -3.38929,0.686724 c -2.32247,0.47057 -4.63391,1.335143 -7.34346,2.746754 -2.1748,1.133017 -4.995693,2.595865 -6.268666,3.250775 l -2.314495,1.190746 2.10303,5.739284 c 1.156666,3.156606 2.291991,5.739284 2.522941,5.739284 0.23095,0 2.18115,-0.667742 4.33378,-1.483872 z m 55.00678,-8.79724 0.9165,-6.889405 -10.54446,-5.117475 -10.54445,-5.117474 -1.88294,1.757815 c -3.86852,3.611452 -3.86415,3.60955 -9.88827,4.302045 -3.05351,0.351013 -6.48389,0.865492 -7.62306,1.143288 l -2.07124,0.505082 -0.43997,5.926957 c -0.24198,3.259826 -0.45381,6.92857 -0.47073,8.152764 l -0.0308,2.225808 h 20.83145 20.83144 z M 38.55934,67.296895 c 0.474081,-0.349708 2.107714,-1.112842 3.630295,-1.695854 4.256463,-1.629843 12.129317,-1.487889 21.857979,0.394117 0.896833,0.173492 0.94731,0.09109 0.802082,-1.309394 -0.107839,-1.039928 0.07502,-1.844764 0.601143,-2.645911 L 66.206964,60.88848 64.893582,59.875321 C 63.361732,58.693633 61.98657,55.539715 61.590853,52.300552 61.444823,51.105215 61.12939,49.983911 60.88989,49.808766 60.65039,49.63362 56.435805,48.815337 51.524146,47.990358 l -8.930289,-1.499962 -2.089672,3.463346 -2.089673,3.463346 -5.644047,2.222579 -5.644048,2.222578 v 4.801104 4.801103 l 1.977086,0.155712 c 5.28607,0.416322 8.607128,0.302784 9.455837,-0.323269 z m 44.584509,-5.80309 c 3.779999,-1.451695 6.875933,-2.838519 6.879852,-3.081831 0.0039,-0.243313 -3.248874,-10.393691 -7.228429,-22.556398 l -7.235553,-22.114011 -4.38965,2.477288 c -3.484674,1.966567 -4.474436,2.72351 -4.80091,3.671603 -0.451669,1.311668 -3.479631,27.380806 -3.471787,29.890236 0.0074,2.359573 0.549409,3.545142 3.095149,6.769905 1.65699,2.098957 3.30925,3.607038 5.737958,5.237254 1.875984,1.259212 3.665076,2.30206 3.975761,2.317438 0.310685,0.01538 3.657609,-1.159789 7.437609,-2.611484 z m 20.147441,-8.072707 c 2.01945,-0.943915 3.67566,-1.928312 3.68047,-2.187549 0.005,-0.259237 -1.9763,-7.555644 -4.40245,-16.21424 l -4.411185,-15.7429 -4.469249,-1.427617 -4.469249,-1.427618 -2.117082,-4.098667 -2.117081,-4.0986668 -1.909351,1.262537 c -1.050142,0.6943958 -2.290645,1.4724138 -2.756673,1.7289298 -0.466027,0.256516 -0.851828,0.674249 -0.857335,0.928295 -0.0055,0.254046 3.163828,10.692781 7.042967,23.197188 l 7.052979,22.735286 3.030756,-1.469384 c 1.666916,-0.808161 4.683033,-2.241678 6.702483,-3.185594 z m 18.81897,-5.699135 10.06329,-1.148956 1.89352,-2.158541 1.89352,-2.158541 -15.87011,-10.066306 c -8.72857,-5.536467 -15.91281,-10.013801 -15.96499,-9.949631 -0.0522,0.06417 1.27645,6.078659 2.9525,13.36553 2.99305,13.012742 3.06448,13.249004 4.00816,13.257129 0.52845,0.0045 5.48929,-0.508758 11.02411,-1.140684 z"
         id="path93" /><path
         style="fill:#faf9f4"
         d="m 22.607364,74.58348 c 0,-0.07296 0.55076,-0.693011 1.22391,-1.377881 l 1.22391,-1.245219 -1.106072,1.377881 c -1.031015,1.284378 -1.341748,1.572756 -1.341748,1.245219 z"
         id="path92" /><path
         style="fill:#f5f6f8"
         d="m 72.599391,149.02328 c 0.880274,-0.0893 2.320722,-0.0893 3.200996,0 0.880274,0.0893 0.16005,0.16229 -1.600498,0.16229 -1.760548,0 -2.480772,-0.073 -1.600498,-0.16229 z m -6.908507,-19.29788 -0.717395,-0.95392 0.847322,0.80765 c 0.796274,0.75898 1.018761,1.10019 0.717395,1.10019 -0.07146,0 -0.452755,-0.42927 -0.847322,-0.95392 z m -6.77858,-7.20738 -0.717395,-0.95392 0.847322,0.80765 c 0.796274,0.75898 1.018761,1.10019 0.717395,1.10019 -0.07146,0 -0.452755,-0.42927 -0.847322,-0.95392 z"
         id="path91" /><path
         style="fill:#f3f3f3"
         d="m 50.390667,64.230044 c 0.885748,-0.08956 2.241464,-0.0883 3.012702,0.0028 0.771237,0.0911 0.04653,0.164377 -1.610453,0.162837 -1.656986,-0.0015 -2.287998,-0.07608 -1.402249,-0.165637 z"
         id="path90" /><path
         style="fill:#eaf7f5"
         d="m 75.79361,122.62401 c 0,-0.81613 0.0775,-1.15 0.172222,-0.74194 0.09472,0.40807 0.09472,1.07581 0,1.48388 -0.09472,0.40806 -0.172222,0.0742 -0.172222,-0.74194 z m 37.25428,-33.493113 c 0,-0.582949 0.0855,-0.821429 0.18994,-0.529954 0.10447,0.291475 0.10447,0.768434 0,1.059909 -0.10447,0.291474 -0.18994,0.05299 -0.18994,-0.529955 z"
         id="path89" /><path
         style="fill:#f6f5ea"
         d="m 25.620066,71.164365 c 0,-0.08804 0.296563,-0.42191 0.659029,-0.741936 0.597289,-0.527356 0.610609,-0.51236 0.142182,0.16007 -0.491962,0.706216 -0.801211,0.930802 -0.801211,0.581866 z"
         id="path88" /><path
         style="fill:#eaedf1"
         d="m 76.865734,149.93432 c 0.01807,-0.49389 0.107305,-0.59435 0.227522,-0.25614 0.108785,0.30604 0.09541,0.67171 -0.02973,0.81259 -0.125137,0.14088 -0.214143,-0.10952 -0.197792,-0.55645 z M 61.17183,125.0618 l -0.717395,-0.95392 0.847323,0.80765 c 0.796274,0.75898 1.01876,1.10019 0.717395,1.10019 -0.07146,0 -0.452755,-0.42926 -0.847323,-0.95392 z m -13.897967,-2.43779 c 0.374888,-0.46636 0.766347,-0.84793 0.869909,-0.84793 0.103561,0 -0.118433,0.38157 -0.493321,0.84793 -0.374888,0.46636 -0.766347,0.84793 -0.869908,0.84793 -0.103562,0 0.118432,-0.38157 0.49332,-0.84793 z m 7.314959,-4.55761 -0.912967,-1.1659 1.035617,1.02783 c 0.967939,0.96065 1.208315,1.30397 0.912967,1.30397 -0.06746,0 -0.533485,-0.52465 -1.035617,-1.1659 z"
         id="path87" /><path
         style="fill:#ebf2e9"
         d="m 5.3437871,112.44889 c 0,-0.58295 0.085476,-0.82143 0.1899456,-0.52995 0.10447,0.29147 0.10447,0.76843 0,1.0599 -0.1044701,0.29148 -0.1899456,0.053 -0.1899456,-0.52995 z M -11.632393,99.482675 c 0.01807,-0.4939 0.107305,-0.59436 0.227522,-0.25615 0.108785,0.30605 0.09541,0.67172 -0.02973,0.812605 -0.125137,0.14088 -0.214143,-0.109535 -0.197792,-0.556455 z"
         id="path86" /><path
         style="fill:#d7fde9"
         d="m 75.808809,125.59175 c 0,-1.0493 0.07344,-1.47857 0.163202,-0.95391 0.08976,0.52465 0.08976,1.38318 0,1.90783 -0.08976,0.52466 -0.163202,0.0954 -0.163202,-0.95392 z"
         id="path85" /><path
         style="fill:#e5e8e7"
         d="m 62.477632,126.54567 c -0.468426,-0.67243 -0.455106,-0.68742 0.142183,-0.16007 0.362466,0.32003 0.659029,0.6539 0.659029,0.74194 0,0.34894 -0.309249,0.12435 -0.801212,-0.58187 z"
         id="path84" /><path
         style="fill:#c9fee4"
         d="m 75.735971,127.88822 c 0.01807,-0.49389 0.107305,-0.59435 0.227522,-0.25614 0.108785,0.30605 0.09541,0.67172 -0.02973,0.8126 -0.125137,0.14087 -0.214143,-0.10953 -0.197792,-0.55646 z"
         id="path83" /><path
         style="fill:#dce2e8"
         d="m 76.930973,152.93739 c 0.0042,-0.93272 0.0813,-1.26436 0.171376,-0.73699 0.09008,0.52737 0.08666,1.29051 -0.0076,1.69585 -0.09426,0.40535 -0.167956,-0.0261 -0.163776,-0.95886 z m -13.123028,-24.90785 -0.717395,-0.95391 0.847322,0.80764 c 0.796274,0.75899 1.018761,1.10019 0.717395,1.10019 -0.07146,0 -0.452755,-0.42926 -0.847322,-0.95392 z m -6.77858,-7.20737 -0.717395,-0.95392 0.847322,0.80764 c 0.796274,0.75899 1.018761,1.10019 0.717395,1.10019 -0.07146,0 -0.452755,-0.42926 -0.847322,-0.95391 z"
         id="path82" /><path
         style="fill:#d8dde6"
         d="m 76.865734,155.02188 c 0.01807,-0.49389 0.107305,-0.59435 0.227522,-0.25614 0.108785,0.30604 0.09541,0.67171 -0.02973,0.81259 -0.125137,0.14088 -0.214143,-0.10952 -0.197792,-0.55645 z m -4.632976,-5.57519 c 0.885748,-0.0896 2.241464,-0.0883 3.012702,0.003 0.771237,0.0911 0.04653,0.16438 -1.610453,0.16284 -1.656986,-0.002 -2.287998,-0.0761 -1.402249,-0.16564 z M 40.683577,133.90865 c 0,-0.45499 1.120492,-2.80537 1.337399,-2.80537 0.103562,0 -0.09181,0.62005 -0.434152,1.37788 -0.699035,1.54742 -0.903247,1.87016 -0.903247,1.42749 z"
         id="path81" /><path
         style="fill:#b0effa"
         d="m 113.0834,85.951172 c 0.004,-0.93272 0.0813,-1.264366 0.17137,-0.736993 0.0901,0.527373 0.0867,1.290507 -0.008,1.695854 -0.0943,0.405346 -0.16795,-0.02614 -0.16377,-0.958861 z"
         id="path80" /><path
         style="fill:#d6dce5"
         d="m 49.345096,170.79577 c 0,-0.088 0.296563,-0.42191 0.659029,-0.74194 0.597289,-0.52735 0.610609,-0.51236 0.142182,0.16007 -0.491963,0.70622 -0.801211,0.93081 -0.801211,0.58187 z m 2.636114,-3.82685 c 0,-0.11659 0.762591,-0.80266 1.694645,-1.52461 0.932055,-0.72194 1.694645,-1.21723 1.694645,-1.10064 0,0.11659 -0.76259,0.80266 -1.694645,1.52461 -0.932054,0.72194 -1.694645,1.21723 -1.694645,1.10064 z m -19.176246,-6.01155 c 0.01807,-0.49389 0.107305,-0.59436 0.227522,-0.25615 0.108785,0.30605 0.09541,0.67172 -0.02973,0.8126 -0.125137,0.14088 -0.214143,-0.10952 -0.197792,-0.55645 z m 28.214353,0.24731 c 0.310685,-0.22604 0.734346,-0.41098 0.941469,-0.41098 0.207124,0 0.122391,0.18494 -0.188294,0.41098 -0.310684,0.22604 -0.734346,0.41098 -0.941469,0.41098 -0.207123,0 -0.122391,-0.18494 0.188294,-0.41098 z m 5.201619,-1.98547 c 0.271849,-0.12247 0.596656,-0.10741 0.721793,0.0335 0.125137,0.14088 -0.09728,0.24108 -0.494272,0.22268 -0.438703,-0.0204 -0.527938,-0.12081 -0.227521,-0.25615 z m 5.067565,-1.27608 c 0.366408,-0.10749 0.874801,-0.10042 1.129763,0.0157 0.254962,0.11614 -0.04483,0.20409 -0.666195,0.19545 -0.62137,-0.009 -0.829976,-0.10366 -0.463568,-0.21116 z m 2.817241,-0.41094 c 0.258904,-0.11761 0.682565,-0.11761 0.94147,0 0.258904,0.11761 0.04707,0.21384 -0.470735,0.21384 -0.517808,0 -0.729639,-0.0962 -0.470735,-0.21384 z m 2.789723,-0.99111 c 0,-0.58295 0.08547,-0.82143 0.189945,-0.52995 0.10447,0.29147 0.10447,0.76843 0,1.05991 -0.10447,0.29147 -0.189945,0.053 -0.189945,-0.52996 z m -9.898779,-8.79724 c -0.468427,-0.67243 -0.455107,-0.68742 0.142182,-0.16007 0.362466,0.32003 0.659029,0.6539 0.659029,0.74194 0,0.34893 -0.309249,0.12435 -0.801211,-0.58187 z m -1.506352,-1.27189 c -0.468426,-0.67243 -0.455106,-0.68742 0.142183,-0.16007 0.627301,0.55386 0.826791,0.90201 0.516846,0.90201 -0.0782,0 -0.374763,-0.33387 -0.659029,-0.74194 z m -0.61777,-2.22581 c 0,-0.81613 0.0775,-1.15 0.172222,-0.74193 0.09472,0.40806 0.09472,1.07581 0,1.48387 -0.09472,0.40806 -0.172222,0.0742 -0.172222,-0.74194 z m 0.318949,-3.63901 c 0.01807,-0.4939 0.107305,-0.59436 0.227522,-0.25615 0.108785,0.30605 0.09541,0.67172 -0.02973,0.8126 -0.125137,0.14088 -0.214143,-0.10953 -0.197792,-0.55645 z m -26.014287,-2.99271 c 0,-0.22747 0.263545,-0.78393 0.585657,-1.23656 0.552219,-0.77598 0.560057,-0.76245 0.137283,0.23694 -0.548994,1.29777 -0.72294,1.53829 -0.72294,0.99962 z m 26.390875,-2.09486 c 0.01807,-0.49389 0.107305,-0.59435 0.227522,-0.25614 0.108785,0.30605 0.09541,0.67172 -0.02973,0.8126 -0.125137,0.14088 -0.214143,-0.10953 -0.197792,-0.55646 z m -0.07777,-5.58218 c -0.468426,-0.67243 -0.455106,-0.68743 0.142183,-0.16007 0.627301,0.55385 0.826791,0.90201 0.516846,0.90201 -0.0782,0 -0.374763,-0.33388 -0.659029,-0.74194 z m -21.581549,-1.92612 c 0.141421,-0.41812 0.351994,-0.65342 0.46794,-0.52289 0.115947,0.13053 2.39e-4,0.47263 -0.257128,0.76022 -0.371924,0.4156 -0.41518,0.3669 -0.210812,-0.23733 z m 17.850843,-1.88955 -2.058368,-2.43779 2.165379,2.31732 c 1.190959,1.27452 2.16538,2.37152 2.16538,2.43778 0,0.31469 -0.360101,-0.0525 -2.272391,-2.31731 z m -16.18041,-0.69002 c 0,-0.088 0.296563,-0.42191 0.659029,-0.74194 0.597289,-0.52736 0.610609,-0.51236 0.142182,0.16007 -0.491962,0.70621 -0.801211,0.9308 -0.801211,0.58187 z m 2.22608,-2.95036 c 0.550539,-0.7716 2.669561,-2.5885 2.669561,-2.28894 0,0.0934 -0.720224,0.81426 -1.600498,1.60183 -0.880274,0.78757 -1.361352,1.09677 -1.069063,0.68711 z m 8.470891,-2.08313 -0.717395,-0.95391 0.847323,0.80764 c 0.796274,0.75899 1.01876,1.10019 0.717395,1.10019 -0.07146,0 -0.452756,-0.42926 -0.847323,-0.95392 z m -2.034923,-2.22517 c -0.850493,-1.0192 -0.913531,-1.03123 -1.666143,-0.31797 l -0.782207,0.7413 0.724442,-0.96269 0.724442,-0.96268 1.06435,1.148 c 0.585393,0.63139 1.06435,1.20769 1.06435,1.28065 0,0.31339 -0.299727,0.0674 -1.129234,-0.92661 z"
         id="path79" /><path
         style="fill:#d5dbe4"
         d="m 47.926396,170.30348 c -0.676723,-0.32161 -1.269849,-0.57916 -1.318057,-0.57234 -0.101935,0.0144 -1.156911,-0.44095 -4.041823,-1.74469 -1.139178,-0.51481 -2.240697,-0.9819 -2.447821,-1.03799 -0.369072,-0.0999 -0.820013,-0.30185 -3.67173,-1.64411 -0.776713,-0.36558 -1.412205,-0.54088 -1.412205,-0.38955 0,0.15132 -0.203357,0.0462 -0.451905,-0.23362 -0.248548,-0.27982 -0.74694,-0.50876 -1.107538,-0.50876 -0.360598,0 -0.739762,-0.15324 -0.842585,-0.34055 -0.102824,-0.1873 0.478052,-2.92923 1.290836,-6.09318 0.812784,-3.16395 1.53931,-6.11093 1.614503,-6.54885 0.07519,-0.43793 0.237662,-1.0824 0.361042,-1.43217 0.31315,-0.88775 1.717278,-6.39307 1.892471,-7.42003 0.0795,-0.46599 0.319156,-1.32422 0.532579,-1.90717 0.213423,-0.58295 0.313206,-1.20299 0.22174,-1.37788 -0.09147,-0.17488 0.02316,-0.31797 0.254735,-0.31797 0.231571,0 0.316303,-0.19078 0.188294,-0.42396 -0.128009,-0.23318 -0.0839,-0.42397 0.09801,-0.42397 0.181916,0 0.905136,-1.47141 1.607155,-3.2698 0.70202,-1.79839 2.093071,-4.46936 3.091224,-5.93549 0.998154,-1.46612 1.701374,-2.66568 1.562712,-2.66568 -0.138662,0 1.586883,-1.99403 3.834544,-4.43118 l 4.086657,-4.43118 2.274542,2.39581 c 9.660435,10.17547 10.537487,11.20706 10.488273,12.33634 -0.05735,1.31603 -0.341751,4.31303 -0.898234,9.46559 -0.459316,4.25286 -0.314422,4.76258 1.829257,6.43503 1.832473,1.42967 2.483406,1.6136 6.577785,1.85867 l 3.295143,0.19724 v 3.77348 c 0,2.72476 -0.130827,3.77943 -0.470734,3.79485 -2.270563,0.10306 -5.255441,0.51985 -6.496139,0.90708 -0.828493,0.25858 -1.965362,0.53456 -2.526375,0.61329 -1.129816,0.15855 -4.882087,1.56001 -7.363901,2.75039 -0.882939,0.42349 -1.689671,0.77185 -1.792737,0.77412 -0.57375,0.0127 -2.439029,1.38827 -2.439029,1.79872 0,0.26606 -0.106287,0.36408 -0.236194,0.21783 -0.397992,-0.44806 -3.414618,2.1467 -4.236717,3.64422 -1.369408,2.4945 -1.930419,2.86107 -3.347781,2.18746 z"
         id="path78" /><path
         style="fill:#d8e5d6"
         d="m -11.602662,102.27377 c 0,-0.58295 0.08548,-0.82143 0.189945,-0.52996 0.10447,0.29148 0.10447,0.76844 0,1.05991 -0.10447,0.29148 -0.189945,0.053 -0.189945,-0.52995 z m 0.346857,-13.814148 c 0.01807,-0.493893 0.107305,-0.594354 0.227522,-0.256145 0.108785,0.306049 0.09541,0.671717 -0.02973,0.812597 -0.125137,0.140879 -0.214143,-0.109524 -0.197792,-0.556452 z"
         id="path77" /><path
         style="fill:#93e8fe"
         d="m 113.06184,83.407391 c 0.008,-0.699539 0.0921,-0.934388 0.18756,-0.521885 0.0955,0.412503 0.0892,0.984853 -0.0139,1.27189 -0.10316,0.287037 -0.18128,-0.05047 -0.17361,-0.750005 z"
         id="path76" /><path
         style="fill:#e6c9c9"
         d="m 113.01816,97.362855 c 0.0181,-0.49389 0.1073,-0.59436 0.22752,-0.25615 0.10879,0.30605 0.0954,0.67172 -0.0297,0.8126 -0.12514,0.14088 -0.21414,-0.10952 -0.19779,-0.55645 z"
         id="path75" /><path
         style="fill:#d5d8b9"
         d="m 38.134832,86.163154 c 0,-0.81613 0.0775,-1.150001 0.172222,-0.741936 0.09472,0.408064 0.09472,1.075807 0,1.483871 -0.09472,0.408065 -0.172222,0.07419 -0.172222,-0.741935 z"
         id="path74" /><path
         style="fill:#73e2fe"
         d="m 113.01816,81.676208 c 0.0181,-0.493894 0.1073,-0.594354 0.22752,-0.256145 0.10879,0.306049 0.0954,0.671717 -0.0297,0.812597 -0.12514,0.140879 -0.21414,-0.109524 -0.19779,-0.556452 z"
         id="path73" /><path
         style="fill:#c9b6c6"
         d="m 13.144634,171.06183 c -0.468427,-0.67243 -0.455107,-0.68743 0.142182,-0.16007 0.362466,0.32003 0.659029,0.6539 0.659029,0.74194 0,0.34893 -0.309248,0.12435 -0.801211,-0.58187 z m -6.4019928,-7.63134 c -0.4684265,-0.67243 -0.4551065,-0.68743 0.1421827,-0.16007 0.3624657,0.32002 0.6590286,0.6539 0.6590286,0.74193 0,0.34894 -0.3092484,0.12435 -0.8012113,-0.58186 z"
         id="path72" /><path
         style="fill:#cb65fe"
         d="m 161.56825,124.74383 v -9.3272 h 20.71233 20.71233 v 9.3272 9.32719 h -20.71233 -20.71233 z"
         id="path71" /><path
         style="fill:#fbe34e"
         d="m 67.45104,139.7592 c 0.01807,-0.49389 0.107305,-0.59436 0.227521,-0.25615 0.108786,0.30605 0.09541,0.67172 -0.02973,0.8126 -0.125137,0.14088 -0.214143,-0.10952 -0.197791,-0.55645 z"
         id="path70" /><path
         style="fill:#dba8a8"
         d="m 113.04789,99.729985 c 0,-0.58295 0.0855,-0.82143 0.18994,-0.52996 0.10447,0.29148 0.10447,0.76844 0,1.059915 -0.10447,0.29148 -0.18994,0.053 -0.18994,-0.529955 z"
         id="path69" /><path
         style="fill:#b3cbac"
         d="m 4.0839523,113.85513 c 0.2718493,-0.12247 0.5966563,-0.10741 0.7217933,0.0335 0.1251369,0.14088 -0.097285,0.24108 -0.4942715,0.22267 -0.4387033,-0.0203 -0.5279382,-0.1208 -0.2275218,-0.25614 z M -11.255805,92.699256 c 0.01807,-0.493893 0.107305,-0.594354 0.227522,-0.256145 0.108785,0.306049 0.09541,0.671714 -0.02973,0.812594 -0.125137,0.14088 -0.214143,-0.10952 -0.197792,-0.556449 z"
         id="path68" /><path
         style="fill:#50dbfe"
         d="m 113.06184,80.015684 c 0.008,-0.699539 0.0921,-0.934388 0.18756,-0.521885 0.0955,0.412502 0.0892,0.984853 -0.0139,1.27189 -0.10316,0.287037 -0.18128,-0.05046 -0.17361,-0.750005 z"
         id="path67" /><path
         style="fill:#fbe03d"
         d="m 71.09304,146.50914 c 0.258904,-0.11761 0.682565,-0.11761 0.941469,0 0.258904,0.11761 0.04707,0.21384 -0.470734,0.21384 -0.517809,0 -0.729639,-0.0962 -0.470735,-0.21384 z m -3.642,-5.47805 c 0.01807,-0.49389 0.107305,-0.59436 0.227521,-0.25615 0.108786,0.30605 0.09541,0.67172 -0.02973,0.8126 -0.125137,0.14088 -0.214143,-0.10952 -0.197791,-0.55645 z"
         id="path66" /><path
         style="fill:#f6b268"
         d="m 64.949798,55.107835 -1.106073,-1.377881 1.223911,1.245219 c 1.140855,1.160718 1.397009,1.510543 1.106072,1.510543 -0.06481,0 -0.61557,-0.620047 -1.22391,-1.377881 z"
         id="path65" /><path
         style="fill:#b6c289"
         d="m 48.780214,109.48115 c 1.020044,-1.1659 1.939358,-2.11982 2.04292,-2.11982 0.103561,0 -0.646288,0.95392 -1.666332,2.11982 -1.020044,1.16589 -1.939358,2.11981 -2.042919,2.11981 -0.103562,0 0.646287,-0.95392 1.666331,-2.11981 z"
         id="path64" /><path
         style="fill:#2ed4fe"
         d="m 113.0758,77.683886 c 0,-0.81613 0.0775,-1.150001 0.17222,-0.741936 0.0947,0.408064 0.0947,1.075807 0,1.483872 -0.0947,0.408064 -0.17222,0.07419 -0.17222,-0.741936 z"
         id="path63" /><path
         style="fill:#fefe00"
         d="m 116.75431,103.12169 v -9.327195 h 20.71232 20.71233 v 9.327195 9.3272 h -20.71233 -20.71232 z"
         id="path62" /><path
         style="fill:#c1b386"
         d="m 133.51246,44.61474 c 0.809,-0.932719 1.55565,-1.695853 1.65921,-1.695853 0.10356,0 -0.47362,0.763134 -1.28262,1.695853 -0.809,0.93272 -1.55565,1.695854 -1.65921,1.695854 -0.10356,0 0.47362,-0.763134 1.28262,-1.695854 z"
         id="path61" /><path
         style="fill:#9ec097"
         d="m 5.748283,112.44889 c 0,-0.81613 0.0775,-1.15 0.1722222,-0.74194 0.094722,0.40807 0.094722,1.07581 0,1.48388 -0.094722,0.40806 -0.1722222,0.0742 -0.1722222,-0.74194 z m -16.59777,-1.69585 c 0,-0.58295 0.08548,-0.82143 0.189946,-0.52996 0.10447,0.29148 0.10447,0.76844 0,1.05991 -0.10447,0.29147 -0.189946,0.053 -0.189946,-0.52995 z m -0.348679,-10.17513 c 0,-0.816135 0.0775,-1.150005 0.172222,-0.741935 0.09472,0.408065 0.09472,1.075815 0,1.483875 -0.09472,0.40806 -0.172222,0.0742 -0.172222,-0.74194 z m 0.376587,-13.142866 c 0,-0.81613 0.0775,-1.150001 0.172222,-0.741936 0.09472,0.408065 0.09472,1.075807 0,1.483872 -0.09472,0.408064 -0.172222,0.07419 -0.172222,-0.741936 z M 5.38564,77.814046 c 0.3664076,-0.107493 0.8748011,-0.100424 1.1297633,0.01571 0.2549621,0.116133 -0.044826,0.204082 -0.6661958,0.195442 C 5.2278377,78.016598 5.0192323,77.921539 5.38564,77.814046 Z m 6.606656,-0.419776 c 0.271849,-0.12247 0.596656,-0.107408 0.721793,0.03347 0.125137,0.14088 -0.09728,0.241083 -0.494271,0.222674 -0.438704,-0.02034 -0.527938,-0.120804 -0.227522,-0.256145 z"
         id="path60" /><path
         style="fill:#ce9292"
         d="m 113.04789,101.42584 c 0,-0.58295 0.0855,-0.82143 0.18994,-0.52995 0.10447,0.29147 0.10447,0.76843 0,1.05991 -0.10447,0.29147 -0.18994,0.053 -0.18994,-0.52996 z"
         id="path59" /><path
         style="fill:#b4bb82"
         d="m 45.579218,113.08483 c 0.702631,-0.81613 1.362244,-1.48387 1.465805,-1.48387 0.103562,0 -0.386586,0.66774 -1.089217,1.48387 -0.702631,0.81613 -1.362244,1.48388 -1.465805,1.48388 -0.103562,0 0.386586,-0.66775 1.089217,-1.48388 z"
         id="path58" /><path
         style="fill:#fbda16"
         d="m 72.622928,146.50031 c 0.271849,-0.12247 0.596656,-0.10741 0.721793,0.0335 0.125137,0.14088 -0.09728,0.24108 -0.494271,0.22267 -0.438704,-0.0203 -0.527939,-0.1208 -0.227522,-0.25614 z m -3.12772,-0.55346 c -0.131934,-0.24032 0.01923,-0.3114 0.354362,-0.16662 0.652408,0.28185 0.771775,0.58573 0.230079,0.58573 -0.1949,0 -0.457898,-0.1886 -0.584441,-0.41911 z m 6.211032,0.25249 c 0,-0.0916 0.262998,-0.28024 0.584441,-0.41911 0.335135,-0.14478 0.486296,-0.0737 0.354363,0.16662 -0.221155,0.40286 -0.938804,0.59586 -0.938804,0.25249 z m 0.436049,-3.22509 c 0,-0.58295 0.08548,-0.82143 0.189946,-0.52995 0.10447,0.29147 0.10447,0.76843 0,1.05991 -0.10447,0.29147 -0.189946,0.053 -0.189946,-0.52996 z m -8.691249,-0.67127 c 0.01807,-0.49389 0.107305,-0.59436 0.227521,-0.25615 0.108786,0.30605 0.09541,0.67172 -0.02973,0.8126 -0.125137,0.14088 -0.214143,-0.10952 -0.197791,-0.55645 z m 8.328615,-3.78034 c 0.0077,-0.69954 0.09208,-0.93439 0.187557,-0.52189 0.09548,0.41251 0.0892,0.98486 -0.01395,1.27189 -0.103156,0.28704 -0.181277,-0.0505 -0.173603,-0.75 z m -7.865065,-2.96775 c 0.0021,-1.39907 0.07242,-1.92031 0.156232,-1.1583 0.08381,0.76201 0.08208,1.90671 -0.0038,2.54378 -0.08593,0.63707 -0.154503,0.0136 -0.152389,-1.38548 z m 7.474524,-1.48387 c 0,-0.58295 0.08548,-0.82143 0.189945,-0.52995 0.10447,0.29147 0.10447,0.76843 0,1.05991 -0.10447,0.29147 -0.189945,0.053 -0.189945,-0.52996 z m -7.561487,-2.36713 c 0.01807,-0.49389 0.107306,-0.59435 0.227522,-0.25614 0.108785,0.30605 0.09541,0.67172 -0.02973,0.8126 -0.125137,0.14088 -0.214143,-0.10953 -0.197792,-0.55646 z"
         id="path57" /><path
         style="fill:#9abd92"
         d="m -3.7537807,136.44818 c 0,-0.0916 0.2629983,-0.28024 0.5844408,-0.41911 0.3351349,-0.14478 0.486296,-0.0737 0.3543626,0.16663 -0.2211541,0.40285 -0.9388034,0.59585 -0.9388034,0.25248 z m 5.2722288,-2.80112 c 0.3106849,-0.22604 0.7343462,-0.41098 0.9414694,-0.41098 0.2071233,0 0.1223911,0.18494 -0.1882938,0.41098 -0.310685,0.22604 -0.7343462,0.41098 -0.9414695,0.41098 -0.2071233,0 -0.122391,-0.18494 0.1882939,-0.41098 z M -6.5936738,131.923 c -0.1365258,-0.24869 -0.1674625,-0.5431 -0.068748,-0.65423 0.098714,-0.11113 0.2798296,0.0923 0.4024785,0.45217 0.2546426,0.74707 0.037604,0.87848 -0.3337305,0.20206 z m 14.5141141,-1.41031 c 0,-0.0916 0.2629983,-0.28024 0.5844408,-0.4191 0.3351349,-0.14479 0.486296,-0.0737 0.3543627,0.16662 -0.2211542,0.40285 -0.9388035,0.59586 -0.9388035,0.25248 z m 5.1780827,-1.81001 c 0.258904,-0.11761 0.682565,-0.11761 0.941469,0 0.258904,0.11761 0.04707,0.21384 -0.470735,0.21384 -0.517808,0 -0.729639,-0.0962 -0.470734,-0.21384 z m 4.337926,-0.43698 c 0.366408,-0.1075 0.874801,-0.10043 1.129763,0.0157 0.254963,0.11613 -0.04482,0.20408 -0.666195,0.19544 -0.62137,-0.009 -0.829976,-0.10366 -0.463568,-0.21115 z m 1.464498,-3.52187 c 0,-0.58295 0.08548,-0.82143 0.189946,-0.52996 0.10447,0.29148 0.10447,0.76844 0,1.05991 -0.10447,0.29148 -0.189946,0.053 -0.189946,-0.52995 z m -0.782906,-7.87866 c 0.01807,-0.49389 0.107305,-0.59435 0.227522,-0.25614 0.108785,0.30605 0.09541,0.67172 -0.02973,0.8126 -0.125137,0.14088 -0.214143,-0.10953 -0.197791,-0.55646 z m 3.35956,-2.8805 c 0,-0.088 0.296562,-0.42191 0.659028,-0.74193 0.597289,-0.52736 0.610609,-0.51236 0.142183,0.16007 -0.491963,0.70621 -0.801211,0.9308 -0.801211,0.58186 z m -32.356818,-1.78309 c 0.01807,-0.4939 0.107305,-0.59436 0.227521,-0.25615 0.108785,0.30605 0.09541,0.67172 -0.02973,0.8126 -0.125137,0.14088 -0.214143,-0.10952 -0.197791,-0.55645 z m 13.1805713,-1.69586 c 0.01807,-0.49389 0.107305,-0.59435 0.2275217,-0.25614 0.1087852,0.30605 0.095406,0.67172 -0.029731,0.8126 -0.1251369,0.14088 -0.214143,-0.10953 -0.1977907,-0.55646 z m -0.3468572,-3.14439 c 0,-0.58295 0.085476,-0.82143 0.1899456,-0.52996 0.1044701,0.29148 0.1044701,0.76844 0,1.05991 -0.1044701,0.29148 -0.1899456,0.053 -0.1899456,-0.52995 z M 0.79500316,99.058705 c 0.0180702,-0.49389 0.10730504,-0.59435 0.22752184,-0.25614 0.1087851,0.30605 0.095406,0.67171 -0.0297306,0.81259 -0.12513698,0.14088 -0.214143,-0.10952 -0.19779124,-0.55645 z M -11.226075,98.458095 c 0,-0.58295 0.08548,-0.82143 0.189946,-0.52996 0.10447,0.29148 0.10447,0.76844 0,1.05991 -0.10447,0.29148 -0.189946,0.053 -0.189946,-0.52995 z m 32.733406,-1.94317 c 0.01807,-0.49389 0.107305,-0.59435 0.227522,-0.25614 0.108785,0.30605 0.09541,0.67171 -0.02973,0.81259 -0.125137,0.14088 -0.214143,-0.10952 -0.197791,-0.55645 z M -0.3347602,90.579439 c 0.01807,-0.493893 0.1073051,-0.594354 0.2275218,-0.256145 0.1087852,0.306049 0.095406,0.671717 -0.029731,0.812597 -0.125137,0.140879 -0.214143,-0.109524 -0.1977908,-0.556452 z M -10.849487,89.554861 c 0,-0.58295 0.08548,-0.821429 0.189946,-0.529955 0.10447,0.291475 0.10447,0.768434 0,1.059909 -0.10447,0.291475 -0.189946,0.05299 -0.189946,-0.529954 z m 10.1381391,-1.943166 c 0.01807,-0.493893 0.107305,-0.594354 0.2275217,-0.256144 0.1087852,0.306048 0.095406,0.671717 -0.029731,0.812596 -0.1251369,0.14088 -0.214143,-0.109524 -0.1977907,-0.556452 z M 18.871217,84.643951 c 0.01807,-0.493893 0.107305,-0.594354 0.227522,-0.256144 0.108785,0.306048 0.09541,0.671717 -0.02973,0.812596 -0.125137,0.14088 -0.214143,-0.109524 -0.197791,-0.556452 z M -1.4645235,81.252244 c 0.01807,-0.493893 0.107305,-0.594354 0.2275218,-0.256144 0.1087851,0.306048 0.095406,0.671717 -0.029731,0.812596 -0.125137,0.14088 -0.214143,-0.109524 -0.1977908,-0.556452 z M 18.118041,80.828281 c 0.01807,-0.493893 0.107305,-0.594354 0.227522,-0.256145 0.108785,0.306049 0.09541,0.671717 -0.02973,0.812597 -0.125137,0.140879 -0.214143,-0.109524 -0.197791,-0.556452 z M -3.4713399,79.098956 c 0.2589041,-0.117612 0.6825653,-0.117612 0.9414694,0 0.2589041,0.117613 0.047073,0.213842 -0.4707347,0.213842 -0.5178082,0 -0.7296388,-0.09623 -0.4707347,-0.213842 z"
         id="path56" /><path
         style="fill:#e5cc33"
         d="m 80.284755,126.86364 c 0,-0.58294 0.08548,-0.82142 0.189945,-0.52995 0.10447,0.29148 0.10447,0.76843 0,1.05991 -0.10447,0.29147 -0.189945,0.053 -0.189945,-0.52996 z m -0.406319,-7.03072 c 0.01807,-0.49389 0.107305,-0.59436 0.227522,-0.25615 0.108785,0.30605 0.09541,0.67172 -0.02973,0.8126 -0.125137,0.14088 -0.214143,-0.10952 -0.197792,-0.55645 z m 19.482224,-3.01005 c 0.271849,-0.12247 0.596656,-0.10741 0.72179,0.0335 0.12514,0.14088 -0.09728,0.24108 -0.494268,0.22268 -0.438704,-0.0203 -0.527939,-0.12081 -0.227522,-0.25615 z m 7.32709,-0.42815 c 0.36641,-0.10749 0.8748,-0.10042 1.12976,0.0157 0.25497,0.11613 -0.0448,0.20408 -0.66619,0.19544 -0.62137,-0.009 -0.82998,-0.10366 -0.46357,-0.21115 z m -26.839044,-3.07288 c 0,-0.21942 0.167523,-0.51551 0.372274,-0.65797 0.213472,-0.14853 0.276606,0.0216 0.148003,0.39894 -0.250352,0.73449 -0.520277,0.86887 -0.520277,0.25903 z m 1.882939,-3.81567 c 0,-0.21942 0.167523,-0.51551 0.372274,-0.65797 0.213472,-0.14853 0.276606,0.0216 0.148003,0.39894 -0.250352,0.73449 -0.520277,0.86887 -0.520277,0.25903 z"
         id="path55" /><path
         style="fill:#bb9393"
         d="m 27.185878,66.236874 c 0,-0.58295 0.08548,-0.821429 0.189946,-0.529954 0.10447,0.291474 0.10447,0.768433 0,1.059908 -0.10447,0.291475 -0.189946,0.05299 -0.189946,-0.529954 z m 38.18841,-4.787873 c 0.141421,-0.418122 0.351994,-0.653421 0.46794,-0.522888 0.115947,0.130532 2.39e-4,0.472632 -0.257128,0.76022 -0.371924,0.415598 -0.41518,0.3669 -0.210812,-0.237332 z"
         id="path54" /><path
         style="fill:#fbd90b"
         d="m 71.940362,146.36987 c -2.243358,-0.37756 -3.690181,-1.20289 -4.021544,-2.29406 -0.148579,-0.48926 -0.237159,-1.03067 -0.196845,-1.20311 0.05825,-0.24916 0.40163,-8.96313 0.442903,-11.23947 0.007,-0.38601 0.981309,-0.52995 3.587193,-0.52995 3.148951,0 3.579852,0.0889 3.596517,0.74193 0.01041,0.40807 0.09214,1.60047 0.181621,2.64978 0.08948,1.04931 0.247806,2.95714 0.351841,4.23963 0.48258,5.949 0.576112,6.8621 0.731998,7.14606 0.09166,0.16697 -0.117461,0.30757 -0.46472,0.31245 -0.347259,0.005 -1.055041,0.11081 -1.572849,0.2354 -0.517808,0.1246 -1.70406,0.0982 -2.636115,-0.0587 z"
         id="path53" /><path
         style="fill:#96ba8e"
         d="m -4.3186624,136.0397 c -0.2071233,-0.26664 -0.7868507,-1.48642 -1.2882832,-2.71061 -0.5014325,-1.2242 -1.0324272,-2.22581 -1.1799883,-2.22581 -0.1475611,0 -0.3615606,-0.33387 -0.4755543,-0.74194 -0.1139938,-0.40806 -0.4895007,-1.60046 -0.8344598,-2.64977 -0.3449594,-1.04931 -0.6955774,-2.38479 -0.7791524,-2.96774 -0.08357,-0.58295 -0.225982,-1.44148 -0.31646,-1.90784 -0.09048,-0.46636 -0.265382,-1.61106 -0.388674,-2.54378 -0.123292,-0.93272 -0.378677,-2.36359 -0.5675216,-3.17972 -0.5168,-2.23345 -0.815509,-10.31404 -0.697421,-18.866375 0.147287,-10.667002 0.04581,-15.097948 -0.374253,-16.341795 -0.2939,-0.870262 -0.245669,-1.081849 0.257337,-1.128917 0.340465,-0.03186 1.1274196,-0.168864 1.7487896,-0.304456 1.7282965,-0.377141 2.8433978,-0.573433 4.8516694,-0.854038 1.011432,-0.141323 1.973652,-0.350662 2.1382667,-0.465198 0.4670558,-0.32497 0.7408602,1.085364 1.6904485,8.707296 0.1016786,0.81613 0.2477366,1.960831 0.3245735,2.543781 0.076837,0.582949 0.2479874,1.918434 0.3803345,2.967747 0.1323472,1.04931 0.3437796,2.57557 0.46984969,3.3917 0.12607013,0.81613 0.27246341,1.86544 0.32531839,2.3318 0.052855,0.46636 0.20310142,1.801855 0.33388092,2.967755 0.1307796,1.1659 0.4159097,3.26451 0.6336225,4.66359 0.2177128,1.39908 0.3947116,2.82996 0.3933307,3.17973 -0.00138,0.34977 0.2538091,1.44677 0.5670891,2.43779 0.5248578,1.66031 0.6744504,1.80184 1.9044234,1.80184 h 1.3348235 l -0.2316348,-2.2258 c -0.1273991,-1.2242 -0.3163804,-2.84607 -0.4199585,-3.60417 -0.103578,-0.7581 -0.2730559,-2.0461 -0.3766176,-2.86223 C 5.0015549,104.63641 4.8320904,103.30093 4.7285288,102.4848 4.6249671,101.66867 4.4555026,100.33318 4.351941,99.517055 4.2483794,98.700925 4.0789149,97.365435 3.9753532,96.549305 3.8717916,95.733175 3.7023271,94.397695 3.5987654,93.581565 3.4952038,92.765433 3.3257393,91.429948 3.2221777,90.613819 3.118616,89.797689 2.9531067,88.510114 2.8543792,87.752541 2.7556516,86.994968 2.5901423,85.707393 2.4865807,84.891263 2.383019,84.075134 2.1975498,82.644257 2.0744267,81.711538 1.8270626,79.837629 1.7893032,78.509525 1.9773706,78.297799 2.0448725,78.221805 3.875705,78.057221 6.0458872,77.932057 15.34787,77.395571 17.020055,77.267168 17.307277,77.067324 c 0.263975,-0.18367 0.615488,1.480264 1.330203,6.296677 0.100264,0.675675 0.361597,1.840124 0.580739,2.587665 0.219142,0.747542 0.478223,1.768681 0.575735,2.269199 0.333206,1.710302 0.48059,2.397009 1.287225,5.99759 0.787747,3.51628 0.921173,4.17479 1.288529,6.359455 0.09802,0.58295 0.284354,1.53687 0.414066,2.11982 0.129713,0.58295 0.333197,2.01383 0.452186,3.17973 0.11899,1.1659 0.353091,2.41575 0.520225,2.77745 0.730808,1.58156 -1.545719,5.03987 -4.520641,6.86737 -1.028035,0.63153 -1.174292,0.91469 -0.985421,1.90784 0.121984,0.64143 0.300451,2.12016 0.396593,3.28606 0.411,4.98412 0.55545,6.52525 0.654513,6.98294 0.06385,0.29501 -0.560339,0.54521 -1.589506,0.63713 -5.368687,0.47953 -6.96038,0.71325 -7.352501,1.07962 -0.240267,0.22449 -0.5483542,0.28263 -0.6846394,0.1292 -0.1362852,-0.15343 -0.2477912,-0.0564 -0.2477912,0.21566 0,0.27204 -0.1305474,0.44693 -0.2901053,0.38863 -0.308888,-0.11285 -3.5352713,1.4013 -3.8523603,1.80792 -0.1035616,0.13281 -0.9309366,0.51081 -1.838611,0.84001 -0.9076744,0.3292 -1.876043,0.85267 -2.1519301,1.16326 -0.2758872,0.3106 -0.59590538,0.54698 -0.7111516,0.52531 -0.52551,-0.0988 -2.8300627,1.0712 -2.8300627,1.43685 0,0.2252 -0.107014,0.28897 -0.2378088,0.14173 -0.1307948,-0.14725 -0.5120899,-0.10398 -0.8473225,0.0962 -0.3771515,0.22517 -0.7530786,0.17908 -0.9861015,-0.1209 z"
         id="path52" /><path
         style="fill:#e5ca2b"
         d="m 107.62205,132.94231 c 0.25891,-0.11761 0.68257,-0.11761 0.94147,0 0.25891,0.11762 0.0471,0.21384 -0.47073,0.21384 -0.51781,0 -0.72964,-0.0962 -0.47074,-0.21384 z m -2.23599,-0.43279 c 0.27185,-0.12247 0.59666,-0.10741 0.7218,0.0335 0.12513,0.14088 -0.0973,0.24108 -0.49428,0.22267 -0.4387,-0.0203 -0.52793,-0.1208 -0.22752,-0.25614 z m -8.685051,-1.26306 c 0.258904,-0.11761 0.682565,-0.11761 0.941469,0 0.258904,0.11761 0.04707,0.21384 -0.470735,0.21384 -0.517808,0 -0.729639,-0.0962 -0.470734,-0.21384 z m -2.23599,-0.4328 c 0.271849,-0.12247 0.596656,-0.10741 0.721793,0.0335 0.125137,0.14088 -0.09728,0.24109 -0.494272,0.22268 -0.438703,-0.0203 -0.527938,-0.12081 -0.227521,-0.25615 z m -8.685056,-1.26305 c 0.258904,-0.11762 0.682565,-0.11762 0.94147,0 0.258904,0.11761 0.04707,0.21384 -0.470735,0.21384 -0.517808,0 -0.729639,-0.0962 -0.470735,-0.21384 z m -2.23599,-0.4328 c 0.27185,-0.12247 0.596656,-0.10741 0.721793,0.0335 0.125137,0.14088 -0.09728,0.24108 -0.494271,0.22267 -0.438703,-0.0203 -0.527938,-0.1208 -0.227522,-0.25614 z m -3.14587,-0.58652 c -0.136526,-0.24869 -0.167463,-0.5431 -0.06875,-0.65423 0.09871,-0.11113 0.27983,0.0924 0.402479,0.45217 0.254642,0.74707 0.0376,0.87848 -0.333729,0.20206 z m 17.079618,-11.70842 c 0.271849,-0.12247 0.596656,-0.10741 0.721793,0.0335 0.125137,0.14088 -0.09728,0.24108 -0.494271,0.22268 -0.438704,-0.0203 -0.527939,-0.12081 -0.227522,-0.25615 z m 3.012699,0 c 0.27185,-0.12247 0.59666,-0.10741 0.7218,0.0335 0.12513,0.14088 -0.0973,0.24108 -0.49428,0.22268 -0.4387,-0.0203 -0.52793,-0.12081 -0.22752,-0.25615 z m 7.90834,-0.42396 c 0.27185,-0.12247 0.59666,-0.10741 0.7218,0.0335 0.12513,0.14088 -0.0973,0.24108 -0.49427,0.22267 -0.43871,-0.0203 -0.52794,-0.1208 -0.22753,-0.25614 z m -17.853083,-2.78412 -0.717395,-0.95392 0.847322,0.80765 c 0.796274,0.75898 1.018761,1.10019 0.717395,1.10019 -0.07146,0 -0.452755,-0.42927 -0.847322,-0.95392 z m -9.567208,-2.41277 c 0,-0.21942 0.167523,-0.5155 0.372274,-0.65796 0.213473,-0.14854 0.276607,0.0216 0.148003,0.39894 -0.250352,0.73448 -0.520277,0.86886 -0.520277,0.25902 z m 6.37349,-0.76696 -0.912967,-1.1659 1.035616,1.02782 c 0.96794,0.96066 1.208315,1.30398 0.912967,1.30398 -0.06746,0 -0.533484,-0.52465 -1.035616,-1.1659 z m -2.912911,-2.75576 c -0.726803,-0.81637 -0.900941,-0.86222 -1.207683,-0.31797 -0.214241,0.38012 -0.360744,0.43282 -0.364191,0.13101 -0.01205,-1.05485 0.863463,-1.041 1.813627,0.0287 0.543344,0.6117 0.902309,1.11218 0.797702,1.11218 -0.104608,0 -0.572363,-0.42926 -1.039455,-0.95392 z"
         id="path51" /><path
         style="fill:#0acdfe"
         d="m 112.60801,87.097896 0.18447,-3.266541 0.11648,2.925717 c 0.0641,1.609144 -0.0189,3.079087 -0.18447,3.266541 -0.16552,0.187453 -0.21793,-1.12912 -0.11648,-2.925717 z M 99.245642,81.504412 c -0.131933,-0.240328 0.01923,-0.311404 0.354363,-0.166622 0.652405,0.281847 0.771775,0.58573 0.230078,0.58573 -0.1949,0 -0.457898,-0.188599 -0.584441,-0.419108 z M 97.317569,80.04397 c -0.113918,-0.334212 0.230329,-1.332418 0.764994,-2.218233 0.534666,-0.885816 0.968351,-1.4232 0.963745,-1.194186 -0.0046,0.229014 -0.339766,0.893348 -0.744801,1.476298 -0.854941,1.230478 -0.946176,1.961482 -0.282441,2.262998 0.368702,0.16749 0.36614,0.221096 -0.01182,0.247312 -0.265405,0.01841 -0.57576,-0.239976 -0.689677,-0.574189 z m 2.40309,-4.127354 c 0.218836,-0.246367 0.620171,-0.364522 0.891861,-0.262567 0.28204,0.105842 0.11134,0.298021 -0.39789,0.447939 -0.626393,0.184413 -0.773425,0.129237 -0.493971,-0.185372 z m 13.341181,-0.564529 c 0.008,-0.69954 0.0921,-0.934388 0.18756,-0.521886 0.0955,0.412503 0.0892,0.984854 -0.0139,1.271891 -0.10316,0.287037 -0.18128,-0.05047 -0.17361,-0.750005 z m -7.60517,-1.650494 c 0,-0.09164 0.263,-0.280241 0.58444,-0.419108 0.33514,-0.144781 0.4863,-0.0737 0.35437,0.166623 -0.22116,0.402851 -0.93881,0.595858 -0.93881,0.252485 z"
         id="path50" /><path
         style="fill:#fe3a9c"
         d="m 94.535629,56.909679 c 0.310685,-0.226039 0.734346,-0.410979 0.941469,-0.410979 0.207124,0 0.122391,0.18494 -0.188294,0.410979 -0.310684,0.226039 -0.734346,0.410979 -0.941469,0.410979 -0.207123,0 -0.122391,-0.18494 0.188294,-0.410979 z m 2.636114,-1.27189 c 0.310685,-0.226039 0.734346,-0.410979 0.94147,-0.410979 0.207123,0 0.122391,0.18494 -0.188294,0.410979 -0.310685,0.226038 -0.734346,0.410979 -0.94147,0.410979 -0.207123,0 -0.122391,-0.184941 0.188294,-0.410979 z M 87.757049,14.937302 c -0.221698,-0.466359 -0.318355,-0.847926 -0.214794,-0.847926 0.103562,0 0.369684,0.381567 0.591382,0.847926 0.221698,0.46636 0.318355,0.847927 0.214793,0.847927 -0.103561,0 -0.369683,-0.381567 -0.591381,-0.847927 z m -5.74924,-4.292242 c 0.255452,-0.289745 0.559323,-0.420009 0.67527,-0.289476 0.115947,0.130533 -0.09306,0.367597 -0.464458,0.526808 -0.536713,0.230079 -0.579969,0.181381 -0.210812,-0.237332 z"
         id="path49" /><path
         style="fill:#e4c822"
         d="m 112.93975,133.8749 c -0.0958,-0.10787 -0.92902,-0.30196 -1.85156,-0.4313 -0.92254,-0.12935 -1.93154,-0.31967 -2.24223,-0.42295 -0.31068,-0.10328 -1.58167,-0.30079 -2.82441,-0.43891 -1.24274,-0.13812 -2.68318,-0.32135 -3.20099,-0.40717 -0.51781,-0.0858 -1.70406,-0.26988 -2.63611,-0.40902 -0.932059,-0.13914 -1.948846,-0.33748 -2.259531,-0.44076 -0.310685,-0.10327 -1.581669,-0.30078 -2.824408,-0.43891 -1.24274,-0.13812 -2.683188,-0.32134 -3.200997,-0.40716 -0.517808,-0.0858 -1.704059,-0.26988 -2.636114,-0.40902 -0.932055,-0.13914 -1.948842,-0.33748 -2.259527,-0.44076 -0.500237,-0.16629 -4.519922,-0.69385 -6.025404,-0.7908 -0.411703,-0.0265 -0.569397,-0.55783 -0.581533,-1.95935 -0.03437,-3.96919 -0.521255,-12.34192 -0.740973,-12.74215 -0.125562,-0.22872 -0.08737,-0.41586 0.08488,-0.41586 0.374488,0 1.843054,-2.98702 1.708361,-3.47476 -0.05178,-0.1875 0.0639,-0.34091 0.257063,-0.34091 0.193166,0 0.451888,-0.33387 0.574939,-0.74194 0.12305,-0.40806 0.465556,-1.10019 0.761124,-1.53807 0.518878,-0.7687 0.580169,-0.75703 1.778735,0.33866 1.250046,1.14275 2.601271,2.47782 5.545745,5.47945 2.447948,2.49546 4.578457,3.39471 8.122991,3.42854 4.181259,0.0399 14.077739,-0.52632 14.514869,-0.83048 0.22514,-0.15665 0.36035,3.17871 0.36035,8.88952 0,5.02713 -0.0565,9.14023 -0.12553,9.14023 -0.069,0 -0.20393,-0.0883 -0.29974,-0.19612 z"
         id="path48" /><path
         style="fill:#00cbfe"
         d="m 112.61184,90.431357 c 0,-0.217466 -0.3813,-0.529355 -0.84732,-0.693087 -0.46603,-0.163732 -0.93206,-0.427557 -1.03562,-0.586278 -0.10356,-0.158721 -1.62874,-1.258255 -3.38929,-2.443408 -1.76055,-1.185153 -3.79412,-2.558518 -4.51905,-3.051922 -0.72493,-0.493403 -1.61462,-1.012067 -1.97709,-1.152586 -0.36246,-0.140518 -0.65902,-0.411164 -0.65902,-0.601434 0,-0.19027 -0.373396,-0.479365 -0.829763,-0.642432 -0.456367,-0.163067 -1.07924,-0.577352 -1.384161,-0.920633 -0.471026,-0.530282 -0.477781,-0.760969 -0.04492,-1.533928 0.280215,-0.50038 0.692297,-1.291349 0.915737,-1.757709 0.22344,-0.466359 0.744144,-0.914691 1.157119,-0.996292 0.412978,-0.0816 0.875368,-0.367777 1.027538,-0.635945 0.15217,-0.268169 0.27927,-0.321131 0.28244,-0.117695 0.003,0.203437 0.28601,0.108045 0.62853,-0.211982 0.34252,-0.320026 0.63908,-0.496022 0.65903,-0.391101 0.0583,0.30684 3.61332,-0.906721 3.83407,-1.30883 0.11045,-0.201194 1.72367,-0.365807 3.58495,-0.365807 h 3.38412 l -0.2064,1.377881 c -0.11352,0.757835 -0.2483,4.763108 -0.2995,8.900608 -0.0512,4.1375 -0.13547,7.523907 -0.18725,7.52535 -0.0518,0.0014 -0.0941,-0.175303 -0.0941,-0.39277 z"
         id="path47" /><path
         style="fill:#fe3298"
         d="m 93.376847,55.923942 c -0.25277,-0.740334 -0.47934,-1.441453 -0.503489,-1.558043 -0.02415,-0.11659 -0.178412,-0.450462 -0.342807,-0.741936 -0.164394,-0.291475 -0.206544,-0.529955 -0.09366,-0.529955 0.112878,0 -0.15549,-1.097005 -0.596373,-2.437789 -0.440883,-1.340784 -0.926597,-2.819357 -1.079362,-3.285716 -0.152766,-0.46636 -0.255693,-0.961693 -0.228725,-1.100739 0.02697,-0.139046 -0.183549,-0.568309 -0.467815,-0.953918 -0.284265,-0.385608 -0.413742,-0.701106 -0.287726,-0.701106 0.202747,0 -0.662793,-2.919716 -1.759555,-5.935487 -0.212005,-0.58295 -0.402258,-1.1553 -0.422786,-1.27189 -0.02053,-0.11659 -0.171827,-0.450461 -0.336221,-0.741936 -0.164395,-0.291475 -0.208429,-0.529955 -0.09785,-0.529955 0.110575,0 -0.30786,-1.573964 -0.929856,-3.497698 -1.430784,-4.425182 -1.461884,-4.525138 -1.484304,-4.770577 -0.01025,-0.112238 -0.528057,-1.779592 -1.150677,-3.705229 -1.431979,-4.428821 -1.463015,-4.528568 -1.485437,-4.774039 -0.01025,-0.112238 -0.511522,-1.709002 -1.113932,-3.548365 l -1.09529,-3.344294 0.915335,-0.895997 c 0.503435,-0.492798 0.915336,-0.791081 0.915336,-0.66285 0,0.128231 0.508393,-0.104948 1.129763,-0.518177 0.62137,-0.413228 1.129763,-0.8840918 1.129763,-1.0463638 0,-0.44157 1.315915,-0.13884 1.331402,0.306294 0.01524,0.4380528 0.927032,2.3948058 1.266942,2.7189278 0.124336,0.118559 0.665329,1.161727 1.202208,2.31815 0.892802,1.923071 1.15806,2.163384 3.106849,2.81468 1.171888,0.391652 2.130706,0.646009 2.130706,0.565237 0,-0.08077 0.593126,0.132143 1.318057,0.473143 0.724931,0.341001 1.318057,0.483893 1.318057,0.317538 0,-0.166356 0.203358,-0.07352 0.451906,0.206292 0.248547,0.279816 0.756941,0.508756 1.129763,0.508756 0.406258,0 0.677858,0.31143 0.677858,0.777266 0,0.427497 0.127098,0.920354 0.282441,1.095239 0.155342,0.174885 0.297077,0.445161 0.314965,0.600615 0.01789,0.155453 0.126141,0.568817 0.240561,0.918587 0.11442,0.34977 0.581531,2.162213 1.038024,4.027652 0.456492,1.865439 0.970552,3.584155 1.142342,3.819369 0.1718,0.235214 0.56765,1.66609 0.87966,3.179726 0.31202,1.513635 0.77703,3.324414 1.03336,4.023954 0.25633,0.699539 0.49489,1.367282 0.53014,1.483872 0.0352,0.11659 0.1577,0.498157 0.27212,0.847926 0.11442,0.34977 0.58153,2.162214 1.03802,4.027653 0.45649,1.865439 0.97507,3.590291 1.1524,3.833005 0.17732,0.242715 0.41822,1.053545 0.53532,1.801845 0.16243,1.037955 0.0777,1.360546 -0.35734,1.360546 -0.31364,0 -0.57026,0.190783 -0.57026,0.423963 0,0.23318 -0.1271,0.392668 -0.28244,0.354418 -0.61557,-0.151573 -2.35367,0.61207 -2.35367,1.034094 0,0.246765 -0.10702,0.328186 -0.23781,0.180937 -0.1308,-0.147249 -0.59682,-0.04272 -1.03562,0.232289 -0.43879,0.275008 -0.88254,0.523252 -0.9861,0.551654 -0.23921,0.0656 -1.079473,0.447931 -4.209624,1.915415 l -2.514981,1.179078 z"
         id="path46" /><path
         style="fill:#b38686"
         d="m 27.213787,64.117057 c 0,-0.81613 0.0775,-1.150001 0.172222,-0.741936 0.09472,0.408065 0.09472,1.075807 0,1.483872 -0.09472,0.408065 -0.172222,0.07419 -0.172222,-0.741936 z"
         id="path45" /><path
         style="fill:#18fe91"
         d="m 75.403068,113.08483 c 0.0077,-0.69954 0.09208,-0.93438 0.187556,-0.52188 0.09548,0.4125 0.0892,0.98485 -0.01395,1.27189 -0.103156,0.28704 -0.181277,-0.0505 -0.173602,-0.75001 z"
         id="path44" /><path
         style="fill:#c57070"
         d="m 113.04789,103.12169 c 0,-0.58295 0.0855,-0.82142 0.18994,-0.52995 0.10447,0.29148 0.10447,0.76843 0,1.05991 -0.10447,0.29147 -0.18994,0.053 -0.18994,-0.52996 z"
         id="path43" /><path
         style="fill:#929c73"
         d="m 92.467062,77.264778 c -0.131933,-0.240328 0.01923,-0.311404 0.354363,-0.166622 0.652407,0.281847 0.771774,0.58573 0.230078,0.58573 -0.1949,0 -0.457898,-0.188599 -0.584441,-0.419108 z m 1.691979,-0.561481 c 0,-0.07296 0.55076,-0.693011 1.22391,-1.377881 l 1.223911,-1.245219 -1.106073,1.377881 c -1.031015,1.284378 -1.341748,1.572756 -1.341748,1.245219 z m 1.560679,-4.000981 c -0.410933,-1.081126 -0.401637,-1.106061 0.127846,-0.342932 0.314051,0.452633 0.571002,0.977287 0.571002,1.1659 0,0.644385 -0.255452,0.343563 -0.698848,-0.822968 z M 83.052368,71.329291 c -0.131934,-0.240328 0.01923,-0.311404 0.354362,-0.166623 0.652408,0.281847 0.771774,0.58573 0.230078,0.58573 -0.194899,0 -0.457897,-0.188598 -0.58444,-0.419107 z m 10.031238,-4.1385 c -0.410933,-1.081125 -0.401637,-1.10606 0.127846,-0.342931 0.314051,0.452632 0.571001,0.977287 0.571001,1.165899 0,0.644385 -0.255451,0.343564 -0.698847,-0.822968 z m -6.226438,-2.41923 c 0.644243,-0.334756 1.66103,-0.717232 2.259526,-0.849946 0.931195,-0.206488 0.898032,-0.157372 -0.229882,0.340472 -0.724931,0.319973 -1.741718,0.702448 -2.259526,0.849945 -0.708173,0.201722 -0.651207,0.117352 0.229882,-0.340471 z"
         id="path42" /><path
         style="fill:#f28e21"
         d="m 65.13328,54.895853 -0.912967,-1.165899 1.035616,1.02782 c 0.96794,0.960653 1.208316,1.303978 0.912967,1.303978 -0.06746,0 -0.533484,-0.524655 -1.035616,-1.165899 z M 64.06175,40.975721 c 0.01807,-0.493893 0.107305,-0.594354 0.227522,-0.256144 0.108785,0.306048 0.09541,0.671717 -0.02973,0.812596 -0.125137,0.14088 -0.214143,-0.109524 -0.197792,-0.556452 z"
         id="path41" /><path
         style="fill:#13fe8e"
         d="m 67.95041,127.18162 -0.717395,-0.95392 0.847323,0.80764 c 0.796274,0.75899 1.01876,1.1002 0.717395,1.1002 -0.07146,0 -0.452756,-0.42927 -0.847323,-0.95392 z m 7.510828,-2.43779 c 0,-1.98203 0.06487,-2.79286 0.144154,-1.80185 0.07928,0.99102 0.07928,2.61268 0,3.60369 -0.07928,0.99102 -0.144154,0.18019 -0.144154,-1.80184 z M 64.737159,122.73 c -0.468427,-0.67243 -0.455107,-0.68742 0.142183,-0.16007 0.6273,0.55386 0.82679,0.90201 0.516846,0.90201 -0.0782,0 -0.374764,-0.33387 -0.659029,-0.74194 z m -3.38929,-4.6636 c -0.468427,-0.67243 -0.455107,-0.68742 0.142183,-0.16007 0.362465,0.32003 0.659028,0.6539 0.659028,0.74194 0,0.34894 -0.309248,0.12435 -0.801211,-0.58187 z m 14.076753,-2.43779 c 0.0042,-0.93271 0.0813,-1.26436 0.171376,-0.73699 0.09008,0.52738 0.08666,1.29051 -0.0076,1.69586 -0.09426,0.40534 -0.167956,-0.0262 -0.163776,-0.95887 z m -19.455406,-4.83348 c -0.515927,-0.64182 -0.54697,-0.87139 -0.152513,-1.12788 0.272397,-0.17713 0.367799,-0.16386 0.212004,0.0295 -0.155794,0.19335 -0.0024,0.70089 0.340808,1.12788 0.343238,0.42699 0.539337,0.77634 0.435775,0.77634 -0.103561,0 -0.479795,-0.36262 -0.836074,-0.80583 z m 19.737024,-0.0171 c 0,-0.21942 0.167524,-0.51551 0.372274,-0.65797 0.213473,-0.14853 0.276607,0.0216 0.148004,0.39894 -0.250353,0.73449 -0.520278,0.86887 -0.520278,0.25903 z m 1.129763,-2.14484 c 0.221698,-0.46636 0.48782,-0.84793 0.591382,-0.84793 0.103561,0 0.0069,0.38157 -0.214794,0.84793 -0.221698,0.46636 -0.487819,0.84793 -0.591381,0.84793 -0.103562,0 -0.0069,-0.38157 0.214793,-0.84793 z m 1.129764,-2.11982 c 0.221698,-0.46636 0.487819,-0.84793 0.591381,-0.84793 0.103562,0 0.0069,0.38157 -0.214793,0.84793 -0.221698,0.46636 -0.48782,0.84793 -0.591382,0.84793 -0.103561,0 -0.0069,-0.38157 0.214794,-0.84793 z m -0.424624,-4.13364 c -0.468426,-0.67243 -0.455106,-0.68743 0.142183,-0.16007 0.362466,0.32003 0.659029,0.6539 0.659029,0.74193 0,0.34894 -0.309249,0.12435 -0.801212,-0.58186 z"
         id="path40" /><path
         style="fill:#72a687"
         d="m 84.273612,77.446305 c -2.226575,-1.272543 -4.048319,-2.40901 -4.048319,-2.525481 0,-0.116471 1.86411,0.840731 4.142466,2.127116 2.278356,1.286386 4.142465,2.43268 4.142465,2.547322 0,0.28824 0.24681,0.41343 -4.236612,-2.148957 z m -5.55467,-1.009289 c 0,-0.219418 0.167524,-0.515502 0.372275,-0.657964 0.213472,-0.148531 0.276606,0.02165 0.148003,0.398942 -0.250352,0.734481 -0.520278,0.868865 -0.520278,0.259022 z"
         id="path39" /><path
         style="fill:#c69641"
         d="m 64.940987,92.588247 -3.045204,-0.701588 0.331509,-1.27189 c 0.182331,-0.699539 0.404823,-1.653457 0.494429,-2.119817 0.787151,-4.0968 2.261034,-10.387103 2.433806,-10.387103 0.118341,0 0.819149,3.434103 1.557352,7.631341 0.738202,4.197238 1.326689,7.613185 1.307749,7.590995 -0.01894,-0.0222 -1.404779,-0.356065 -3.079641,-0.741938 z"
         id="path38" /><path
         style="fill:#8e986e"
         d="M 93.353442,77.777769 C 93.230747,77.416616 88.858293,74.591274 85.497522,72.70152 84.772591,72.293893 84.094733,71.853763 83.991171,71.723453 83.88761,71.593143 82.646197,70.76492 81.232477,69.882958 78.78432,68.355653 78.443875,67.87814 79.65988,67.677217 c 1.365857,-0.225685 10.19873,-3.738101 10.445076,-4.153513 0.152171,-0.256606 0.279269,-0.300108 0.282441,-0.09667 0.0032,0.203436 0.269525,0.123446 0.591897,-0.177756 0.322371,-0.301203 0.542668,-0.372259 0.489549,-0.157903 -0.118831,0.479521 1.898545,4.954268 2.395163,5.312717 0.19765,0.142661 0.342618,0.382436 0.322152,0.532834 -0.0636,0.467354 1.932956,4.711203 2.288076,4.8635 0.18492,0.0793 -0.109999,0.539342 -0.655375,1.022304 -0.545377,0.482962 -1.292634,1.435406 -1.660571,2.116543 -0.367936,0.681136 -0.730117,1.05846 -0.804846,0.838496 z"
         id="path37" /><path
         style="fill:#96a756"
         d="m 38.540743,76.623977 c 0.0021,-1.399079 0.07242,-1.920317 0.156232,-1.158306 0.08381,0.76201 0.08208,1.906711 -0.0038,2.54378 -0.08593,0.637069 -0.154502,0.0136 -0.152389,-1.385474 z M 27.789836,70.176655 c 0.468443,-0.101409 1.146301,-0.09756 1.506352,0.0086 0.36005,0.106115 -0.02322,0.189086 -0.851714,0.18438 -0.828493,-0.0047 -1.12308,-0.09153 -0.654638,-0.192936 z"
         id="path36" /><path
         style="fill:#6ca283"
         d="m 81.731645,98.298025 c 0,-0.088 0.296562,-0.42191 0.659028,-0.74194 0.597289,-0.52735 0.610609,-0.51236 0.142183,0.16007 -0.491963,0.70622 -0.801211,0.9308 -0.801211,0.58187 z m 1.698894,-2.5435 c 0.35599,-0.61165 0.718459,-1.1121 0.805487,-1.1121 0.272416,0 -0.604387,1.63394 -1.039118,1.93642 -0.227493,0.15829 -0.12236,-0.21266 0.233631,-0.82432 z m 2.636114,-4.239629 c 0.35599,-0.61166 0.71846,-1.112108 0.805488,-1.112108 0.272415,0 -0.604387,1.633944 -1.039118,1.936423 -0.227494,0.158286 -0.12236,-0.212655 0.23363,-0.824315 z m 2.636115,-4.239634 c 0.35599,-0.61166 0.718459,-1.112108 0.805487,-1.112108 0.272416,0 -0.604387,1.633944 -1.039118,1.936423 -0.227493,0.158286 -0.12236,-0.212655 0.233631,-0.824315 z m 2.674195,-4.305065 c 0.72235,-1.241135 0.799694,-1.10217 -1.26624,-2.275071 -0.880274,-0.499761 -1.600499,-0.998098 -1.600499,-1.107415 0,-0.109317 0.921977,0.310306 2.048837,0.932496 l 2.048836,1.131255 -0.756422,1.195937 c -0.940099,1.486337 -1.326264,1.586271 -0.474512,0.122798 z M 77.801685,79.255464 c 0.14142,-0.418122 0.351993,-0.653421 0.46794,-0.522889 0.115946,0.130533 2.39e-4,0.472633 -0.257128,0.760221 -0.371924,0.415598 -0.415181,0.3669 -0.210812,-0.237332 z"
         id="path35" /><path
         style="fill:#a77474"
         d="m 29.315334,67.219149 c 0.271849,-0.122471 0.596656,-0.107409 0.721793,0.03347 0.125137,0.14088 -0.09728,0.241083 -0.494272,0.222674 -0.438703,-0.02034 -0.527938,-0.120804 -0.227521,-0.256144 z m -2.101547,-5.645873 c 0,-0.816129 0.0775,-1.15 0.172222,-0.741936 0.09472,0.408065 0.09472,1.075808 0,1.483872 -0.09472,0.408065 -0.172222,0.07419 -0.172222,-0.741936 z"
         id="path34" /><path
         style="fill:#08fe89"
         d="m 68.864896,128.1637 c -0.130565,-0.41167 -2.380101,-3.46577 -4.173848,-5.66666 -0.569589,-0.69887 -1.036349,-1.38547 -1.037243,-1.52577 -8.95e-4,-0.1403 -0.763485,-1.20101 -1.694645,-2.35713 -0.93116,-1.15612 -1.693019,-2.20552 -1.693019,-2.33199 0,-0.12647 -0.635491,-1.01791 -1.412204,-1.98097 -0.776712,-0.96306 -1.778498,-2.31559 -2.226191,-3.00562 -0.803943,-1.23911 -0.805501,-1.27593 -0.126275,-2.98389 0.378241,-0.95111 0.589193,-1.8402 0.468781,-1.97576 -0.120411,-0.13556 -0.05526,-0.24647 0.14477,-0.24647 0.367477,0 1.486004,-2.90958 1.34462,-3.4977 -0.04204,-0.17488 0.05898,-0.31797 0.224496,-0.31797 0.322192,0 1.409482,-2.966805 1.281855,-3.497705 -0.04204,-0.17489 0.05898,-0.31797 0.224496,-0.31797 0.309579,0 1.410941,-2.95476 1.291544,-3.46498 -0.03671,-0.15688 0.440182,-0.12157 1.059765,0.0785 0.619584,0.20005 2.258842,0.47645 3.642796,0.61423 1.383954,0.13779 2.948602,0.49664 3.476996,0.79745 1.728821,0.98422 2.79152,1.74793 3.723647,2.67599 0.504436,0.50224 1.357765,1.169985 1.896288,1.483875 1.976984,1.15235 4.431691,3.74195 3.903912,4.11846 -0.20657,0.14736 -1.140748,1.69881 -2.075952,3.44766 l -1.70037,3.17972 0.05442,8.58533 0.05442,8.58533 -3.26376,-7e-5 c -1.795069,-4e-5 -3.320249,-0.17818 -3.38929,-0.39587 z"
         id="path33" /><path
         style="fill:#f28814"
         d="m 72.378543,61.558804 c -1.726672,-1.15794 -3.251852,-2.113424 -3.38929,-2.123298 -0.137438,-0.0099 -0.673548,-0.616348 -1.191356,-1.347718 -0.517808,-0.731371 -1.610962,-2.169335 -2.429231,-3.195475 -0.818268,-1.026141 -1.57328,-2.279807 -1.677803,-2.785925 -0.237649,-1.150733 -0.174723,-5.454616 0.112633,-7.703629 0.635623,-4.974767 1.335747,-10.848947 1.515923,-12.718902 0.409011,-4.244911 1.312422,-11.059207 1.564059,-11.797457 0.141921,-0.416368 2.084709,-1.78839 4.317306,-3.048939 3.76977,-2.128454 4.273213,-2.247793 4.438949,-1.052232 0.03691,0.266246 1.726246,5.292836 2.351015,6.995396 0.256701,0.69954 0.530091,1.647036 0.607533,2.105547 0.07744,0.45851 0.394374,1.26934 0.704295,1.801844 0.309921,0.532504 0.486691,0.968188 0.392823,0.968188 -0.252941,0 2.02924,6.899013 2.488074,7.521425 0.216463,0.293634 0.299925,0.53388 0.18547,0.53388 -0.278945,0 1.95076,6.843326 2.450644,7.521424 0.216464,0.293634 0.295682,0.533881 0.176041,0.533881 -0.195348,0 0.787715,3.177281 2.033226,6.571432 0.256702,0.69954 0.519685,1.558066 0.584407,1.907836 0.06472,0.349769 0.534872,1.829065 1.044777,3.287323 1.042943,2.982671 1.092588,2.87706 -1.842459,3.919508 -0.828493,0.294258 -1.68086,0.689424 -1.894148,0.878147 -0.246452,0.218066 -0.641781,-0.655288 -1.084625,-2.39613 -0.383256,-1.506594 -0.842801,-2.840827 -1.021212,-2.964963 -0.507613,-0.353189 -4.473239,1.188282 -4.473239,1.738784 0,0.270681 0.332482,1.580097 0.738849,2.909813 0.548321,1.794216 0.621155,2.46548 0.282441,2.603085 -1.253919,0.509412 -3.757755,1.469695 -3.798899,1.456972 -0.02574,-0.008 -1.459531,-0.961877 -3.186203,-2.119817 z"
         id="path32" /><path
         style="fill:#679e7d"
         d="m 79.653421,98.302155 c -0.822066,-0.49718 -1.580454,-1.01447 -1.685307,-1.14952 -0.104852,-0.13506 -1.122696,-0.8028 -2.261874,-1.48387 -1.139178,-0.68108 -2.180117,-1.40719 -2.313198,-1.61358 -0.133081,-0.20639 -0.0037,-1.01722 0.287495,-1.801844 0.291203,-0.784625 0.400087,-1.429511 0.241965,-1.433082 -0.158122,-0.0036 -0.111055,-0.146658 0.104592,-0.317973 0.329488,-0.261751 4.169043,-10.963645 4.493273,-12.523986 0.05787,-0.278518 0.327258,-1.109773 0.598631,-1.847233 l 0.493404,-1.340837 6.049409,3.402446 c 3.327175,1.871345 6.116575,3.472457 6.198666,3.558026 0.08209,0.08557 -0.299204,0.918503 -0.847323,1.850963 -0.548118,0.93246 -0.996578,1.785035 -0.996578,1.89461 0,0.109576 -0.387232,0.669622 -0.860515,1.244547 -0.473283,0.574926 -1.108774,1.576161 -1.412204,2.224968 -0.303429,0.648807 -0.926762,1.639419 -1.385184,2.20136 -0.458422,0.561941 -1.05055,1.573763 -1.31584,2.248495 -0.26529,0.67473 -0.587922,1.22678 -0.71696,1.22678 -0.306984,0 -2.404037,3.52036 -2.312144,3.88144 0.180427,0.70895 -1.005744,0.59753 -2.360308,-0.22171 z"
         id="path31" /><path
         style="fill:#2dd97b"
         d="m 116.75431,81.075593 v -9.327195 h 20.71232 20.71233 v 9.327195 9.327195 h -20.71233 -20.71232 z"
         id="path30" /><path
         style="fill:#90a24d"
         d="m 23.344801,74.186188 c 1.560567,-1.871879 1.898677,-2.208466 1.898677,-1.890117 0,0.06804 -0.804956,0.974261 -1.788792,2.013826 l -1.788792,1.890117 z"
         id="path29" /><path
         style="fill:#a26c6c"
         d="m 31.198273,67.219149 c 0.271849,-0.122471 0.596656,-0.107409 0.721793,0.03347 0.125137,0.14088 -0.09728,0.241083 -0.494272,0.222674 -0.438703,-0.02034 -0.527938,-0.120804 -0.227521,-0.256144 z m 1.506351,0 c 0.271849,-0.122471 0.596656,-0.107409 0.721793,0.03347 0.125137,0.14088 -0.09728,0.241083 -0.494272,0.222674 -0.438703,-0.02034 -0.527938,-0.120804 -0.227521,-0.256144 z m 4.589663,0.122993 c 0,-0.09164 0.262998,-0.280241 0.584441,-0.419108 0.335135,-0.144781 0.486296,-0.07371 0.354363,0.166623 -0.221155,0.402851 -0.938804,0.595858 -0.938804,0.252485 z m 1.782516,-1.157877 c 0.255452,-0.289744 0.559323,-0.420008 0.67527,-0.289475 0.115946,0.130532 -0.09306,0.367596 -0.464459,0.526808 -0.536712,0.230078 -0.579968,0.18138 -0.210811,-0.237333 z m 11.115615,-2.378838 c 0.983836,-0.08734 2.593749,-0.08734 3.577584,0 0.983836,0.08734 0.178879,0.158792 -1.788792,0.158792 -1.967671,0 -2.772627,-0.07146 -1.788792,-0.158792 z m 14.565366,-1.914178 c 0.410569,-0.613872 0.410569,-0.87 0,-1.483872 -0.472591,-0.706606 -0.461978,-0.706606 0.22288,0 0.707743,0.730217 0.707743,0.753655 0,1.483872 -0.684858,0.706606 -0.695471,0.706606 -0.22288,0 z M 27.156148,59.630111 c 0.01807,-0.493893 0.107305,-0.594354 0.227522,-0.256145 0.108785,0.306049 0.09541,0.671717 -0.02973,0.812597 -0.125137,0.140879 -0.214143,-0.109524 -0.197791,-0.556452 z m 35.350902,-1.91359 c -0.432905,-0.955315 -0.722508,-1.809656 -0.643562,-1.898533 0.07895,-0.08888 0.512227,0.692744 0.962846,1.736938 1.026313,2.378212 0.748827,2.518653 -0.319284,0.161595 z M 31.934859,56.414299 c 0.218836,-0.246366 0.620172,-0.364521 0.891858,-0.262566 0.282044,0.105842 0.11134,0.298021 -0.397884,0.447938 -0.626395,0.184414 -0.773427,0.129237 -0.493974,-0.185372 z m 5.259005,-2.101009 c 0.255452,-0.289744 0.559323,-0.420008 0.67527,-0.289476 0.115946,0.130533 -0.09306,0.367597 -0.464458,0.526808 -0.536713,0.230079 -0.579969,0.181381 -0.210812,-0.237332 z m 23.855184,-1.466594 c 0.01807,-0.493893 0.107305,-0.594354 0.227521,-0.256144 0.108785,0.306048 0.09541,0.671717 -0.02973,0.812596 -0.125137,0.14088 -0.214143,-0.109523 -0.197791,-0.556452 z m -21.871822,-0.15163 c 0,-0.219418 0.167523,-0.515502 0.372274,-0.657965 0.213473,-0.148531 0.276607,0.02165 0.148003,0.398943 -0.250352,0.734481 -0.520277,0.868865 -0.520277,0.259022 z"
         id="path28" /><path
         style="fill:#8ea049"
         d="m 25.80836,71.324435 c 0.374888,-0.46636 0.766347,-0.847927 0.869908,-0.847927 0.103562,0 -0.118432,0.381567 -0.49332,0.847927 -0.374888,0.466359 -0.766347,0.847926 -0.869909,0.847926 -0.103561,0 0.118433,-0.381567 0.493321,-0.847926 z"
         id="path27" /><path
         style="fill:#9ccd0b"
         d="m 101.87909,71.160497 c 0.62137,-0.318538 1.55342,-0.696173 2.07123,-0.839187 0.75613,-0.208837 0.71906,-0.146011 -0.18829,0.319135 -0.62137,0.318539 -1.55343,0.696173 -2.07124,0.839188 -0.75612,0.208836 -0.71906,0.146011 0.1883,-0.319136 z m -2.275011,-0.712196 c -0.136526,-0.248694 -0.167462,-0.543097 -0.06875,-0.65423 0.09871,-0.111133 0.27983,0.09234 0.402478,0.45217 0.254643,0.747069 0.0376,0.878477 -0.33373,0.20206 z m 13.694851,-2.377437 c 0.1607,-0.887338 0.25539,-0.993948 0.36514,-0.411076 0.0815,0.432833 -0.0161,0.971954 -0.21697,1.198045 -0.2358,0.26546 -0.28829,-0.01331 -0.14817,-0.786969 z m -3.39381,0.420175 c 0.27184,-0.122471 0.59665,-0.107409 0.72179,0.03347 0.12514,0.140879 -0.0973,0.241082 -0.49427,0.222673 -0.43871,-0.02034 -0.52794,-0.120804 -0.22752,-0.256144 z m 3.9099,-5.857854 c 0.008,-0.69954 0.0921,-0.934388 0.18756,-0.521886 0.0955,0.412503 0.0892,0.984854 -0.014,1.271891 -0.10315,0.287037 -0.18128,-0.05047 -0.1736,-0.750005 z M 96.694732,60.672741 c 0.255452,-0.289744 0.559324,-0.420008 0.67527,-0.289476 0.115947,0.130533 -0.09306,0.367597 -0.464458,0.526808 -0.536712,0.230079 -0.579969,0.181381 -0.210812,-0.237332 z m 3.113126,-1.643245 c 0.310682,-0.226039 0.734342,-0.410979 0.941472,-0.410979 0.20712,0 0.12239,0.18494 -0.1883,0.410979 -0.31068,0.226039 -0.734343,0.410979 -0.941466,0.410979 -0.207123,0 -0.122391,-0.18494 0.188294,-0.410979 z m 1.782512,-0.900535 c 0.25545,-0.289745 0.55932,-0.420009 0.67527,-0.289476 0.11595,0.130533 -0.0931,0.367596 -0.46446,0.526808 -0.53671,0.230078 -0.57996,0.181381 -0.21081,-0.237332 z m 12.58728,-0.795319 c 0,-0.582949 0.0855,-0.821429 0.18995,-0.529954 0.10447,0.291475 0.10447,0.768434 0,1.059909 -0.10447,0.291474 -0.18995,0.05299 -0.18995,-0.529955 z m -9.19799,-0.900535 c 0.25545,-0.289744 0.55932,-0.420008 0.67527,-0.289476 0.11595,0.130533 -0.0931,0.367597 -0.46446,0.526808 -0.53671,0.230079 -0.57997,0.181381 -0.21081,-0.237332 z m 2.25953,-1.27189 c 0.25545,-0.289745 0.55932,-0.420009 0.67527,-0.289476 0.11594,0.130533 -0.0931,0.367597 -0.46446,0.526808 -0.53671,0.230079 -0.57997,0.181381 -0.21081,-0.237332 z m 1.53616,-0.66097 c 0.27185,-0.122471 0.59666,-0.107409 0.7218,0.03347 0.12513,0.14088 -0.0973,0.241083 -0.49428,0.222674 -0.4387,-0.02034 -0.52793,-0.120804 -0.22752,-0.256144 z m 2.25953,-0.423964 c 0.27185,-0.12247 0.59666,-0.107408 0.72179,0.03347 0.12514,0.14088 -0.0973,0.241083 -0.49427,0.222674 -0.4387,-0.02034 -0.52794,-0.120804 -0.22752,-0.256144 z m 1.48281,-0.415131 c 0.25891,-0.117612 0.68257,-0.117612 0.94147,0 0.25891,0.117613 0.0471,0.213842 -0.47073,0.213842 -0.51781,0 -0.72964,-0.09623 -0.47074,-0.213842 z"
         id="path26" /><path
         style="fill:#9f6767"
         d="m 36.865669,67.73283 c -0.103884,-0.116952 -2.210615,-0.328757 -4.681625,-0.470677 -2.47101,-0.14192 -4.518935,-0.287578 -4.550946,-0.323685 -0.223305,-0.251882 -0.258843,-8.635619 -0.03595,-8.480037 0.155342,0.108429 0.282441,-0.0049 0.282441,-0.251841 0,-0.246941 0.127098,-0.402826 0.282441,-0.346411 0.557039,0.2023 4.989788,-1.517762 4.989788,-1.936212 0,-0.235125 0.09896,-0.316095 0.2199,-0.179935 0.273783,0.308226 4.040522,-1.126111 5.052114,-1.923795 0.732487,-0.577597 3.181199,-4.117936 2.848213,-4.117936 -0.09318,0 0.287048,-0.559322 0.844961,-1.242938 1.13012,-1.384747 0.937641,-1.377323 7.228086,-0.278817 3.510294,0.613005 6.603548,1.106765 8.096637,1.292423 3.06746,0.381423 3.517552,0.826536 3.784156,3.742293 0.218375,2.388295 1.538666,5.454695 2.895008,6.72371 1.036524,0.969788 1.130392,1.214025 0.694069,1.805901 -0.327146,0.443777 -0.432999,1.285109 -0.30104,2.392707 0.17298,1.451905 0.109706,1.677002 -0.421633,1.499948 -1.092783,-0.364138 -2.467875,-0.6686 -3.826152,-0.847154 -0.724931,-0.0953 -2.499411,-0.408101 -3.943288,-0.69512 -3.844783,-0.764279 -11.366594,-0.289765 -14.509513,0.915335 -2.35604,0.903384 -4.094977,1.898489 -4.544776,2.600745 -0.117709,0.183775 -0.299012,0.238448 -0.402895,0.121496 z"
         id="path25" /><path
         style="fill:#875c80"
         d="m 11.992296,133.78141 c 0.271849,-0.12247 0.596656,-0.10741 0.721793,0.0335 0.125137,0.14088 -0.09728,0.24108 -0.494271,0.22267 -0.438704,-0.0203 -0.527938,-0.1208 -0.227522,-0.25614 z m 4.142466,-0.42397 c 0.271849,-0.12247 0.596656,-0.1074 0.721793,0.0335 0.125137,0.14088 -0.09728,0.24109 -0.494272,0.22268 -0.438703,-0.0203 -0.527938,-0.12081 -0.227521,-0.25615 z m 7.908343,-0.84792 c 0.271849,-0.12247 0.596656,-0.10741 0.721793,0.0335 0.125137,0.14088 -0.09728,0.24108 -0.494271,0.22267 -0.438704,-0.0203 -0.527939,-0.1208 -0.227522,-0.25614 z m 7.908343,-0.84793 c 0.271849,-0.12247 0.596656,-0.10741 0.721793,0.0335 0.125137,0.14088 -0.09728,0.24108 -0.494271,0.22267 -0.438703,-0.0203 -0.527938,-0.1208 -0.227522,-0.25614 z"
         id="path24" /><path
         style="fill:#98cb00"
         d="m 100.15563,71.687766 c -0.0159,-0.08324 -0.0836,-0.437525 -0.15049,-0.787295 -0.06692,-0.34977 -0.503992,-1.589863 -0.971254,-2.755762 -0.467263,-1.165899 -0.889219,-2.329768 -0.937681,-2.586376 -0.04846,-0.256607 -0.501059,-1.43796 -1.005771,-2.625229 -0.504712,-1.187269 -0.819989,-2.126734 -0.700616,-2.087699 0.412254,0.134806 4.547802,-1.972968 4.547802,-2.317888 0,-0.190271 0.1271,-0.302966 0.28244,-0.250434 0.47247,0.159778 4.6132,-1.92115 4.6132,-2.318367 0,-0.204033 0.16946,-0.253059 0.37659,-0.108946 0.20712,0.144114 0.37659,0.05998 0.37659,-0.18696 0,-0.246942 0.12709,-0.415281 0.28244,-0.374089 0.15534,0.04119 1.04503,-0.175141 1.97708,-0.480743 0.93206,-0.305602 2.34281,-0.6264 3.135,-0.712886 0.7922,-0.08649 1.78707,-0.366143 2.21083,-0.621463 0.43318,-0.260997 0.67052,-0.282147 0.54215,-0.04831 -0.12558,0.228747 -0.30648,1.630962 -0.40201,3.116033 -0.0955,1.485071 -0.29923,4.41718 -0.45267,6.515799 -0.15344,2.098619 -0.28955,4.316035 -0.30246,4.927592 -0.0129,0.611556 -0.19295,1.046369 -0.40008,0.96625 -0.20712,-0.08012 -1.27043,-0.232411 -2.36291,-0.338428 -1.56932,-0.152289 -2.75525,0.102525 -5.64882,1.213729 -2.01437,0.773567 -3.95905,1.542912 -4.32152,1.709655 -0.36246,0.166744 -0.67199,0.235063 -0.68784,0.15182 z"
         id="path23" /><path
         style="fill:#fe3232"
         d="m 161.94484,103.12169 v -8.903235 h 20.33574 20.33574 v 8.903235 8.90324 h -20.33574 -20.33574 z"
         id="path22" /><path
         style="fill:#84597d"
         d="m 14.274397,171.90976 c -0.468426,-0.67243 -0.455106,-0.68743 0.142183,-0.16007 0.362466,0.32002 0.659028,0.65389 0.659028,0.74193 0,0.34894 -0.309248,0.12435 -0.801211,-0.58186 z m -6.7590469,-8.05531 -0.912967,-1.1659 1.0356163,1.02782 c 0.9679395,0.96066 1.2083152,1.30398 0.9129671,1.30398 -0.067457,0 -0.5334846,-0.52465 -1.0356164,-1.1659 z m -4.5078124,-6.92571 c -0.2311918,-0.48634 -0.3494144,-0.9641 -0.2627168,-1.0617 0.086698,-0.0976 0.3509913,0.3003 0.5873194,0.88423 0.5189647,1.2823 0.266282,1.42044 -0.3246026,0.17747 z M 20.277227,132.93348 c 0.271849,-0.12247 0.596656,-0.10741 0.721793,0.0335 0.125137,0.14088 -0.09728,0.24108 -0.494271,0.22268 -0.438703,-0.0203 -0.527938,-0.12081 -0.227522,-0.25615 z"
         id="path21" /><path
         style="fill:#2be742"
         d="m 69.740297,89.554861 c 0,-0.58295 0.08548,-0.821429 0.189946,-0.529955 0.10447,0.291475 0.10447,0.768434 0,1.059909 -0.104471,0.291475 -0.189946,0.05299 -0.189946,-0.529954 z m 2.588186,-4.451616 c 0,-0.23318 0.164275,-0.710139 0.365055,-1.059908 0.20078,-0.34977 0.365055,-0.445162 0.365055,-0.211982 0,0.23318 -0.164275,0.710139 -0.365055,1.059908 -0.20078,0.34977 -0.365055,0.445162 -0.365055,0.211982 z m 0.753176,-2.119817 c 0,-0.23318 0.164274,-0.710139 0.365054,-1.059908 0.200781,-0.34977 0.365055,-0.445162 0.365055,-0.211982 0,0.23318 -0.164274,0.710139 -0.365055,1.059908 -0.20078,0.34977 -0.365054,0.445162 -0.365054,0.211982 z m -4.877444,-2.155147 c 0.01807,-0.493893 0.107305,-0.594354 0.227522,-0.256145 0.108785,0.306049 0.09541,0.671717 -0.02973,0.812597 -0.125137,0.140879 -0.214143,-0.109524 -0.197792,-0.556452 z m 5.630619,0.03533 c 0,-0.23318 0.164275,-0.710139 0.365055,-1.059908 0.20078,-0.34977 0.365055,-0.445162 0.365055,-0.211982 0,0.23318 -0.164275,0.710139 -0.365055,1.059908 -0.20078,0.34977 -0.365055,0.445162 -0.365055,0.211982 z"
         id="path20" /><path
         style="fill:#81557b"
         d="m 24.866891,159.93279 c 0.221698,-0.46636 0.487819,-0.84793 0.591381,-0.84793 0.103561,0 0.0069,0.38157 -0.214794,0.84793 -0.221698,0.46636 -0.487819,0.84793 -0.591381,0.84793 -0.103562,0 -0.0069,-0.38157 0.214794,-0.84793 z m 7.908343,-22.869 c 0,-0.21942 0.167523,-0.5155 0.372274,-0.65797 0.213473,-0.14853 0.276607,0.0216 0.148003,0.39895 -0.250352,0.73448 -0.520277,0.86886 -0.520277,0.25902 z m -26.4615682,-0.5016 c 0.255452,-0.28974 0.5593236,-0.42 0.6752701,-0.28947 0.1159465,0.13053 -0.09306,0.3676 -0.4644583,0.52681 -0.5367123,0.23008 -0.5799685,0.18138 -0.2108118,-0.23734 z m 3.1131256,-1.40143 c 0,-0.11659 0.338929,-0.41619 0.7531756,-0.66577 0.414247,-0.24959 0.753176,-0.35841 0.753176,-0.24182 0,0.11659 -0.338929,0.41619 -0.753176,0.66578 -0.4142466,0.24959 -0.7531756,0.3584 -0.7531756,0.24181 z"
         id="path19" /><path
         style="fill:#b74d4d"
         d="m 113.06184,105.02953 c 0.008,-0.69954 0.0921,-0.93439 0.18756,-0.52189 0.0955,0.41251 0.0892,0.98486 -0.0139,1.27189 -0.10316,0.28704 -0.18128,-0.0505 -0.17361,-0.75 z"
         id="path18" /><path
         style="fill:#481cea"
         d="m 116.75431,124.74383 v -9.3272 h 20.71232 20.71233 v 9.3272 9.32719 h -20.71233 -20.71232 z"
         id="path17" /><path
         style="fill:#7e5077"
         d="m 12.786281,169.81947 c -1.329911,-1.55773 -3.5195394,-4.11408 -4.8658407,-5.68079 -2.7302868,-3.17727 -3.8508777,-4.62985 -3.5716802,-4.62985 0.1027542,0 -1.155689,-3.01837 -2.7965405,-6.70749 -2.4729587,-5.55994 -3.7996492,-9.67303 -3.7996492,-11.77991 0,-0.0557 0.5931257,-0.32161 1.3180572,-0.59096 0.7249314,-0.26934 1.3180572,-0.66571 1.3180572,-0.8808 0,-0.2151 0.1270983,-0.35198 0.28244081,-0.30418 0.52275129,0.16085 3.10684909,-0.99667 3.10684909,-1.39168 0,-0.21509 0.1270984,-0.35197 0.2824409,-0.30417 0.573427,0.17644 3.1068491,-1.016 3.1068491,-1.46234 0,-0.25396 0.102834,-0.34597 0.2285199,-0.20448 0.125686,0.1415 1.1085469,-0.18088 2.1841355,-0.7164 1.7268959,-0.85979 5.1969029,-1.78829 5.9593859,-1.5946 0.151471,0.0385 1.846116,-0.12466 3.765877,-0.36252 4.591487,-0.56889 5.824004,-0.69459 10.080761,-1.02806 1.967671,-0.15414 4.140555,-0.44816 4.828631,-0.65337 0.973897,-0.29046 1.165953,-0.25768 0.866934,0.14794 -0.496839,0.67397 -3.088497,7.48277 -2.848192,7.48277 0.100481,0 -0.0671,0.42927 -0.372393,0.95392 -0.504185,0.86645 -2.453578,6.29274 -2.627323,7.31337 -0.03969,0.23318 -0.281816,0.85323 -0.538047,1.37788 -0.25623,0.52466 -0.354428,0.95392 -0.218218,0.95392 0.13621,0 0.07337,0.23848 -0.139644,0.52995 -0.213014,0.29148 -0.479038,1.10231 -0.591165,1.80185 -0.112126,0.69954 -0.451646,2.2735 -0.75449,3.4977 -0.302843,1.22419 -0.508181,2.2258 -0.456307,2.2258 0.05187,0 -0.641323,0.90207 -1.540437,2.00459 -0.899115,1.10252 -1.634754,2.11878 -1.634754,2.25836 0,0.13957 -0.76259,1.18888 -1.694645,2.33179 -0.932054,1.14292 -1.694645,2.19223 -1.694645,2.3318 0,0.13958 -0.76259,1.18889 -1.694645,2.3318 -0.932054,1.14292 -1.694645,2.30025 -1.694645,2.57186 0,0.39178 -0.785521,1.00852 -1.284511,1.00852 -0.05123,0 -1.181256,-1.2745 -2.511167,-2.83222 z"
         id="path16" /><path
         style="fill:#7e9330"
         d="m 22.260507,123.22463 c 0.01807,-0.4939 0.107305,-0.59436 0.227522,-0.25615 0.108785,0.30605 0.09541,0.67172 -0.02973,0.8126 -0.125137,0.14088 -0.214143,-0.10953 -0.197791,-0.55645 z M 36.732071,88.71179 c -0.131933,-0.240328 0.01923,-0.311404 0.354363,-0.166622 0.652407,0.281847 0.771774,0.585729 0.230078,0.585729 -0.194899,0 -0.457898,-0.188598 -0.584441,-0.419107 z m 1.799689,-3.184582 c 0.0028,-1.165899 0.07596,-1.592539 0.162523,-0.948088 0.08656,0.644451 0.08425,1.598369 -0.0051,2.119817 -0.08939,0.521449 -0.160209,-0.0058 -0.157382,-1.171729 z"
         id="path15" /><path
         style="fill:#20e638"
         d="m 69.920502,89.657451 c -0.201983,-1.465745 -0.344709,-2.296095 -0.782805,-4.554206 -0.09048,-0.46636 -0.256259,-1.515669 -0.368402,-2.331799 -0.112143,-0.816129 -0.403732,-2.437789 -0.647975,-3.603689 -0.244244,-1.165899 -0.510312,-4.950623 -0.591264,-8.410497 l -0.147185,-6.29068 1.050987,1.097129 c 0.578043,0.60342 1.187214,1.097128 1.353712,1.097128 0.166499,0 0.759625,0.476959 1.318058,1.059909 0.558432,0.582949 1.151558,1.059908 1.318057,1.059908 0.166498,0 0.759624,0.476959 1.318057,1.059909 0.558433,0.582949 1.151248,1.059908 1.317368,1.059908 0.166119,0 0.648489,0.363376 1.071932,0.807502 0.590146,0.618972 0.683063,0.990161 0.397977,1.589862 -0.204555,0.430299 -0.410206,0.973145 -0.457002,1.206325 -0.201477,1.003953 -0.456266,1.762303 -0.925875,2.755762 -0.27556,0.58295 -0.542813,1.250692 -0.593895,1.483872 -0.05108,0.23318 -0.326505,1.053459 -0.612052,1.822843 -0.863721,2.327231 -2.06668,5.808498 -2.007138,5.808498 0.111979,0 -0.433431,1.715187 -0.77336,2.432037 -0.192004,0.404901 -0.349098,1.013688 -0.349098,1.35286 0,1.366321 -0.685929,0.97902 -0.890097,-0.502581 z"
         id="path14" /><path
         style="fill:#7b912a"
         d="m 35.717326,126.99799 c 0.271849,-0.12247 0.596656,-0.10741 0.721793,0.0335 0.125137,0.14088 -0.09729,0.24109 -0.494271,0.22268 -0.438704,-0.0204 -0.527939,-0.12081 -0.227522,-0.25615 z m 9.673598,-14.12514 c 0.809002,-0.93272 1.555645,-1.69585 1.659207,-1.69585 0.103561,0 -0.473617,0.76313 -1.282619,1.69585 -0.809002,0.93272 -1.555645,1.69586 -1.659206,1.69586 -0.103562,0 0.473616,-0.76314 1.282618,-1.69586 z m 2.071233,-2.27988 c 0,-0.088 0.296563,-0.42191 0.659029,-0.74194 0.597289,-0.52736 0.610609,-0.51236 0.142182,0.16007 -0.491963,0.70622 -0.801211,0.9308 -0.801211,0.58187 z M 36.223985,84.043337 c 0,-0.58295 0.08548,-0.82143 0.189946,-0.529955 0.10447,0.291475 0.10447,0.768434 0,1.059909 -0.10447,0.291475 -0.189946,0.05299 -0.189946,-0.529954 z M 22.230776,75.827962 c 0,-0.08804 0.296563,-0.421909 0.659029,-0.741936 0.597289,-0.527355 0.610609,-0.51236 0.142182,0.16007 -0.491962,0.706216 -0.801211,0.930803 -0.801211,0.581866 z m 41.077798,-4.326876 c 0.01807,-0.493893 0.107305,-0.594354 0.227522,-0.256145 0.108785,0.306049 0.09541,0.671717 -0.02973,0.812597 -0.125137,0.140879 -0.214143,-0.109524 -0.197792,-0.556452 z"
         id="path13" /><path
         style="fill:#788e25"
         d="m 42.943104,115.62861 c 0.486455,-0.58294 0.969197,-1.0599 1.072758,-1.0599 0.103562,0 -0.209715,0.47696 -0.69617,1.0599 -0.486456,0.58295 -0.969197,1.05991 -1.072759,1.05991 -0.103562,0 0.209715,-0.47696 0.696171,-1.05991 z m 6.401992,-7.20737 c 0.486455,-0.58295 0.969197,-1.05991 1.072758,-1.05991 0.103562,0 -0.209715,0.47696 -0.69617,1.05991 -0.486456,0.58295 -0.969197,1.05991 -1.072759,1.05991 -0.103561,0 0.209715,-0.47696 0.696171,-1.05991 z M 24.851152,72.914297 c 1.560567,-1.871879 1.898677,-2.208465 1.898677,-1.890117 0,0.06804 -0.804956,0.974262 -1.788792,2.013826 l -1.788791,1.890117 z"
         id="path12" /><path
         style="fill:#748b1f"
         d="m 22.819218,126.75765 c -0.109375,-0.75783 -0.244152,-2.59852 -0.299505,-4.09041 -0.09934,-2.67738 -0.086,-2.71789 1.02912,-3.12579 2.090673,-0.76473 3.373538,-2.59744 4.136601,-5.90958 1.234947,-5.36039 0.754987,-11.48539 -1.513294,-19.311875 -0.08518,-0.29392 -0.170448,-0.62426 -0.189474,-0.73409 -0.01903,-0.10983 -0.202586,-0.823264 -0.407911,-1.585412 -0.205325,-0.762148 -0.454622,-2.053466 -0.553994,-2.869596 -0.296868,-2.438141 -1.578382,-8.974489 -2.170709,-11.071674 l -0.55258,-1.956461 2.573122,-2.874629 2.573122,-2.87463 2.876095,0.293413 c 3.827212,0.390442 4.628337,0.789952 5.391463,2.688648 0.505348,1.25733 0.646748,2.931205 0.671745,7.95201 0.04015,8.063694 0.01491,7.843323 0.898018,7.843323 1.367676,0 1.57355,-1.360058 1.481927,-9.789995 -0.0487,-4.48102 0.06609,-8.218039 0.259107,-8.435343 0.190602,-0.21458 2.545682,-1.162544 5.233512,-2.106586 l 4.886962,-1.71644 4.182473,0.651159 c 2.300361,0.358137 4.760804,0.715435 5.467652,0.793995 0.706847,0.07856 2.089994,0.284646 3.073658,0.457969 l 1.788481,0.315133 -0.152898,1.753759 c -0.08409,0.964567 -0.271374,2.516893 -0.416179,3.449612 -0.365829,2.356389 -3.495391,13.517875 -4.546962,16.2166 -0.477013,1.224194 -0.749524,2.228729 -0.605579,2.2323 0.143945,0.0036 0.08439,0.146655 -0.132334,0.317975 -0.216729,0.17131 -0.849974,1.51062 -1.407213,2.97624 -0.557238,1.46561 -1.699579,3.802715 -2.538535,5.193555 -0.838956,1.39083 -1.435987,2.52879 -1.326735,2.52879 0.368604,0 -1.091693,1.86179 -5.819393,7.41936 -4.850333,5.70173 -6.259052,7.51095 -6.070165,7.79592 0.06,0.0905 -0.04065,0.28131 -0.223659,0.42397 -0.681426,0.53118 -1.900666,2.86961 -2.566806,4.92298 -0.378233,1.1659 -0.715025,2.16853 -0.748426,2.22807 -0.0434,0.0774 -13.252376,1.37562 -13.996167,1.37562 -0.04712,0 -0.175166,-0.62005 -0.28454,-1.37789 z"
         id="path11" /><path
         style="fill:#ad3434"
         d="m 113.01816,106.69005 c 0.0181,-0.49389 0.1073,-0.59435 0.22752,-0.25614 0.10879,0.30605 0.0954,0.67172 -0.0297,0.8126 -0.12514,0.14087 -0.21414,-0.10953 -0.19779,-0.55646 z"
         id="path10" /><path
         style="fill:#83650a"
         d="m 116.6837,47.716832 c 0.27184,-0.12247 0.59665,-0.107408 0.72179,0.03347 0.12514,0.14088 -0.0973,0.241083 -0.49427,0.222674 -0.43871,-0.02034 -0.52794,-0.120804 -0.22752,-0.256144 z m 3.76587,-0.423963 c 0.27185,-0.122471 0.59666,-0.107409 0.7218,0.03347 0.12513,0.140879 -0.0973,0.241082 -0.49428,0.222673 -0.4387,-0.02034 -0.52793,-0.120804 -0.22752,-0.256143 z m 11.19182,-1.385182 c 0.42077,-0.192038 1.39519,-1.134412 2.16538,-2.094165 0.77018,-0.959753 1.40034,-1.608589 1.40034,-1.441858 0,0.612508 -3.18793,3.938078 -3.75014,3.912057 -0.39314,-0.0182 -0.33359,-0.13962 0.18442,-0.376034 z"
         id="path9" /><path
         style="fill:#7e5f00"
         d="m 110.61851,48.132779 c -0.0974,-0.186072 -0.79828,-3.104674 -1.55741,-6.485782 -0.75912,-3.381108 -1.48247,-6.433645 -1.60743,-6.783415 -0.12497,-0.34977 -0.28828,-0.990923 -0.36292,-1.424785 -0.0747,-0.433862 -0.56536,-2.696993 -1.09048,-5.02918 -0.52511,-2.332187 -0.90461,-4.397536 -0.84332,-4.589664 0.0613,-0.192128 5.95795,3.373518 13.10371,7.923659 7.14575,4.550141 13.5854,8.592128 14.31033,8.982193 2.47087,1.329503 2.5502,1.641388 0.89233,3.507822 -1.56904,1.76643 -2.42752,2.002397 -9.93043,2.729543 -3.31166,0.32095 -9.46607,1.024053 -11.1701,1.276114 -0.86191,0.127494 -1.64683,0.07957 -1.74428,-0.106505 z"
         id="path8" /><path
         style="fill:#456232"
         d="m 117.9138,59.206147 c 0.0181,-0.493893 0.1073,-0.594354 0.22752,-0.256144 0.10879,0.306048 0.0954,0.671717 -0.0297,0.812596 -0.12514,0.14088 -0.21414,-0.109524 -0.19779,-0.556452 z m 0.37659,-5.511524 c 0.0181,-0.493893 0.1073,-0.594354 0.22752,-0.256144 0.10878,0.306048 0.0954,0.671717 -0.0297,0.812596 -0.12514,0.14088 -0.21414,-0.109524 -0.19779,-0.556452 z m 7.05482,-2.16212 c 0.27185,-0.122471 0.59666,-0.107409 0.7218,0.03347 0.12513,0.140879 -0.0973,0.241082 -0.49427,0.222673 -0.43871,-0.02034 -0.52794,-0.120804 -0.22753,-0.256143 z"
         id="path7" /><path
         style="fill:#a11616"
         d="m 113.01816,108.80987 c 0.0181,-0.49389 0.1073,-0.59435 0.22752,-0.25614 0.10879,0.30604 0.0954,0.67171 -0.0297,0.81259 -0.12514,0.14088 -0.21414,-0.10952 -0.19779,-0.55645 z"
         id="path6" /><path
         style="fill:#405e2c"
         d="m 158.96187,62.597855 c 0.0181,-0.493894 0.1073,-0.594354 0.22752,-0.256145 0.10878,0.306049 0.0954,0.671717 -0.0297,0.812597 -0.12514,0.140879 -0.21414,-0.109524 -0.19779,-0.556452 z m 0.37658,-2.543781 c 0.0181,-0.493893 0.10731,-0.594354 0.22753,-0.256144 0.10878,0.306048 0.0954,0.671717 -0.0297,0.812596 -0.12514,0.14088 -0.21415,-0.109524 -0.1978,-0.556452 z m -26.46148,-9.369498 c 0.27185,-0.122471 0.59666,-0.107409 0.72179,0.03347 0.12514,0.140879 -0.0973,0.241083 -0.49427,0.222674 -0.4387,-0.02034 -0.52794,-0.120805 -0.22752,-0.256144 z m 3.86787,-2.798096 c 0.0863,-0.06598 0.49584,-0.399854 0.91009,-0.741936 0.69669,-0.575323 0.71441,-0.566325 0.23633,0.119968 -0.28427,0.408064 -0.69381,0.741936 -0.91009,0.741936 -0.21628,0 -0.32263,-0.05399 -0.23633,-0.119968 z"
         id="path5" /><path
         style="fill:#1f3763"
         d="m 80.084706,60.649871 c -0.275765,-0.774616 -0.638872,-1.78996 -0.806906,-2.25632 -0.52766,-1.464469 -0.41649,-1.682376 1.13226,-2.219372 2.22628,-0.771915 2.277039,-0.740104 2.911066,1.824389 l 0.583663,2.360779 -0.992425,0.465448 c -0.545834,0.255997 -1.077158,0.484356 -1.180719,0.507466 -0.103562,0.02311 -0.403676,0.195914 -0.666921,0.38401 -0.329832,0.235675 -0.634498,-0.09585 -0.980018,-1.0664 z"
         id="path4" /><path
         style="fill:#9c0b0b"
         d="m 112.68526,95.702335 c 0.008,-0.69954 0.0921,-0.93439 0.18755,-0.52189 0.0955,0.4125 0.0892,0.98485 -0.014,1.27189 -0.10316,0.28704 -0.18128,-0.0505 -0.1736,-0.75 z M 99.442803,91.886659 c 0,-0.233179 0.164275,-0.710138 0.365055,-1.059908 0.200782,-0.34977 0.365052,-0.445162 0.365052,-0.211982 0,0.23318 -0.16427,0.710139 -0.365052,1.059909 -0.20078,0.34977 -0.365055,0.445161 -0.365055,0.211981 z m 1.500587,-2.992702 c 0.009,-0.586027 0.67717,-1.6793 0.88443,-1.445969 0.0979,0.110204 -0.0624,0.570406 -0.35611,1.022672 -0.29375,0.452266 -0.53149,0.642749 -0.52832,0.423297 z m -3.018471,-1.03495 c 0.221698,-0.46636 0.487819,-0.847927 0.591381,-0.847927 0.103562,0 0.0069,0.381567 -0.214793,0.847927 -0.221698,0.46636 -0.48782,0.847927 -0.591382,0.847927 -0.103561,0 -0.0069,-0.381567 0.214794,-0.847927 z"
         id="path3" /><path
         style="fill:#375622"
         d="m 117.3086,68.375982 c 0.21049,-0.383425 0.34906,-2.001545 0.79753,-9.312772 0.33257,-5.421749 0.55165,-6.103989 2.0745,-6.460195 2.63029,-0.615242 11.08072,-1.725881 12.68583,-1.667296 0.47319,0.01727 0.95697,-0.252087 1.07507,-0.598573 0.11811,-0.346486 0.36764,-0.523586 0.55452,-0.393556 0.18688,0.13003 0.44108,-0.06075 0.56488,-0.423964 0.12381,-0.36321 0.378,-0.553993 0.56488,-0.423963 0.18689,0.13003 0.44146,-0.06185 0.56572,-0.426399 0.12426,-0.364549 0.44443,-0.662816 0.7115,-0.662816 0.26707,0 0.98062,-0.634752 1.58567,-1.410558 1.00912,-1.293915 1.16604,-1.361264 1.89757,-0.814442 0.43861,0.327864 1.02028,0.639154 1.29259,0.691756 0.27232,0.0526 1.0441,0.422967 1.71508,0.823032 0.67099,0.400066 1.30825,0.719661 1.41615,0.710212 0.10791,-0.0095 0.70103,0.276726 1.31806,0.635945 0.61703,0.359219 1.21016,0.645394 1.31806,0.635945 0.1079,-0.0095 0.70103,0.276726 1.31806,0.635945 0.61703,0.359219 1.21015,0.645394 1.31805,0.635945 0.10791,-0.0094 0.70103,0.276726 1.31806,0.635945 0.61703,0.359219 1.21016,0.645395 1.31806,0.635945 0.1079,-0.0094 0.70103,0.276726 1.31806,0.635945 0.61702,0.359219 1.21015,0.645395 1.31805,0.635945 0.1079,-0.0094 0.70103,0.276726 1.31806,0.635946 0.61703,0.359219 1.16601,0.631618 1.21996,0.605331 0.054,-0.02629 0.56908,0.193797 1.14472,0.489074 0.96631,0.495666 1.03166,0.680131 0.85161,2.403681 -0.10726,1.026748 -0.2717,2.006499 -0.36542,2.177224 -0.0937,0.170724 -0.25878,1.253024 -0.36679,2.40511 -0.10801,1.152085 -0.30739,2.953227 -0.44306,4.002536 -0.13568,1.04931 -0.25499,2.146315 -0.26515,2.43779 -0.0145,0.417275 -4.41372,0.529954 -20.69025,0.529954 -13.02833,0 -20.58964,-0.149629 -20.44963,-0.404672 z"
         id="path2" /><path
         style="fill:#980000"
         d="m 95.854407,111.00154 c -0.581844,-0.56286 -1.707777,-1.37369 -2.502075,-1.80184 -0.794297,-0.42815 -1.446121,-0.92155 -1.448497,-1.09644 -0.0024,-0.17488 -0.244395,-0.31797 -0.53782,-0.31797 -0.293425,0 -0.589987,-0.14309 -0.659028,-0.31797 -0.180544,-0.45733 -3.237853,-2.64977 -3.695039,-2.64977 -0.211565,0 -0.384662,-0.15855 -0.384662,-0.35232 0,-0.19378 -0.421573,-0.60633 -0.936829,-0.91678 -0.723196,-0.43573 -0.841496,-0.69377 -0.518771,-1.13155 0.229932,-0.3119 0.27021,-0.57002 0.08951,-0.57359 -0.180704,-0.004 -0.150923,-0.14666 0.06618,-0.31797 0.711214,-0.56121 2.036413,-2.944705 1.790904,-3.221095 -0.131962,-0.14856 -0.04658,-0.27012 0.18975,-0.27012 0.44291,0 1.794071,-2.50759 1.656214,-3.07373 -0.04258,-0.17489 0.08769,-0.31797 0.289489,-0.31797 0.397149,0 1.720377,-2.552485 1.59345,-3.073738 -0.04259,-0.174885 0.07593,-0.317973 0.263376,-0.317973 0.35274,0 2.352822,-3.585652 2.274963,-4.078446 -0.02419,-0.153103 0.105756,-0.39509 0.288768,-0.537751 0.710314,-0.553698 1.954819,-2.915572 1.697539,-3.221659 -0.366606,-0.436153 1.447608,0.209065 1.959286,0.696813 0.223033,0.212601 0.731046,0.639809 1.128918,0.949349 0.700732,0.545163 0.686796,0.629781 -0.444671,2.699985 -0.642442,1.17545 -1.066828,2.251168 -0.94308,2.390483 0.123747,0.139315 0.03862,0.2533 -0.18917,0.2533 -0.618578,0 -0.436554,2.519279 0.211524,2.927587 1.042266,0.65666 1.825651,-0.0108 3.223024,-2.746012 0.76578,-1.498946 1.47124,-2.725356 1.5677,-2.725356 0.0965,0 2.59174,1.357622 5.54508,3.016937 l 5.36969,3.016931 0.0962,7.688145 c 0.0529,4.22848 0.1877,8.30819 0.29951,9.06602 l 0.20329,1.37789 h -8.24342 c -8.171279,0 -8.252669,-0.009 -9.301309,-1.02339 z"
         id="path1" /></g></g></svg>
