<?xml version="1.0" encoding="UTF-8" standalone="no"?>
<!-- Created with Inkscape (http://www.inkscape.org/) -->

<svg
   width="210mm"
   height="297mm"
   viewBox="0 0 210 297"
   version="1.1"
   id="svg1"
   xml:space="preserve"
   inkscape:version="1.4 (86a8ad7, 2024-10-11)"
   sodipodi:docname="GRUPO1.svg"
   xmlns:inkscape="http://www.inkscape.org/namespaces/inkscape"
   xmlns:sodipodi="http://sodipodi.sourceforge.net/DTD/sodipodi-0.dtd"
   xmlns="http://www.w3.org/2000/svg"
   xmlns:svg="http://www.w3.org/2000/svg"><sodipodi:namedview
     id="namedview1"
     pagecolor="#ffffff"
     bordercolor="#000000"
     borderopacity="0.25"
     inkscape:showpageshadow="2"
     inkscape:pageopacity="0.0"
     inkscape:pagecheckerboard="0"
     inkscape:deskcolor="#d1d1d1"
     inkscape:document-units="mm"
     inkscape:zoom="0.34835028"
     inkscape:cx="-192.33514"
     inkscape:cy="414.81235"
     inkscape:window-width="1366"
     inkscape:window-height="705"
     inkscape:window-x="-8"
     inkscape:window-y="-8"
     inkscape:window-maximized="1"
     inkscape:current-layer="layer1" /><defs
     id="defs1" /><g
     inkscape:label="Capa 1"
     inkscape:groupmode="layer"
     id="layer1"><path
       style="fill:#e2e2e2;fill-opacity:1"
       d="m 72.649554,94.435034 v -14.51395 h 31.947806 31.9478 v 14.51395 14.513956 h -31.9478 -31.947806 z"
       id="path77" /><path
       style="fill:#dbdbdb;fill-opacity:1"
       d="m 124.97785,258.55909 c 0,-0.14018 0.43378,-0.6718 0.96394,-1.18137 0.87364,-0.83969 0.89313,-0.81582 0.20797,0.25488 -0.71958,1.12449 -1.17191,1.48209 -1.17191,0.92649 z"
       id="path76" /><path
       style="fill:#cbcbcb;fill-opacity:1"
       d="M 72.649554,57.981391 V 43.46744 h 31.947806 31.9478 v 14.513951 14.513951 h -31.9478 -31.947806 z"
       id="path75" /><path
       style="fill:#bfbfbf;fill-opacity:1"
       d="m 5.999823,94.435034 v -14.51395 h 29.469096 29.469095 v 14.51395 14.513956 H 35.468919 5.999823 Z"
       id="path72" /><path
       style="fill:#bababa;fill-opacity:1"
       d="M 144.2567,22.202815 V 7.688864 h 29.4691 29.46909 v 14.513951 14.51395 H 173.7258 144.2567 Z"
       id="path71" /><path
       style="fill:#b4b4b4;fill-opacity:1"
       d="m 5.999823,130.21361 v -14.51395 h 29.469096 29.469095 v 14.51395 14.51395 H 35.468919 5.999823 Z"
       id="path70" /><path
       style="fill:#a9a9a9;fill-opacity:1"
       d="m 144.2567,130.21361 v -14.51395 h 29.4691 29.46909 v 14.51395 14.51395 H 173.7258 144.2567 Z"
       id="path69" /><path
       style="fill:#a3a3a3;fill-opacity:1"
       d="m 116.71549,273.41058 c 0,-0.14019 0.43377,-0.6718 0.96394,-1.18137 0.87364,-0.8397 0.89312,-0.81582 0.20797,0.25487 -0.71958,1.12449 -1.17191,1.4821 -1.17191,0.9265 z"
       id="path68" /><path
       style="fill:#9e9e9e;fill-opacity:1"
       d="m 166.56898,252.07102 c -0.19298,-0.38266 0.0281,-0.49584 0.51832,-0.2653 0.95425,0.44877 1.12885,0.93264 0.33652,0.93264 -0.28507,0 -0.66975,-0.3003 -0.85484,-0.66734 z"
       id="path67" /><path
       style="fill:#9b9b9b;fill-opacity:1"
       d="m 175.10286,257.46383 c -0.49646,-0.3932 -0.5644,-0.65852 -0.17022,-0.66473 0.36081,-0.006 0.80922,0.29344 0.99645,0.66473 0.42265,0.83811 0.23197,0.83811 -0.82623,0 z"
       id="path66" /><path
       style="fill:#9a9a9a;fill-opacity:1"
       d="m 118.36796,271.38537 c 0,-0.14018 0.43378,-0.67179 0.96394,-1.18137 0.87364,-0.83969 0.89312,-0.81581 0.20797,0.25488 -0.71958,1.12449 -1.17191,1.4821 -1.17191,0.92649 z"
       id="path65" /><path
       style="fill:#969696;fill-opacity:1"
       d="m 195.48335,293.91747 c -0.49645,-0.39319 -0.56439,-0.65851 -0.17021,-0.66473 0.36081,-0.006 0.80921,0.29345 0.99645,0.66473 0.42265,0.83812 0.23196,0.83812 -0.82624,0 z m -4.40659,-2.70026 c -0.49646,-0.3932 -0.56439,-0.65852 -0.17022,-0.66474 0.36082,-0.006 0.80922,0.29345 0.99645,0.66474 0.42265,0.83811 0.23197,0.83811 -0.82623,0 z m -6.33058,-4.04268 c -0.19298,-0.38267 0.0281,-0.49584 0.51832,-0.26531 0.95425,0.44878 1.12885,0.93265 0.33652,0.93265 -0.28507,0 -0.66975,-0.3003 -0.85484,-0.66734 z"
       id="path64" /><path
       style="fill:#959595;fill-opacity:1"
       d="m 201.42001,297.26572 c -0.0841,-0.26243 -15.25369,-9.63048 -33.71009,-20.8179 -18.45639,-11.18742 -33.68888,-20.50228 -33.84996,-20.69971 -0.16109,-0.19742 1.41294,-4.57449 3.49784,-9.72683 l 3.79073,-9.36789 18.07557,11.08029 18.07557,11.08029 h 12.94761 12.94761 v 19.46444 c 0,16.68846 -0.11565,19.46445 -0.81093,19.46445 -0.44602,0 -0.87979,-0.21472 -0.96395,-0.47714 z m -89.66194,-18.4546 c 0,-0.14019 0.43378,-0.6718 0.96394,-1.18137 0.87364,-0.8397 0.89312,-0.81582 0.20797,0.25487 -0.71958,1.12449 -1.17191,1.4821 -1.17191,0.9265 z"
       id="path63" /><path
       style="fill:#929292;fill-opacity:1"
       d="m 115.88925,273.66545 c 0.54834,-0.74257 1.12092,-1.35013 1.27239,-1.35013 0.15148,0 -0.17323,0.60756 -0.72156,1.35013 -0.54834,0.74257 -1.12092,1.35014 -1.27239,1.35014 -0.15148,0 0.17322,-0.60757 0.72156,-1.35014 z"
       id="path62" /><path
       style="fill:#919191;fill-opacity:1"
       d="m 72.649554,130.88868 v -14.51395 h 31.947806 31.9478 v 14.51395 14.51395 h -31.9478 -31.947806 z"
       id="path61" /><path
       style="fill:#8f8f8f;fill-opacity:1"
       d="m 72.649554,276.36572 v -8.77588 h 24.585961 24.585955 l -1.58905,1.45665 c -0.87397,0.80115 -3.57201,3.82798 -5.99564,6.72629 l -4.40659,5.26965 -7.05811,2.04959 c -6.687705,1.94202 -7.663285,2.04958 -18.590313,2.04958 H 72.649554 Z"
       id="path60" /><path
       style="fill:#888888;fill-opacity:1"
       d="m 134.93617,233.44268 c 0.0264,-0.78641 0.15696,-0.94638 0.33279,-0.40785 0.15912,0.48731 0.13955,1.06956 -0.0435,1.29388 -0.18304,0.22432 -0.31322,-0.1744 -0.28931,-0.88603 z"
       id="path58" /><path
       style="fill:#818181;fill-opacity:1"
       d="m 144.2567,209.19651 v -14.51395 h 29.4691 29.46909 v 14.51395 14.51395 H 173.7258 144.2567 Z"
       id="path57" /><path
       style="fill:#808080;fill-opacity:1"
       d="m 144.2567,174.093 v -14.51395 h 29.4691 29.46909 V 174.093 188.60695 H 173.7258 144.2567 Z"
       id="path56" /><path
       style="fill:#7e7e7e;fill-opacity:1"
       d="m 72.649554,174.093 v -14.51395 h 31.947806 31.9478 v 2.70027 2.70027 h -6.60989 -6.60989 v 4.38794 4.38793 h 6.60989 6.60989 v 7.42575 7.42574 h -31.9478 -31.947806 z"
       id="path55" /><path
       style="fill:#7d7d7d;fill-opacity:1"
       d="m 124.97785,257.88402 c 0,-0.14018 0.43378,-0.67179 0.96394,-1.18136 0.87364,-0.8397 0.89313,-0.81582 0.20797,0.25487 -0.71958,1.12449 -1.17191,1.4821 -1.17191,0.92649 z m 2.47871,-3.79553 c 0.54834,-0.74257 1.12091,-1.35013 1.27239,-1.35013 0.15148,0 -0.17323,0.60756 -0.72156,1.35013 -0.54834,0.74258 -1.12092,1.35014 -1.27239,1.35014 -0.15148,0 0.17322,-0.60756 0.72156,-1.35014 z"
       id="path54" /><path
       style="fill:#7b7b7b;fill-opacity:1"
       d="m 72.649554,245.65015 v -15.86409 h 31.121566 31.12157 l -0.0135,3.54411 c -0.031,8.12699 -3.50857,16.31371 -10.60733,24.97163 l -2.63393,3.21244 H 97.14372 72.649554 Z"
       id="path53" /><path
       style="fill:#7a7a7a;fill-opacity:1"
       d="m 177.0024,249.0901 c -3.04511,-1.89197 -8.62221,-5.23596 -12.39354,-7.43107 -3.77133,-2.19512 -9.03351,-5.32803 -11.69372,-6.96202 -2.66022,-1.63398 -5.75861,-3.38599 -6.88531,-3.89335 -1.7778,-0.80055 1.86442,-0.92875 27.55826,-0.97003 l 29.6068,-0.0476 v 11.47615 11.47615 l -10.32795,-0.10416 -10.32796,-0.10416 z"
       id="path52" /><path
       style="fill:#767676;fill-opacity:1"
       d="M 72.649554,22.202815 V 7.688864 h 31.947806 31.9478 v 14.513951 14.51395 h -31.9478 -31.947806 z"
       id="path51" /><path
       style="fill:#707070;fill-opacity:1"
       d="m 144.2567,94.435034 v -14.51395 h 29.4691 29.46909 v 14.51395 14.513956 H 173.7258 144.2567 Z"
       id="path50" /><path
       style="fill:#5a5a5a;fill-opacity:1"
       d="M 144.80752,57.981391 V 44.142508 h 28.91828 28.91827 V 57.981391 71.820274 H 173.7258 144.80752 Z"
       id="path49" /><path
       style="fill:#555555;fill-opacity:1"
       d="m 72.649554,209.19651 v -14.51395 h 31.947806 31.9478 v 14.51395 14.51395 h -31.9478 -31.947806 z"
       id="path48" /><path
       style="fill:#545454;fill-opacity:1"
       d="M 144.2567,57.981391 V 43.46744 h 29.4691 29.46909 V 57.981391 72.495342 H 173.7258 144.2567 Z m 58.38737,0 V 44.142508 H 173.7258 144.80752 v 13.838883 13.838883 h 28.91828 28.91827 z"
       id="path47" /><path
       style="fill:#363636;fill-opacity:1"
       d="m 123.32538,169.36753 v -4.38794 h 6.60989 6.60989 v 4.38794 4.38793 h -6.60989 -6.60989 z m 4.96585,0.84383 c 0.006,-0.57209 0.19661,-0.51774 0.59276,0.16877 0.47919,0.83041 0.63833,0.84703 0.88448,0.0924 0.25341,-0.77692 0.37555,-0.77692 0.7843,0 0.40286,0.76571 0.57522,0.75019 1.02654,-0.0924 0.98634,-1.84143 0.58587,-2.38358 -1.85924,-2.51699 -2.17049,-0.11843 -2.44508,0.0385 -2.67774,1.53005 -0.17277,1.10764 -0.009,1.662 0.49062,1.662 0.41241,0 0.75364,-0.37972 0.75828,-0.84383 z"
       id="path46" /></g></svg>
